%TF.GenerationSoftware,KiCad,Pcbnew,9.0.2*%
%TF.CreationDate,2025-06-26T18:02:10+02:00*%
%TF.ProjectId,eurorack-pmod-pcb,6575726f-7261-4636-9b2d-706d6f642d70,rev?*%
%TF.SameCoordinates,Original*%
%TF.FileFunction,Legend,Bot*%
%TF.FilePolarity,Positive*%
%FSLAX46Y46*%
G04 Gerber Fmt 4.6, Leading zero omitted, Abs format (unit mm)*
G04 Created by KiCad (PCBNEW 9.0.2) date 2025-06-26 18:02:10*
%MOMM*%
%LPD*%
G01*
G04 APERTURE LIST*
G04 Aperture macros list*
%AMRoundRect*
0 Rectangle with rounded corners*
0 $1 Rounding radius*
0 $2 $3 $4 $5 $6 $7 $8 $9 X,Y pos of 4 corners*
0 Add a 4 corners polygon primitive as box body*
4,1,4,$2,$3,$4,$5,$6,$7,$8,$9,$2,$3,0*
0 Add four circle primitives for the rounded corners*
1,1,$1+$1,$2,$3*
1,1,$1+$1,$4,$5*
1,1,$1+$1,$6,$7*
1,1,$1+$1,$8,$9*
0 Add four rect primitives between the rounded corners*
20,1,$1+$1,$2,$3,$4,$5,0*
20,1,$1+$1,$4,$5,$6,$7,0*
20,1,$1+$1,$6,$7,$8,$9,0*
20,1,$1+$1,$8,$9,$2,$3,0*%
G04 Aperture macros list end*
%ADD10C,0.150000*%
%ADD11C,0.300000*%
%ADD12C,0.250000*%
%ADD13C,0.200000*%
%ADD14C,0.375000*%
%ADD15C,0.120000*%
%ADD16C,0.100000*%
%ADD17C,0.010000*%
%ADD18O,1.308000X2.616000*%
%ADD19O,2.016000X1.008000*%
%ADD20O,2.616000X1.308000*%
%ADD21C,0.700000*%
%ADD22C,4.400000*%
%ADD23R,1.700000X1.700000*%
%ADD24O,1.700000X1.700000*%
%ADD25RoundRect,0.225000X-0.225000X-0.250000X0.225000X-0.250000X0.225000X0.250000X-0.225000X0.250000X0*%
%ADD26R,0.200000X0.300000*%
%ADD27R,0.300000X0.500000*%
%ADD28RoundRect,0.200000X0.275000X-0.200000X0.275000X0.200000X-0.275000X0.200000X-0.275000X-0.200000X0*%
%ADD29RoundRect,0.200000X-0.200000X-0.275000X0.200000X-0.275000X0.200000X0.275000X-0.200000X0.275000X0*%
%ADD30RoundRect,0.150000X-0.587500X-0.150000X0.587500X-0.150000X0.587500X0.150000X-0.587500X0.150000X0*%
%ADD31RoundRect,0.200000X0.200000X0.275000X-0.200000X0.275000X-0.200000X-0.275000X0.200000X-0.275000X0*%
%ADD32R,1.800000X0.300000*%
%ADD33R,3.200000X2.500000*%
G04 APERTURE END LIST*
D10*
X-2740801Y-107385000D02*
X-6082051Y-107385000D01*
X-1778000Y-5334000D02*
X3302000Y-5334000D01*
X3302000Y-7874000D01*
X-1778000Y-7874000D01*
X-1778000Y-5334000D01*
G36*
X-1778000Y-5334000D02*
G01*
X3302000Y-5334000D01*
X3302000Y-7874000D01*
X-1778000Y-7874000D01*
X-1778000Y-5334000D01*
G37*
X-1778000Y-9144000D02*
X-2540000Y-8382000D01*
X4572000Y-26924000D02*
X-5080000Y-26924000D01*
X-5080000Y-25654000D02*
X-5842000Y-25654000D01*
X-6082051Y-107385000D02*
X-6082051Y-94685000D01*
X-5080000Y-24384000D02*
X4572000Y-24384000D01*
X-5842000Y-9144000D02*
X-1778000Y-9144000D01*
X4572000Y-21844000D02*
X4572000Y-19304000D01*
X-254000Y-24384000D02*
X-254000Y-34544000D01*
X4572000Y-21844000D02*
X-5080000Y-21844000D01*
X4572000Y-23114000D02*
X4826000Y-23114000D01*
X4572000Y-32004000D02*
X-5080000Y-32004000D01*
X-2740801Y-105353000D02*
X-6082051Y-105353000D01*
X4572000Y-19304000D02*
X-5080000Y-19304000D01*
D11*
X11425736Y-71502760D02*
X10409736Y-72518760D01*
D10*
X-2740801Y-96717000D02*
X-6082051Y-96717000D01*
X-5279000Y-64893000D02*
X-3879000Y-66643000D01*
X4572000Y-29464000D02*
X-5080000Y-29464000D01*
D11*
X10409736Y-72518760D02*
G75*
G02*
X9393736Y-71502760I-508000J508000D01*
G01*
D10*
X-3879000Y-66643000D02*
X-3179000Y-66143000D01*
X-6082051Y-94685000D02*
X-2740801Y-94685000D01*
X4572000Y-34544000D02*
X-5080000Y-34544000D01*
X-3829000Y-67293000D02*
X-5279000Y-64893000D01*
X-1778000Y-9144000D02*
X-2540000Y-9906000D01*
X-5080000Y-19304000D02*
X-5080000Y-21844000D01*
X-2740801Y-94685000D02*
X-2740801Y-107385000D01*
D11*
X10409736Y-70486760D02*
X11425736Y-71502760D01*
D10*
X-5080000Y-34544000D02*
X-5080000Y-24384000D01*
X-5842000Y-25654000D02*
X-5842000Y-9144000D01*
D11*
X9393736Y-71502760D02*
G75*
G02*
X10409736Y-70486760I508000J508000D01*
G01*
D10*
X4572000Y-24384000D02*
X4572000Y-21844000D01*
X-3179000Y-66143000D02*
X-3829000Y-67293000D01*
X-2674100Y-97225000D02*
X2438400Y-97225000D01*
X2438400Y-104865400D01*
X-2674100Y-104865400D01*
X-2674100Y-97225000D01*
G36*
X-2674100Y-97225000D02*
G01*
X2438400Y-97225000D01*
X2438400Y-104865400D01*
X-2674100Y-104865400D01*
X-2674100Y-97225000D01*
G37*
X-5080000Y-21844000D02*
X-5080000Y-24384000D01*
X4572000Y-24384000D02*
X4572000Y-34544000D01*
D12*
X9085619Y-55824857D02*
X9038000Y-55729619D01*
X9038000Y-55729619D02*
X8990380Y-55682000D01*
X8990380Y-55682000D02*
X8895142Y-55634381D01*
X8895142Y-55634381D02*
X8609428Y-55634381D01*
X8609428Y-55634381D02*
X8514190Y-55682000D01*
X8514190Y-55682000D02*
X8466571Y-55729619D01*
X8466571Y-55729619D02*
X8418952Y-55824857D01*
X8418952Y-55824857D02*
X8418952Y-55967714D01*
X8418952Y-55967714D02*
X8466571Y-56062952D01*
X8466571Y-56062952D02*
X8514190Y-56110571D01*
X8514190Y-56110571D02*
X8609428Y-56158190D01*
X8609428Y-56158190D02*
X8895142Y-56158190D01*
X8895142Y-56158190D02*
X8990380Y-56110571D01*
X8990380Y-56110571D02*
X9038000Y-56062952D01*
X9038000Y-56062952D02*
X9085619Y-55967714D01*
X9085619Y-55967714D02*
X9085619Y-55824857D01*
X9038000Y-56539143D02*
X9085619Y-56634381D01*
X9085619Y-56634381D02*
X9085619Y-56824857D01*
X9085619Y-56824857D02*
X9038000Y-56920095D01*
X9038000Y-56920095D02*
X8942761Y-56967714D01*
X8942761Y-56967714D02*
X8895142Y-56967714D01*
X8895142Y-56967714D02*
X8799904Y-56920095D01*
X8799904Y-56920095D02*
X8752285Y-56824857D01*
X8752285Y-56824857D02*
X8752285Y-56682000D01*
X8752285Y-56682000D02*
X8704666Y-56586762D01*
X8704666Y-56586762D02*
X8609428Y-56539143D01*
X8609428Y-56539143D02*
X8561809Y-56539143D01*
X8561809Y-56539143D02*
X8466571Y-56586762D01*
X8466571Y-56586762D02*
X8418952Y-56682000D01*
X8418952Y-56682000D02*
X8418952Y-56824857D01*
X8418952Y-56824857D02*
X8466571Y-56920095D01*
X9085619Y-57396286D02*
X8085619Y-57396286D01*
X9085619Y-57824857D02*
X8561809Y-57824857D01*
X8561809Y-57824857D02*
X8466571Y-57777238D01*
X8466571Y-57777238D02*
X8418952Y-57682000D01*
X8418952Y-57682000D02*
X8418952Y-57539143D01*
X8418952Y-57539143D02*
X8466571Y-57443905D01*
X8466571Y-57443905D02*
X8514190Y-57396286D01*
X8418952Y-58205810D02*
X9085619Y-58396286D01*
X9085619Y-58396286D02*
X8609428Y-58586762D01*
X8609428Y-58586762D02*
X9085619Y-58777238D01*
X9085619Y-58777238D02*
X8418952Y-58967714D01*
X9085619Y-59777238D02*
X8561809Y-59777238D01*
X8561809Y-59777238D02*
X8466571Y-59729619D01*
X8466571Y-59729619D02*
X8418952Y-59634381D01*
X8418952Y-59634381D02*
X8418952Y-59443905D01*
X8418952Y-59443905D02*
X8466571Y-59348667D01*
X9038000Y-59777238D02*
X9085619Y-59682000D01*
X9085619Y-59682000D02*
X9085619Y-59443905D01*
X9085619Y-59443905D02*
X9038000Y-59348667D01*
X9038000Y-59348667D02*
X8942761Y-59301048D01*
X8942761Y-59301048D02*
X8847523Y-59301048D01*
X8847523Y-59301048D02*
X8752285Y-59348667D01*
X8752285Y-59348667D02*
X8704666Y-59443905D01*
X8704666Y-59443905D02*
X8704666Y-59682000D01*
X8704666Y-59682000D02*
X8657047Y-59777238D01*
X8990380Y-60253429D02*
X9038000Y-60301048D01*
X9038000Y-60301048D02*
X9085619Y-60253429D01*
X9085619Y-60253429D02*
X9038000Y-60205810D01*
X9038000Y-60205810D02*
X8990380Y-60253429D01*
X8990380Y-60253429D02*
X9085619Y-60253429D01*
X9085619Y-60872476D02*
X9038000Y-60777238D01*
X9038000Y-60777238D02*
X8990380Y-60729619D01*
X8990380Y-60729619D02*
X8895142Y-60682000D01*
X8895142Y-60682000D02*
X8609428Y-60682000D01*
X8609428Y-60682000D02*
X8514190Y-60729619D01*
X8514190Y-60729619D02*
X8466571Y-60777238D01*
X8466571Y-60777238D02*
X8418952Y-60872476D01*
X8418952Y-60872476D02*
X8418952Y-61015333D01*
X8418952Y-61015333D02*
X8466571Y-61110571D01*
X8466571Y-61110571D02*
X8514190Y-61158190D01*
X8514190Y-61158190D02*
X8609428Y-61205809D01*
X8609428Y-61205809D02*
X8895142Y-61205809D01*
X8895142Y-61205809D02*
X8990380Y-61158190D01*
X8990380Y-61158190D02*
X9038000Y-61110571D01*
X9038000Y-61110571D02*
X9085619Y-61015333D01*
X9085619Y-61015333D02*
X9085619Y-60872476D01*
X9085619Y-61634381D02*
X8418952Y-61634381D01*
X8609428Y-61634381D02*
X8514190Y-61682000D01*
X8514190Y-61682000D02*
X8466571Y-61729619D01*
X8466571Y-61729619D02*
X8418952Y-61824857D01*
X8418952Y-61824857D02*
X8418952Y-61920095D01*
X8418952Y-62682000D02*
X9228476Y-62682000D01*
X9228476Y-62682000D02*
X9323714Y-62634381D01*
X9323714Y-62634381D02*
X9371333Y-62586762D01*
X9371333Y-62586762D02*
X9418952Y-62491524D01*
X9418952Y-62491524D02*
X9418952Y-62348667D01*
X9418952Y-62348667D02*
X9371333Y-62253429D01*
X9038000Y-62682000D02*
X9085619Y-62586762D01*
X9085619Y-62586762D02*
X9085619Y-62396286D01*
X9085619Y-62396286D02*
X9038000Y-62301048D01*
X9038000Y-62301048D02*
X8990380Y-62253429D01*
X8990380Y-62253429D02*
X8895142Y-62205810D01*
X8895142Y-62205810D02*
X8609428Y-62205810D01*
X8609428Y-62205810D02*
X8514190Y-62253429D01*
X8514190Y-62253429D02*
X8466571Y-62301048D01*
X8466571Y-62301048D02*
X8418952Y-62396286D01*
X8418952Y-62396286D02*
X8418952Y-62586762D01*
X8418952Y-62586762D02*
X8466571Y-62682000D01*
X-888626Y-28674820D02*
X-888626Y-27674820D01*
X-888626Y-27674820D02*
X-1221959Y-28389105D01*
X-1221959Y-28389105D02*
X-1555292Y-27674820D01*
X-1555292Y-27674820D02*
X-1555292Y-28674820D01*
X-2031483Y-27674820D02*
X-2031483Y-28484343D01*
X-2031483Y-28484343D02*
X-2079102Y-28579581D01*
X-2079102Y-28579581D02*
X-2126721Y-28627201D01*
X-2126721Y-28627201D02*
X-2221959Y-28674820D01*
X-2221959Y-28674820D02*
X-2412435Y-28674820D01*
X-2412435Y-28674820D02*
X-2507673Y-28627201D01*
X-2507673Y-28627201D02*
X-2555292Y-28579581D01*
X-2555292Y-28579581D02*
X-2602911Y-28484343D01*
X-2602911Y-28484343D02*
X-2602911Y-27674820D01*
X-2936245Y-27674820D02*
X-3507673Y-27674820D01*
X-3221959Y-28674820D02*
X-3221959Y-27674820D01*
X-3841007Y-28151010D02*
X-4174340Y-28151010D01*
X-4317197Y-28674820D02*
X-3841007Y-28674820D01*
X-3841007Y-28674820D02*
X-3841007Y-27674820D01*
X-3841007Y-27674820D02*
X-4317197Y-27674820D01*
X-750531Y-27397201D02*
X-4407674Y-27397201D01*
X3325666Y-25579809D02*
X3182809Y-25627428D01*
X3182809Y-25627428D02*
X3135190Y-25675047D01*
X3135190Y-25675047D02*
X3087571Y-25770285D01*
X3087571Y-25770285D02*
X3087571Y-25913142D01*
X3087571Y-25913142D02*
X3135190Y-26008380D01*
X3135190Y-26008380D02*
X3182809Y-26056000D01*
X3182809Y-26056000D02*
X3278047Y-26103619D01*
X3278047Y-26103619D02*
X3658999Y-26103619D01*
X3658999Y-26103619D02*
X3658999Y-25103619D01*
X3658999Y-25103619D02*
X3325666Y-25103619D01*
X3325666Y-25103619D02*
X3230428Y-25151238D01*
X3230428Y-25151238D02*
X3182809Y-25198857D01*
X3182809Y-25198857D02*
X3135190Y-25294095D01*
X3135190Y-25294095D02*
X3135190Y-25389333D01*
X3135190Y-25389333D02*
X3182809Y-25484571D01*
X3182809Y-25484571D02*
X3230428Y-25532190D01*
X3230428Y-25532190D02*
X3325666Y-25579809D01*
X3325666Y-25579809D02*
X3658999Y-25579809D01*
X2658999Y-26103619D02*
X2658999Y-25103619D01*
X1611381Y-26008380D02*
X1659000Y-26056000D01*
X1659000Y-26056000D02*
X1801857Y-26103619D01*
X1801857Y-26103619D02*
X1897095Y-26103619D01*
X1897095Y-26103619D02*
X2039952Y-26056000D01*
X2039952Y-26056000D02*
X2135190Y-25960761D01*
X2135190Y-25960761D02*
X2182809Y-25865523D01*
X2182809Y-25865523D02*
X2230428Y-25675047D01*
X2230428Y-25675047D02*
X2230428Y-25532190D01*
X2230428Y-25532190D02*
X2182809Y-25341714D01*
X2182809Y-25341714D02*
X2135190Y-25246476D01*
X2135190Y-25246476D02*
X2039952Y-25151238D01*
X2039952Y-25151238D02*
X1897095Y-25103619D01*
X1897095Y-25103619D02*
X1801857Y-25103619D01*
X1801857Y-25103619D02*
X1659000Y-25151238D01*
X1659000Y-25151238D02*
X1611381Y-25198857D01*
X1182809Y-26103619D02*
X1182809Y-25103619D01*
X611381Y-26103619D02*
X1039952Y-25532190D01*
X611381Y-25103619D02*
X1182809Y-25675047D01*
X11117619Y-55610571D02*
X10117619Y-55610571D01*
X10117619Y-55610571D02*
X10117619Y-55848666D01*
X10117619Y-55848666D02*
X10165238Y-55991523D01*
X10165238Y-55991523D02*
X10260476Y-56086761D01*
X10260476Y-56086761D02*
X10355714Y-56134380D01*
X10355714Y-56134380D02*
X10546190Y-56181999D01*
X10546190Y-56181999D02*
X10689047Y-56181999D01*
X10689047Y-56181999D02*
X10879523Y-56134380D01*
X10879523Y-56134380D02*
X10974761Y-56086761D01*
X10974761Y-56086761D02*
X11070000Y-55991523D01*
X11070000Y-55991523D02*
X11117619Y-55848666D01*
X11117619Y-55848666D02*
X11117619Y-55610571D01*
X10593809Y-56610571D02*
X10593809Y-56943904D01*
X11117619Y-57086761D02*
X11117619Y-56610571D01*
X11117619Y-56610571D02*
X10117619Y-56610571D01*
X10117619Y-56610571D02*
X10117619Y-57086761D01*
X10117619Y-57705809D02*
X10117619Y-57801047D01*
X10117619Y-57801047D02*
X10165238Y-57896285D01*
X10165238Y-57896285D02*
X10212857Y-57943904D01*
X10212857Y-57943904D02*
X10308095Y-57991523D01*
X10308095Y-57991523D02*
X10498571Y-58039142D01*
X10498571Y-58039142D02*
X10736666Y-58039142D01*
X10736666Y-58039142D02*
X10927142Y-57991523D01*
X10927142Y-57991523D02*
X11022380Y-57943904D01*
X11022380Y-57943904D02*
X11070000Y-57896285D01*
X11070000Y-57896285D02*
X11117619Y-57801047D01*
X11117619Y-57801047D02*
X11117619Y-57705809D01*
X11117619Y-57705809D02*
X11070000Y-57610571D01*
X11070000Y-57610571D02*
X11022380Y-57562952D01*
X11022380Y-57562952D02*
X10927142Y-57515333D01*
X10927142Y-57515333D02*
X10736666Y-57467714D01*
X10736666Y-57467714D02*
X10498571Y-57467714D01*
X10498571Y-57467714D02*
X10308095Y-57515333D01*
X10308095Y-57515333D02*
X10212857Y-57562952D01*
X10212857Y-57562952D02*
X10165238Y-57610571D01*
X10165238Y-57610571D02*
X10117619Y-57705809D01*
X10117619Y-58658190D02*
X10117619Y-58753428D01*
X10117619Y-58753428D02*
X10165238Y-58848666D01*
X10165238Y-58848666D02*
X10212857Y-58896285D01*
X10212857Y-58896285D02*
X10308095Y-58943904D01*
X10308095Y-58943904D02*
X10498571Y-58991523D01*
X10498571Y-58991523D02*
X10736666Y-58991523D01*
X10736666Y-58991523D02*
X10927142Y-58943904D01*
X10927142Y-58943904D02*
X11022380Y-58896285D01*
X11022380Y-58896285D02*
X11070000Y-58848666D01*
X11070000Y-58848666D02*
X11117619Y-58753428D01*
X11117619Y-58753428D02*
X11117619Y-58658190D01*
X11117619Y-58658190D02*
X11070000Y-58562952D01*
X11070000Y-58562952D02*
X11022380Y-58515333D01*
X11022380Y-58515333D02*
X10927142Y-58467714D01*
X10927142Y-58467714D02*
X10736666Y-58420095D01*
X10736666Y-58420095D02*
X10498571Y-58420095D01*
X10498571Y-58420095D02*
X10308095Y-58467714D01*
X10308095Y-58467714D02*
X10212857Y-58515333D01*
X10212857Y-58515333D02*
X10165238Y-58562952D01*
X10165238Y-58562952D02*
X10117619Y-58658190D01*
X10117619Y-59610571D02*
X10117619Y-59705809D01*
X10117619Y-59705809D02*
X10165238Y-59801047D01*
X10165238Y-59801047D02*
X10212857Y-59848666D01*
X10212857Y-59848666D02*
X10308095Y-59896285D01*
X10308095Y-59896285D02*
X10498571Y-59943904D01*
X10498571Y-59943904D02*
X10736666Y-59943904D01*
X10736666Y-59943904D02*
X10927142Y-59896285D01*
X10927142Y-59896285D02*
X11022380Y-59848666D01*
X11022380Y-59848666D02*
X11070000Y-59801047D01*
X11070000Y-59801047D02*
X11117619Y-59705809D01*
X11117619Y-59705809D02*
X11117619Y-59610571D01*
X11117619Y-59610571D02*
X11070000Y-59515333D01*
X11070000Y-59515333D02*
X11022380Y-59467714D01*
X11022380Y-59467714D02*
X10927142Y-59420095D01*
X10927142Y-59420095D02*
X10736666Y-59372476D01*
X10736666Y-59372476D02*
X10498571Y-59372476D01*
X10498571Y-59372476D02*
X10308095Y-59420095D01*
X10308095Y-59420095D02*
X10212857Y-59467714D01*
X10212857Y-59467714D02*
X10165238Y-59515333D01*
X10165238Y-59515333D02*
X10117619Y-59610571D01*
X11117619Y-60896285D02*
X11117619Y-60324857D01*
X11117619Y-60610571D02*
X10117619Y-60610571D01*
X10117619Y-60610571D02*
X10260476Y-60515333D01*
X10260476Y-60515333D02*
X10355714Y-60420095D01*
X10355714Y-60420095D02*
X10403333Y-60324857D01*
X10117619Y-61229619D02*
X10117619Y-61848666D01*
X10117619Y-61848666D02*
X10498571Y-61515333D01*
X10498571Y-61515333D02*
X10498571Y-61658190D01*
X10498571Y-61658190D02*
X10546190Y-61753428D01*
X10546190Y-61753428D02*
X10593809Y-61801047D01*
X10593809Y-61801047D02*
X10689047Y-61848666D01*
X10689047Y-61848666D02*
X10927142Y-61848666D01*
X10927142Y-61848666D02*
X11022380Y-61801047D01*
X11022380Y-61801047D02*
X11070000Y-61753428D01*
X11070000Y-61753428D02*
X11117619Y-61658190D01*
X11117619Y-61658190D02*
X11117619Y-61372476D01*
X11117619Y-61372476D02*
X11070000Y-61277238D01*
X11070000Y-61277238D02*
X11022380Y-61229619D01*
X10117619Y-62753428D02*
X10117619Y-62277238D01*
X10117619Y-62277238D02*
X10593809Y-62229619D01*
X10593809Y-62229619D02*
X10546190Y-62277238D01*
X10546190Y-62277238D02*
X10498571Y-62372476D01*
X10498571Y-62372476D02*
X10498571Y-62610571D01*
X10498571Y-62610571D02*
X10546190Y-62705809D01*
X10546190Y-62705809D02*
X10593809Y-62753428D01*
X10593809Y-62753428D02*
X10689047Y-62801047D01*
X10689047Y-62801047D02*
X10927142Y-62801047D01*
X10927142Y-62801047D02*
X11022380Y-62753428D01*
X11022380Y-62753428D02*
X11070000Y-62705809D01*
X11070000Y-62705809D02*
X11117619Y-62610571D01*
X11117619Y-62610571D02*
X11117619Y-62372476D01*
X11117619Y-62372476D02*
X11070000Y-62277238D01*
X11070000Y-62277238D02*
X11022380Y-62229619D01*
X3406714Y-67255238D02*
X4073381Y-66302857D01*
X4549571Y-67255238D02*
X4549571Y-65255238D01*
X4549571Y-65255238D02*
X3787666Y-65255238D01*
X3787666Y-65255238D02*
X3597190Y-65350476D01*
X3597190Y-65350476D02*
X3501952Y-65445714D01*
X3501952Y-65445714D02*
X3406714Y-65636190D01*
X3406714Y-65636190D02*
X3406714Y-65921904D01*
X3406714Y-65921904D02*
X3501952Y-66112380D01*
X3501952Y-66112380D02*
X3597190Y-66207619D01*
X3597190Y-66207619D02*
X3787666Y-66302857D01*
X3787666Y-66302857D02*
X4549571Y-66302857D01*
X2263857Y-67255238D02*
X2454333Y-67160000D01*
X2454333Y-67160000D02*
X2549571Y-67064761D01*
X2549571Y-67064761D02*
X2644809Y-66874285D01*
X2644809Y-66874285D02*
X2644809Y-66302857D01*
X2644809Y-66302857D02*
X2549571Y-66112380D01*
X2549571Y-66112380D02*
X2454333Y-66017142D01*
X2454333Y-66017142D02*
X2263857Y-65921904D01*
X2263857Y-65921904D02*
X1978142Y-65921904D01*
X1978142Y-65921904D02*
X1787666Y-66017142D01*
X1787666Y-66017142D02*
X1692428Y-66112380D01*
X1692428Y-66112380D02*
X1597190Y-66302857D01*
X1597190Y-66302857D02*
X1597190Y-66874285D01*
X1597190Y-66874285D02*
X1692428Y-67064761D01*
X1692428Y-67064761D02*
X1787666Y-67160000D01*
X1787666Y-67160000D02*
X1978142Y-67255238D01*
X1978142Y-67255238D02*
X2263857Y-67255238D01*
X740047Y-67255238D02*
X740047Y-65255238D01*
X740047Y-66207619D02*
X-402809Y-66207619D01*
X-402809Y-67255238D02*
X-402809Y-65255238D01*
X-1259952Y-67160000D02*
X-1545666Y-67255238D01*
X-1545666Y-67255238D02*
X-2021857Y-67255238D01*
X-2021857Y-67255238D02*
X-2212333Y-67160000D01*
X-2212333Y-67160000D02*
X-2307571Y-67064761D01*
X-2307571Y-67064761D02*
X-2402809Y-66874285D01*
X-2402809Y-66874285D02*
X-2402809Y-66683809D01*
X-2402809Y-66683809D02*
X-2307571Y-66493333D01*
X-2307571Y-66493333D02*
X-2212333Y-66398095D01*
X-2212333Y-66398095D02*
X-2021857Y-66302857D01*
X-2021857Y-66302857D02*
X-1640904Y-66207619D01*
X-1640904Y-66207619D02*
X-1450428Y-66112380D01*
X-1450428Y-66112380D02*
X-1355190Y-66017142D01*
X-1355190Y-66017142D02*
X-1259952Y-65826666D01*
X-1259952Y-65826666D02*
X-1259952Y-65636190D01*
X-1259952Y-65636190D02*
X-1355190Y-65445714D01*
X-1355190Y-65445714D02*
X-1450428Y-65350476D01*
X-1450428Y-65350476D02*
X-1640904Y-65255238D01*
X-1640904Y-65255238D02*
X-2117095Y-65255238D01*
X-2117095Y-65255238D02*
X-2402809Y-65350476D01*
D13*
X10704840Y-67570327D02*
X9704840Y-67570327D01*
X9704840Y-67570327D02*
X10419125Y-67870327D01*
X10419125Y-67870327D02*
X9704840Y-68170327D01*
X9704840Y-68170327D02*
X10704840Y-68170327D01*
X10704840Y-68598898D02*
X10038173Y-68598898D01*
X9704840Y-68598898D02*
X9752459Y-68556041D01*
X9752459Y-68556041D02*
X9800078Y-68598898D01*
X9800078Y-68598898D02*
X9752459Y-68641755D01*
X9752459Y-68641755D02*
X9704840Y-68598898D01*
X9704840Y-68598898D02*
X9800078Y-68598898D01*
X10038173Y-68898898D02*
X10038173Y-69241755D01*
X9704840Y-69027469D02*
X10561982Y-69027469D01*
X10561982Y-69027469D02*
X10657221Y-69070326D01*
X10657221Y-69070326D02*
X10704840Y-69156041D01*
X10704840Y-69156041D02*
X10704840Y-69241755D01*
X10704840Y-74041754D02*
X10181030Y-74041754D01*
X10181030Y-74041754D02*
X10085792Y-73998896D01*
X10085792Y-73998896D02*
X10038173Y-73913182D01*
X10038173Y-73913182D02*
X10038173Y-73741754D01*
X10038173Y-73741754D02*
X10085792Y-73656039D01*
X10657221Y-74041754D02*
X10704840Y-73956039D01*
X10704840Y-73956039D02*
X10704840Y-73741754D01*
X10704840Y-73741754D02*
X10657221Y-73656039D01*
X10657221Y-73656039D02*
X10561982Y-73613182D01*
X10561982Y-73613182D02*
X10466744Y-73613182D01*
X10466744Y-73613182D02*
X10371506Y-73656039D01*
X10371506Y-73656039D02*
X10323887Y-73741754D01*
X10323887Y-73741754D02*
X10323887Y-73956039D01*
X10323887Y-73956039D02*
X10276268Y-74041754D01*
X10038173Y-74856040D02*
X10704840Y-74856040D01*
X10038173Y-74470325D02*
X10561982Y-74470325D01*
X10561982Y-74470325D02*
X10657221Y-74513182D01*
X10657221Y-74513182D02*
X10704840Y-74598897D01*
X10704840Y-74598897D02*
X10704840Y-74727468D01*
X10704840Y-74727468D02*
X10657221Y-74813182D01*
X10657221Y-74813182D02*
X10609601Y-74856040D01*
X10657221Y-75241754D02*
X10704840Y-75327468D01*
X10704840Y-75327468D02*
X10704840Y-75498897D01*
X10704840Y-75498897D02*
X10657221Y-75584611D01*
X10657221Y-75584611D02*
X10561982Y-75627468D01*
X10561982Y-75627468D02*
X10514363Y-75627468D01*
X10514363Y-75627468D02*
X10419125Y-75584611D01*
X10419125Y-75584611D02*
X10371506Y-75498897D01*
X10371506Y-75498897D02*
X10371506Y-75370326D01*
X10371506Y-75370326D02*
X10323887Y-75284611D01*
X10323887Y-75284611D02*
X10228649Y-75241754D01*
X10228649Y-75241754D02*
X10181030Y-75241754D01*
X10181030Y-75241754D02*
X10085792Y-75284611D01*
X10085792Y-75284611D02*
X10038173Y-75370326D01*
X10038173Y-75370326D02*
X10038173Y-75498897D01*
X10038173Y-75498897D02*
X10085792Y-75584611D01*
X10704840Y-76698896D02*
X9704840Y-76698896D01*
X10181030Y-76698896D02*
X10181030Y-77213182D01*
X10704840Y-77213182D02*
X9704840Y-77213182D01*
X10657221Y-77984610D02*
X10704840Y-77898896D01*
X10704840Y-77898896D02*
X10704840Y-77727468D01*
X10704840Y-77727468D02*
X10657221Y-77641753D01*
X10657221Y-77641753D02*
X10561982Y-77598896D01*
X10561982Y-77598896D02*
X10181030Y-77598896D01*
X10181030Y-77598896D02*
X10085792Y-77641753D01*
X10085792Y-77641753D02*
X10038173Y-77727468D01*
X10038173Y-77727468D02*
X10038173Y-77898896D01*
X10038173Y-77898896D02*
X10085792Y-77984610D01*
X10085792Y-77984610D02*
X10181030Y-78027468D01*
X10181030Y-78027468D02*
X10276268Y-78027468D01*
X10276268Y-78027468D02*
X10371506Y-77598896D01*
X10704840Y-78413182D02*
X10038173Y-78413182D01*
X9704840Y-78413182D02*
X9752459Y-78370325D01*
X9752459Y-78370325D02*
X9800078Y-78413182D01*
X9800078Y-78413182D02*
X9752459Y-78456039D01*
X9752459Y-78456039D02*
X9704840Y-78413182D01*
X9704840Y-78413182D02*
X9800078Y-78413182D01*
X10704840Y-79227468D02*
X9704840Y-79227468D01*
X10657221Y-79227468D02*
X10704840Y-79141753D01*
X10704840Y-79141753D02*
X10704840Y-78970325D01*
X10704840Y-78970325D02*
X10657221Y-78884610D01*
X10657221Y-78884610D02*
X10609601Y-78841753D01*
X10609601Y-78841753D02*
X10514363Y-78798896D01*
X10514363Y-78798896D02*
X10228649Y-78798896D01*
X10228649Y-78798896D02*
X10133411Y-78841753D01*
X10133411Y-78841753D02*
X10085792Y-78884610D01*
X10085792Y-78884610D02*
X10038173Y-78970325D01*
X10038173Y-78970325D02*
X10038173Y-79141753D01*
X10038173Y-79141753D02*
X10085792Y-79227468D01*
X10657221Y-79998896D02*
X10704840Y-79913182D01*
X10704840Y-79913182D02*
X10704840Y-79741754D01*
X10704840Y-79741754D02*
X10657221Y-79656039D01*
X10657221Y-79656039D02*
X10561982Y-79613182D01*
X10561982Y-79613182D02*
X10181030Y-79613182D01*
X10181030Y-79613182D02*
X10085792Y-79656039D01*
X10085792Y-79656039D02*
X10038173Y-79741754D01*
X10038173Y-79741754D02*
X10038173Y-79913182D01*
X10038173Y-79913182D02*
X10085792Y-79998896D01*
X10085792Y-79998896D02*
X10181030Y-80041754D01*
X10181030Y-80041754D02*
X10276268Y-80041754D01*
X10276268Y-80041754D02*
X10371506Y-79613182D01*
X10704840Y-80556040D02*
X10657221Y-80470325D01*
X10657221Y-80470325D02*
X10561982Y-80427468D01*
X10561982Y-80427468D02*
X9704840Y-80427468D01*
X10704840Y-80898897D02*
X9704840Y-80898897D01*
X10085792Y-80898897D02*
X10038173Y-80984612D01*
X10038173Y-80984612D02*
X10038173Y-81156040D01*
X10038173Y-81156040D02*
X10085792Y-81241754D01*
X10085792Y-81241754D02*
X10133411Y-81284612D01*
X10133411Y-81284612D02*
X10228649Y-81327469D01*
X10228649Y-81327469D02*
X10514363Y-81327469D01*
X10514363Y-81327469D02*
X10609601Y-81284612D01*
X10609601Y-81284612D02*
X10657221Y-81241754D01*
X10657221Y-81241754D02*
X10704840Y-81156040D01*
X10704840Y-81156040D02*
X10704840Y-80984612D01*
X10704840Y-80984612D02*
X10657221Y-80898897D01*
X10657221Y-82056040D02*
X10704840Y-81970326D01*
X10704840Y-81970326D02*
X10704840Y-81798898D01*
X10704840Y-81798898D02*
X10657221Y-81713183D01*
X10657221Y-81713183D02*
X10561982Y-81670326D01*
X10561982Y-81670326D02*
X10181030Y-81670326D01*
X10181030Y-81670326D02*
X10085792Y-81713183D01*
X10085792Y-81713183D02*
X10038173Y-81798898D01*
X10038173Y-81798898D02*
X10038173Y-81970326D01*
X10038173Y-81970326D02*
X10085792Y-82056040D01*
X10085792Y-82056040D02*
X10181030Y-82098898D01*
X10181030Y-82098898D02*
X10276268Y-82098898D01*
X10276268Y-82098898D02*
X10371506Y-81670326D01*
X10704840Y-82484612D02*
X10038173Y-82484612D01*
X10228649Y-82484612D02*
X10133411Y-82527469D01*
X10133411Y-82527469D02*
X10085792Y-82570327D01*
X10085792Y-82570327D02*
X10038173Y-82656041D01*
X10038173Y-82656041D02*
X10038173Y-82741755D01*
X10038173Y-83427470D02*
X10847697Y-83427470D01*
X10847697Y-83427470D02*
X10942935Y-83384612D01*
X10942935Y-83384612D02*
X10990554Y-83341755D01*
X10990554Y-83341755D02*
X11038173Y-83256041D01*
X11038173Y-83256041D02*
X11038173Y-83127470D01*
X11038173Y-83127470D02*
X10990554Y-83041755D01*
X10657221Y-83427470D02*
X10704840Y-83341755D01*
X10704840Y-83341755D02*
X10704840Y-83170327D01*
X10704840Y-83170327D02*
X10657221Y-83084612D01*
X10657221Y-83084612D02*
X10609601Y-83041755D01*
X10609601Y-83041755D02*
X10514363Y-82998898D01*
X10514363Y-82998898D02*
X10228649Y-82998898D01*
X10228649Y-82998898D02*
X10133411Y-83041755D01*
X10133411Y-83041755D02*
X10085792Y-83084612D01*
X10085792Y-83084612D02*
X10038173Y-83170327D01*
X10038173Y-83170327D02*
X10038173Y-83341755D01*
X10038173Y-83341755D02*
X10085792Y-83427470D01*
D12*
X-2998718Y-106437666D02*
X-3760623Y-106437666D01*
X-4760622Y-106818619D02*
X-4189194Y-106818619D01*
X-4474908Y-106818619D02*
X-4474908Y-105818619D01*
X-4474908Y-105818619D02*
X-4379670Y-105961476D01*
X-4379670Y-105961476D02*
X-4284432Y-106056714D01*
X-4284432Y-106056714D02*
X-4189194Y-106104333D01*
X-5141575Y-105913857D02*
X-5189194Y-105866238D01*
X-5189194Y-105866238D02*
X-5284432Y-105818619D01*
X-5284432Y-105818619D02*
X-5522527Y-105818619D01*
X-5522527Y-105818619D02*
X-5617765Y-105866238D01*
X-5617765Y-105866238D02*
X-5665384Y-105913857D01*
X-5665384Y-105913857D02*
X-5713003Y-106009095D01*
X-5713003Y-106009095D02*
X-5713003Y-106104333D01*
X-5713003Y-106104333D02*
X-5665384Y-106247190D01*
X-5665384Y-106247190D02*
X-5093956Y-106818619D01*
X-5093956Y-106818619D02*
X-5713003Y-106818619D01*
X8492019Y-38999257D02*
X8492019Y-39189733D01*
X8492019Y-39189733D02*
X8539638Y-39284971D01*
X8539638Y-39284971D02*
X8634876Y-39380209D01*
X8634876Y-39380209D02*
X8825352Y-39427828D01*
X8825352Y-39427828D02*
X9158685Y-39427828D01*
X9158685Y-39427828D02*
X9349161Y-39380209D01*
X9349161Y-39380209D02*
X9444400Y-39284971D01*
X9444400Y-39284971D02*
X9492019Y-39189733D01*
X9492019Y-39189733D02*
X9492019Y-38999257D01*
X9492019Y-38999257D02*
X9444400Y-38904019D01*
X9444400Y-38904019D02*
X9349161Y-38808781D01*
X9349161Y-38808781D02*
X9158685Y-38761162D01*
X9158685Y-38761162D02*
X8825352Y-38761162D01*
X8825352Y-38761162D02*
X8634876Y-38808781D01*
X8634876Y-38808781D02*
X8539638Y-38904019D01*
X8539638Y-38904019D02*
X8492019Y-38999257D01*
X9492019Y-39856400D02*
X8492019Y-39856400D01*
X8492019Y-39856400D02*
X8492019Y-40237352D01*
X8492019Y-40237352D02*
X8539638Y-40332590D01*
X8539638Y-40332590D02*
X8587257Y-40380209D01*
X8587257Y-40380209D02*
X8682495Y-40427828D01*
X8682495Y-40427828D02*
X8825352Y-40427828D01*
X8825352Y-40427828D02*
X8920590Y-40380209D01*
X8920590Y-40380209D02*
X8968209Y-40332590D01*
X8968209Y-40332590D02*
X9015828Y-40237352D01*
X9015828Y-40237352D02*
X9015828Y-39856400D01*
X8968209Y-40856400D02*
X8968209Y-41189733D01*
X9492019Y-41332590D02*
X9492019Y-40856400D01*
X9492019Y-40856400D02*
X8492019Y-40856400D01*
X8492019Y-40856400D02*
X8492019Y-41332590D01*
X9492019Y-41761162D02*
X8492019Y-41761162D01*
X8492019Y-41761162D02*
X9492019Y-42332590D01*
X9492019Y-42332590D02*
X8492019Y-42332590D01*
X9492019Y-43570686D02*
X8492019Y-43570686D01*
X8968209Y-43570686D02*
X8968209Y-44142114D01*
X9492019Y-44142114D02*
X8492019Y-44142114D01*
X9206304Y-44570686D02*
X9206304Y-45046876D01*
X9492019Y-44475448D02*
X8492019Y-44808781D01*
X8492019Y-44808781D02*
X9492019Y-45142114D01*
X9492019Y-46046876D02*
X9015828Y-45713543D01*
X9492019Y-45475448D02*
X8492019Y-45475448D01*
X8492019Y-45475448D02*
X8492019Y-45856400D01*
X8492019Y-45856400D02*
X8539638Y-45951638D01*
X8539638Y-45951638D02*
X8587257Y-45999257D01*
X8587257Y-45999257D02*
X8682495Y-46046876D01*
X8682495Y-46046876D02*
X8825352Y-46046876D01*
X8825352Y-46046876D02*
X8920590Y-45999257D01*
X8920590Y-45999257D02*
X8968209Y-45951638D01*
X8968209Y-45951638D02*
X9015828Y-45856400D01*
X9015828Y-45856400D02*
X9015828Y-45475448D01*
X9492019Y-46475448D02*
X8492019Y-46475448D01*
X8492019Y-46475448D02*
X8492019Y-46713543D01*
X8492019Y-46713543D02*
X8539638Y-46856400D01*
X8539638Y-46856400D02*
X8634876Y-46951638D01*
X8634876Y-46951638D02*
X8730114Y-46999257D01*
X8730114Y-46999257D02*
X8920590Y-47046876D01*
X8920590Y-47046876D02*
X9063447Y-47046876D01*
X9063447Y-47046876D02*
X9253923Y-46999257D01*
X9253923Y-46999257D02*
X9349161Y-46951638D01*
X9349161Y-46951638D02*
X9444400Y-46856400D01*
X9444400Y-46856400D02*
X9492019Y-46713543D01*
X9492019Y-46713543D02*
X9492019Y-46475448D01*
X8492019Y-47380210D02*
X9492019Y-47618305D01*
X9492019Y-47618305D02*
X8777733Y-47808781D01*
X8777733Y-47808781D02*
X9492019Y-47999257D01*
X9492019Y-47999257D02*
X8492019Y-48237353D01*
X9206304Y-48570686D02*
X9206304Y-49046876D01*
X9492019Y-48475448D02*
X8492019Y-48808781D01*
X8492019Y-48808781D02*
X9492019Y-49142114D01*
X9492019Y-50046876D02*
X9015828Y-49713543D01*
X9492019Y-49475448D02*
X8492019Y-49475448D01*
X8492019Y-49475448D02*
X8492019Y-49856400D01*
X8492019Y-49856400D02*
X8539638Y-49951638D01*
X8539638Y-49951638D02*
X8587257Y-49999257D01*
X8587257Y-49999257D02*
X8682495Y-50046876D01*
X8682495Y-50046876D02*
X8825352Y-50046876D01*
X8825352Y-50046876D02*
X8920590Y-49999257D01*
X8920590Y-49999257D02*
X8968209Y-49951638D01*
X8968209Y-49951638D02*
X9015828Y-49856400D01*
X9015828Y-49856400D02*
X9015828Y-49475448D01*
X8968209Y-50475448D02*
X8968209Y-50808781D01*
X9492019Y-50951638D02*
X9492019Y-50475448D01*
X9492019Y-50475448D02*
X8492019Y-50475448D01*
X8492019Y-50475448D02*
X8492019Y-50951638D01*
X-944714Y-31263000D02*
X-1087571Y-31310619D01*
X-1087571Y-31310619D02*
X-1325666Y-31310619D01*
X-1325666Y-31310619D02*
X-1420904Y-31263000D01*
X-1420904Y-31263000D02*
X-1468523Y-31215380D01*
X-1468523Y-31215380D02*
X-1516142Y-31120142D01*
X-1516142Y-31120142D02*
X-1516142Y-31024904D01*
X-1516142Y-31024904D02*
X-1468523Y-30929666D01*
X-1468523Y-30929666D02*
X-1420904Y-30882047D01*
X-1420904Y-30882047D02*
X-1325666Y-30834428D01*
X-1325666Y-30834428D02*
X-1135190Y-30786809D01*
X-1135190Y-30786809D02*
X-1039952Y-30739190D01*
X-1039952Y-30739190D02*
X-992333Y-30691571D01*
X-992333Y-30691571D02*
X-944714Y-30596333D01*
X-944714Y-30596333D02*
X-944714Y-30501095D01*
X-944714Y-30501095D02*
X-992333Y-30405857D01*
X-992333Y-30405857D02*
X-1039952Y-30358238D01*
X-1039952Y-30358238D02*
X-1135190Y-30310619D01*
X-1135190Y-30310619D02*
X-1373285Y-30310619D01*
X-1373285Y-30310619D02*
X-1516142Y-30358238D01*
X-1944714Y-31310619D02*
X-1944714Y-30310619D01*
X-1944714Y-30310619D02*
X-2182809Y-30310619D01*
X-2182809Y-30310619D02*
X-2325666Y-30358238D01*
X-2325666Y-30358238D02*
X-2420904Y-30453476D01*
X-2420904Y-30453476D02*
X-2468523Y-30548714D01*
X-2468523Y-30548714D02*
X-2516142Y-30739190D01*
X-2516142Y-30739190D02*
X-2516142Y-30882047D01*
X-2516142Y-30882047D02*
X-2468523Y-31072523D01*
X-2468523Y-31072523D02*
X-2420904Y-31167761D01*
X-2420904Y-31167761D02*
X-2325666Y-31263000D01*
X-2325666Y-31263000D02*
X-2182809Y-31310619D01*
X-2182809Y-31310619D02*
X-1944714Y-31310619D01*
X-2897095Y-31024904D02*
X-3373285Y-31024904D01*
X-2801857Y-31310619D02*
X-3135190Y-30310619D01*
X-3135190Y-30310619D02*
X-3468523Y-31310619D01*
X7640647Y-26789429D02*
X6640647Y-26789429D01*
X7116837Y-26789429D02*
X7116837Y-27360857D01*
X7640647Y-27360857D02*
X6640647Y-27360857D01*
X6640647Y-27741810D02*
X7640647Y-27979905D01*
X7640647Y-27979905D02*
X6926361Y-28170381D01*
X6926361Y-28170381D02*
X7640647Y-28360857D01*
X7640647Y-28360857D02*
X6640647Y-28598953D01*
X7640647Y-30313238D02*
X7164456Y-29979905D01*
X7640647Y-29741810D02*
X6640647Y-29741810D01*
X6640647Y-29741810D02*
X6640647Y-30122762D01*
X6640647Y-30122762D02*
X6688266Y-30218000D01*
X6688266Y-30218000D02*
X6735885Y-30265619D01*
X6735885Y-30265619D02*
X6831123Y-30313238D01*
X6831123Y-30313238D02*
X6973980Y-30313238D01*
X6973980Y-30313238D02*
X7069218Y-30265619D01*
X7069218Y-30265619D02*
X7116837Y-30218000D01*
X7116837Y-30218000D02*
X7164456Y-30122762D01*
X7164456Y-30122762D02*
X7164456Y-29741810D01*
X6640647Y-30646572D02*
X6640647Y-31265619D01*
X6640647Y-31265619D02*
X7021599Y-30932286D01*
X7021599Y-30932286D02*
X7021599Y-31075143D01*
X7021599Y-31075143D02*
X7069218Y-31170381D01*
X7069218Y-31170381D02*
X7116837Y-31218000D01*
X7116837Y-31218000D02*
X7212075Y-31265619D01*
X7212075Y-31265619D02*
X7450170Y-31265619D01*
X7450170Y-31265619D02*
X7545408Y-31218000D01*
X7545408Y-31218000D02*
X7593028Y-31170381D01*
X7593028Y-31170381D02*
X7640647Y-31075143D01*
X7640647Y-31075143D02*
X7640647Y-30789429D01*
X7640647Y-30789429D02*
X7593028Y-30694191D01*
X7593028Y-30694191D02*
X7545408Y-30646572D01*
X7545408Y-31694191D02*
X7593028Y-31741810D01*
X7593028Y-31741810D02*
X7640647Y-31694191D01*
X7640647Y-31694191D02*
X7593028Y-31646572D01*
X7593028Y-31646572D02*
X7545408Y-31694191D01*
X7545408Y-31694191D02*
X7640647Y-31694191D01*
X6640647Y-32646571D02*
X6640647Y-32170381D01*
X6640647Y-32170381D02*
X7116837Y-32122762D01*
X7116837Y-32122762D02*
X7069218Y-32170381D01*
X7069218Y-32170381D02*
X7021599Y-32265619D01*
X7021599Y-32265619D02*
X7021599Y-32503714D01*
X7021599Y-32503714D02*
X7069218Y-32598952D01*
X7069218Y-32598952D02*
X7116837Y-32646571D01*
X7116837Y-32646571D02*
X7212075Y-32694190D01*
X7212075Y-32694190D02*
X7450170Y-32694190D01*
X7450170Y-32694190D02*
X7545408Y-32646571D01*
X7545408Y-32646571D02*
X7593028Y-32598952D01*
X7593028Y-32598952D02*
X7640647Y-32503714D01*
X7640647Y-32503714D02*
X7640647Y-32265619D01*
X7640647Y-32265619D02*
X7593028Y-32170381D01*
X7593028Y-32170381D02*
X7545408Y-32122762D01*
X8250591Y-28003714D02*
X8250591Y-28098952D01*
X8250591Y-28098952D02*
X8298210Y-28194190D01*
X8298210Y-28194190D02*
X8345829Y-28241809D01*
X8345829Y-28241809D02*
X8441067Y-28289428D01*
X8441067Y-28289428D02*
X8631543Y-28337047D01*
X8631543Y-28337047D02*
X8869638Y-28337047D01*
X8869638Y-28337047D02*
X9060114Y-28289428D01*
X9060114Y-28289428D02*
X9155352Y-28241809D01*
X9155352Y-28241809D02*
X9202972Y-28194190D01*
X9202972Y-28194190D02*
X9250591Y-28098952D01*
X9250591Y-28098952D02*
X9250591Y-28003714D01*
X9250591Y-28003714D02*
X9202972Y-27908476D01*
X9202972Y-27908476D02*
X9155352Y-27860857D01*
X9155352Y-27860857D02*
X9060114Y-27813238D01*
X9060114Y-27813238D02*
X8869638Y-27765619D01*
X8869638Y-27765619D02*
X8631543Y-27765619D01*
X8631543Y-27765619D02*
X8441067Y-27813238D01*
X8441067Y-27813238D02*
X8345829Y-27860857D01*
X8345829Y-27860857D02*
X8298210Y-27908476D01*
X8298210Y-27908476D02*
X8250591Y-28003714D01*
X8250591Y-29194190D02*
X8250591Y-29003714D01*
X8250591Y-29003714D02*
X8298210Y-28908476D01*
X8298210Y-28908476D02*
X8345829Y-28860857D01*
X8345829Y-28860857D02*
X8488686Y-28765619D01*
X8488686Y-28765619D02*
X8679162Y-28718000D01*
X8679162Y-28718000D02*
X9060114Y-28718000D01*
X9060114Y-28718000D02*
X9155352Y-28765619D01*
X9155352Y-28765619D02*
X9202972Y-28813238D01*
X9202972Y-28813238D02*
X9250591Y-28908476D01*
X9250591Y-28908476D02*
X9250591Y-29098952D01*
X9250591Y-29098952D02*
X9202972Y-29194190D01*
X9202972Y-29194190D02*
X9155352Y-29241809D01*
X9155352Y-29241809D02*
X9060114Y-29289428D01*
X9060114Y-29289428D02*
X8822019Y-29289428D01*
X8822019Y-29289428D02*
X8726781Y-29241809D01*
X8726781Y-29241809D02*
X8679162Y-29194190D01*
X8679162Y-29194190D02*
X8631543Y-29098952D01*
X8631543Y-29098952D02*
X8631543Y-28908476D01*
X8631543Y-28908476D02*
X8679162Y-28813238D01*
X8679162Y-28813238D02*
X8726781Y-28765619D01*
X8726781Y-28765619D02*
X8822019Y-28718000D01*
X9155352Y-29718000D02*
X9202972Y-29765619D01*
X9202972Y-29765619D02*
X9250591Y-29718000D01*
X9250591Y-29718000D02*
X9202972Y-29670381D01*
X9202972Y-29670381D02*
X9155352Y-29718000D01*
X9155352Y-29718000D02*
X9250591Y-29718000D01*
X8345829Y-30146571D02*
X8298210Y-30194190D01*
X8298210Y-30194190D02*
X8250591Y-30289428D01*
X8250591Y-30289428D02*
X8250591Y-30527523D01*
X8250591Y-30527523D02*
X8298210Y-30622761D01*
X8298210Y-30622761D02*
X8345829Y-30670380D01*
X8345829Y-30670380D02*
X8441067Y-30717999D01*
X8441067Y-30717999D02*
X8536305Y-30717999D01*
X8536305Y-30717999D02*
X8679162Y-30670380D01*
X8679162Y-30670380D02*
X9250591Y-30098952D01*
X9250591Y-30098952D02*
X9250591Y-30717999D01*
X8250591Y-31622761D02*
X8250591Y-31146571D01*
X8250591Y-31146571D02*
X8726781Y-31098952D01*
X8726781Y-31098952D02*
X8679162Y-31146571D01*
X8679162Y-31146571D02*
X8631543Y-31241809D01*
X8631543Y-31241809D02*
X8631543Y-31479904D01*
X8631543Y-31479904D02*
X8679162Y-31575142D01*
X8679162Y-31575142D02*
X8726781Y-31622761D01*
X8726781Y-31622761D02*
X8822019Y-31670380D01*
X8822019Y-31670380D02*
X9060114Y-31670380D01*
X9060114Y-31670380D02*
X9155352Y-31622761D01*
X9155352Y-31622761D02*
X9202972Y-31575142D01*
X9202972Y-31575142D02*
X9250591Y-31479904D01*
X9250591Y-31479904D02*
X9250591Y-31241809D01*
X9250591Y-31241809D02*
X9202972Y-31146571D01*
X9202972Y-31146571D02*
X9155352Y-31098952D01*
D14*
X-4836193Y-99892143D02*
X-4907622Y-99749286D01*
X-4907622Y-99749286D02*
X-4907622Y-99535000D01*
X-4907622Y-99535000D02*
X-4836193Y-99320714D01*
X-4836193Y-99320714D02*
X-4693336Y-99177857D01*
X-4693336Y-99177857D02*
X-4550479Y-99106428D01*
X-4550479Y-99106428D02*
X-4264765Y-99035000D01*
X-4264765Y-99035000D02*
X-4050479Y-99035000D01*
X-4050479Y-99035000D02*
X-3764765Y-99106428D01*
X-3764765Y-99106428D02*
X-3621908Y-99177857D01*
X-3621908Y-99177857D02*
X-3479051Y-99320714D01*
X-3479051Y-99320714D02*
X-3407622Y-99535000D01*
X-3407622Y-99535000D02*
X-3407622Y-99677857D01*
X-3407622Y-99677857D02*
X-3479051Y-99892143D01*
X-3479051Y-99892143D02*
X-3550479Y-99963571D01*
X-3550479Y-99963571D02*
X-4050479Y-99963571D01*
X-4050479Y-99963571D02*
X-4050479Y-99677857D01*
X-3407622Y-100606428D02*
X-4907622Y-100606428D01*
X-4907622Y-100606428D02*
X-3407622Y-101463571D01*
X-3407622Y-101463571D02*
X-4907622Y-101463571D01*
X-3407622Y-102177857D02*
X-4907622Y-102177857D01*
X-4907622Y-102177857D02*
X-4907622Y-102535000D01*
X-4907622Y-102535000D02*
X-4836193Y-102749286D01*
X-4836193Y-102749286D02*
X-4693336Y-102892143D01*
X-4693336Y-102892143D02*
X-4550479Y-102963572D01*
X-4550479Y-102963572D02*
X-4264765Y-103035000D01*
X-4264765Y-103035000D02*
X-4050479Y-103035000D01*
X-4050479Y-103035000D02*
X-3764765Y-102963572D01*
X-3764765Y-102963572D02*
X-3621908Y-102892143D01*
X-3621908Y-102892143D02*
X-3479051Y-102749286D01*
X-3479051Y-102749286D02*
X-3407622Y-102535000D01*
X-3407622Y-102535000D02*
X-3407622Y-102177857D01*
D12*
X3420571Y-20023619D02*
X2491999Y-20023619D01*
X2491999Y-20023619D02*
X2991999Y-20404571D01*
X2991999Y-20404571D02*
X2777714Y-20404571D01*
X2777714Y-20404571D02*
X2634857Y-20452190D01*
X2634857Y-20452190D02*
X2563428Y-20499809D01*
X2563428Y-20499809D02*
X2491999Y-20595047D01*
X2491999Y-20595047D02*
X2491999Y-20833142D01*
X2491999Y-20833142D02*
X2563428Y-20928380D01*
X2563428Y-20928380D02*
X2634857Y-20976000D01*
X2634857Y-20976000D02*
X2777714Y-21023619D01*
X2777714Y-21023619D02*
X3206285Y-21023619D01*
X3206285Y-21023619D02*
X3349142Y-20976000D01*
X3349142Y-20976000D02*
X3420571Y-20928380D01*
X1849143Y-20928380D02*
X1777714Y-20976000D01*
X1777714Y-20976000D02*
X1849143Y-21023619D01*
X1849143Y-21023619D02*
X1920571Y-20976000D01*
X1920571Y-20976000D02*
X1849143Y-20928380D01*
X1849143Y-20928380D02*
X1849143Y-21023619D01*
X1277714Y-20023619D02*
X349142Y-20023619D01*
X349142Y-20023619D02*
X849142Y-20404571D01*
X849142Y-20404571D02*
X634857Y-20404571D01*
X634857Y-20404571D02*
X492000Y-20452190D01*
X492000Y-20452190D02*
X420571Y-20499809D01*
X420571Y-20499809D02*
X349142Y-20595047D01*
X349142Y-20595047D02*
X349142Y-20833142D01*
X349142Y-20833142D02*
X420571Y-20928380D01*
X420571Y-20928380D02*
X492000Y-20976000D01*
X492000Y-20976000D02*
X634857Y-21023619D01*
X634857Y-21023619D02*
X1063428Y-21023619D01*
X1063428Y-21023619D02*
X1206285Y-20976000D01*
X1206285Y-20976000D02*
X1277714Y-20928380D01*
X-79428Y-20023619D02*
X-579428Y-21023619D01*
X-579428Y-21023619D02*
X-1079428Y-20023619D01*
X-2722284Y-21023619D02*
X-2722284Y-20023619D01*
X-3436570Y-21023619D02*
X-3436570Y-20023619D01*
X-3436570Y-20023619D02*
X-4293713Y-21023619D01*
X-4293713Y-21023619D02*
X-4293713Y-20023619D01*
X11022380Y-39344905D02*
X11070000Y-39291333D01*
X11070000Y-39291333D02*
X11117619Y-39142524D01*
X11117619Y-39142524D02*
X11117619Y-39047286D01*
X11117619Y-39047286D02*
X11070000Y-38910381D01*
X11070000Y-38910381D02*
X10974761Y-38827048D01*
X10974761Y-38827048D02*
X10879523Y-38791333D01*
X10879523Y-38791333D02*
X10689047Y-38767524D01*
X10689047Y-38767524D02*
X10546190Y-38785381D01*
X10546190Y-38785381D02*
X10355714Y-38856809D01*
X10355714Y-38856809D02*
X10260476Y-38916333D01*
X10260476Y-38916333D02*
X10165238Y-39023476D01*
X10165238Y-39023476D02*
X10117619Y-39172286D01*
X10117619Y-39172286D02*
X10117619Y-39267524D01*
X10117619Y-39267524D02*
X10165238Y-39404429D01*
X10165238Y-39404429D02*
X10212857Y-39446095D01*
X10593809Y-39827048D02*
X10593809Y-40160381D01*
X11117619Y-40237762D02*
X11117619Y-39761571D01*
X11117619Y-39761571D02*
X10117619Y-39886571D01*
X10117619Y-39886571D02*
X10117619Y-40362762D01*
X11117619Y-41237762D02*
X10641428Y-40963952D01*
X11117619Y-40666333D02*
X10117619Y-40791333D01*
X10117619Y-40791333D02*
X10117619Y-41172286D01*
X10117619Y-41172286D02*
X10165238Y-41261571D01*
X10165238Y-41261571D02*
X10212857Y-41303238D01*
X10212857Y-41303238D02*
X10308095Y-41338952D01*
X10308095Y-41338952D02*
X10450952Y-41321095D01*
X10450952Y-41321095D02*
X10546190Y-41261571D01*
X10546190Y-41261571D02*
X10593809Y-41208000D01*
X10593809Y-41208000D02*
X10641428Y-41106810D01*
X10641428Y-41106810D02*
X10641428Y-40725857D01*
X11117619Y-41666333D02*
X10117619Y-41791333D01*
X10117619Y-41791333D02*
X11117619Y-42237762D01*
X11117619Y-42237762D02*
X10117619Y-42362762D01*
X10736666Y-42761571D02*
X10736666Y-43523476D01*
X10117619Y-44267524D02*
X10117619Y-44458000D01*
X10117619Y-44458000D02*
X10165238Y-44547285D01*
X10165238Y-44547285D02*
X10260476Y-44630619D01*
X10260476Y-44630619D02*
X10450952Y-44654428D01*
X10450952Y-44654428D02*
X10784285Y-44612762D01*
X10784285Y-44612762D02*
X10974761Y-44541333D01*
X10974761Y-44541333D02*
X11070000Y-44434190D01*
X11070000Y-44434190D02*
X11117619Y-44333000D01*
X11117619Y-44333000D02*
X11117619Y-44142524D01*
X11117619Y-44142524D02*
X11070000Y-44053238D01*
X11070000Y-44053238D02*
X10974761Y-43969905D01*
X10974761Y-43969905D02*
X10784285Y-43946095D01*
X10784285Y-43946095D02*
X10450952Y-43987762D01*
X10450952Y-43987762D02*
X10260476Y-44059190D01*
X10260476Y-44059190D02*
X10165238Y-44166333D01*
X10165238Y-44166333D02*
X10117619Y-44267524D01*
X11117619Y-44999666D02*
X10117619Y-45124666D01*
X10593809Y-45065143D02*
X10593809Y-45636571D01*
X11117619Y-45571095D02*
X10117619Y-45696095D01*
X11117619Y-46523476D02*
X11117619Y-46047285D01*
X11117619Y-46047285D02*
X10117619Y-46172285D01*
X10736666Y-46904428D02*
X10736666Y-47666333D01*
X11070000Y-48053238D02*
X11117619Y-48190142D01*
X11117619Y-48190142D02*
X11117619Y-48428238D01*
X11117619Y-48428238D02*
X11070000Y-48529428D01*
X11070000Y-48529428D02*
X11022380Y-48583000D01*
X11022380Y-48583000D02*
X10927142Y-48642523D01*
X10927142Y-48642523D02*
X10831904Y-48654428D01*
X10831904Y-48654428D02*
X10736666Y-48618714D01*
X10736666Y-48618714D02*
X10689047Y-48577047D01*
X10689047Y-48577047D02*
X10641428Y-48487762D01*
X10641428Y-48487762D02*
X10593809Y-48303238D01*
X10593809Y-48303238D02*
X10546190Y-48213952D01*
X10546190Y-48213952D02*
X10498571Y-48172285D01*
X10498571Y-48172285D02*
X10403333Y-48136571D01*
X10403333Y-48136571D02*
X10308095Y-48148476D01*
X10308095Y-48148476D02*
X10212857Y-48208000D01*
X10212857Y-48208000D02*
X10165238Y-48261571D01*
X10165238Y-48261571D02*
X10117619Y-48362762D01*
X10117619Y-48362762D02*
X10117619Y-48600857D01*
X10117619Y-48600857D02*
X10165238Y-48737762D01*
X10117619Y-49791333D02*
X11117619Y-49999667D01*
X11117619Y-49999667D02*
X10117619Y-50458000D01*
X10212857Y-50731810D02*
X10165238Y-50785381D01*
X10165238Y-50785381D02*
X10117619Y-50886571D01*
X10117619Y-50886571D02*
X10117619Y-51124667D01*
X10117619Y-51124667D02*
X10165238Y-51213952D01*
X10165238Y-51213952D02*
X10212857Y-51255619D01*
X10212857Y-51255619D02*
X10308095Y-51291333D01*
X10308095Y-51291333D02*
X10403333Y-51279429D01*
X10403333Y-51279429D02*
X10546190Y-51213952D01*
X10546190Y-51213952D02*
X11117619Y-50571095D01*
X11117619Y-50571095D02*
X11117619Y-51190143D01*
D14*
X1491353Y-109331785D02*
X1991353Y-108617499D01*
X2348496Y-109331785D02*
X2348496Y-107831785D01*
X2348496Y-107831785D02*
X1777067Y-107831785D01*
X1777067Y-107831785D02*
X1634210Y-107903214D01*
X1634210Y-107903214D02*
X1562781Y-107974642D01*
X1562781Y-107974642D02*
X1491353Y-108117499D01*
X1491353Y-108117499D02*
X1491353Y-108331785D01*
X1491353Y-108331785D02*
X1562781Y-108474642D01*
X1562781Y-108474642D02*
X1634210Y-108546071D01*
X1634210Y-108546071D02*
X1777067Y-108617499D01*
X1777067Y-108617499D02*
X2348496Y-108617499D01*
X848496Y-108546071D02*
X348496Y-108546071D01*
X134210Y-109331785D02*
X848496Y-109331785D01*
X848496Y-109331785D02*
X848496Y-107831785D01*
X848496Y-107831785D02*
X134210Y-107831785D01*
X-508646Y-109331785D02*
X-508646Y-107831785D01*
X-508646Y-107831785D02*
X-865789Y-107831785D01*
X-865789Y-107831785D02*
X-1080075Y-107903214D01*
X-1080075Y-107903214D02*
X-1222932Y-108046071D01*
X-1222932Y-108046071D02*
X-1294361Y-108188928D01*
X-1294361Y-108188928D02*
X-1365789Y-108474642D01*
X-1365789Y-108474642D02*
X-1365789Y-108688928D01*
X-1365789Y-108688928D02*
X-1294361Y-108974642D01*
X-1294361Y-108974642D02*
X-1222932Y-109117499D01*
X-1222932Y-109117499D02*
X-1080075Y-109260357D01*
X-1080075Y-109260357D02*
X-865789Y-109331785D01*
X-865789Y-109331785D02*
X-508646Y-109331785D01*
X-2008646Y-109188928D02*
X-2080075Y-109260357D01*
X-2080075Y-109260357D02*
X-2008646Y-109331785D01*
X-2008646Y-109331785D02*
X-1937218Y-109260357D01*
X-1937218Y-109260357D02*
X-2008646Y-109188928D01*
X-2008646Y-109188928D02*
X-2008646Y-109331785D01*
X-2008646Y-108760357D02*
X-1937218Y-107903214D01*
X-1937218Y-107903214D02*
X-2008646Y-107831785D01*
X-2008646Y-107831785D02*
X-2080075Y-107903214D01*
X-2080075Y-107903214D02*
X-2008646Y-108760357D01*
X-2008646Y-108760357D02*
X-2008646Y-107831785D01*
X2555639Y-107415357D02*
X-2215790Y-107415357D01*
D12*
X3563808Y-33676000D02*
X3420951Y-33723619D01*
X3420951Y-33723619D02*
X3182856Y-33723619D01*
X3182856Y-33723619D02*
X3087618Y-33676000D01*
X3087618Y-33676000D02*
X3039999Y-33628380D01*
X3039999Y-33628380D02*
X2992380Y-33533142D01*
X2992380Y-33533142D02*
X2992380Y-33437904D01*
X2992380Y-33437904D02*
X3039999Y-33342666D01*
X3039999Y-33342666D02*
X3087618Y-33295047D01*
X3087618Y-33295047D02*
X3182856Y-33247428D01*
X3182856Y-33247428D02*
X3373332Y-33199809D01*
X3373332Y-33199809D02*
X3468570Y-33152190D01*
X3468570Y-33152190D02*
X3516189Y-33104571D01*
X3516189Y-33104571D02*
X3563808Y-33009333D01*
X3563808Y-33009333D02*
X3563808Y-32914095D01*
X3563808Y-32914095D02*
X3516189Y-32818857D01*
X3516189Y-32818857D02*
X3468570Y-32771238D01*
X3468570Y-32771238D02*
X3373332Y-32723619D01*
X3373332Y-32723619D02*
X3135237Y-32723619D01*
X3135237Y-32723619D02*
X2992380Y-32771238D01*
X2563808Y-33723619D02*
X2563808Y-32723619D01*
X2563808Y-32723619D02*
X2325713Y-32723619D01*
X2325713Y-32723619D02*
X2182856Y-32771238D01*
X2182856Y-32771238D02*
X2087618Y-32866476D01*
X2087618Y-32866476D02*
X2039999Y-32961714D01*
X2039999Y-32961714D02*
X1992380Y-33152190D01*
X1992380Y-33152190D02*
X1992380Y-33295047D01*
X1992380Y-33295047D02*
X2039999Y-33485523D01*
X2039999Y-33485523D02*
X2087618Y-33580761D01*
X2087618Y-33580761D02*
X2182856Y-33676000D01*
X2182856Y-33676000D02*
X2325713Y-33723619D01*
X2325713Y-33723619D02*
X2563808Y-33723619D01*
X1563808Y-33723619D02*
X1563808Y-32723619D01*
X3722523Y-31263000D02*
X3579666Y-31310619D01*
X3579666Y-31310619D02*
X3341571Y-31310619D01*
X3341571Y-31310619D02*
X3246333Y-31263000D01*
X3246333Y-31263000D02*
X3198714Y-31215380D01*
X3198714Y-31215380D02*
X3151095Y-31120142D01*
X3151095Y-31120142D02*
X3151095Y-31024904D01*
X3151095Y-31024904D02*
X3198714Y-30929666D01*
X3198714Y-30929666D02*
X3246333Y-30882047D01*
X3246333Y-30882047D02*
X3341571Y-30834428D01*
X3341571Y-30834428D02*
X3532047Y-30786809D01*
X3532047Y-30786809D02*
X3627285Y-30739190D01*
X3627285Y-30739190D02*
X3674904Y-30691571D01*
X3674904Y-30691571D02*
X3722523Y-30596333D01*
X3722523Y-30596333D02*
X3722523Y-30501095D01*
X3722523Y-30501095D02*
X3674904Y-30405857D01*
X3674904Y-30405857D02*
X3627285Y-30358238D01*
X3627285Y-30358238D02*
X3532047Y-30310619D01*
X3532047Y-30310619D02*
X3293952Y-30310619D01*
X3293952Y-30310619D02*
X3151095Y-30358238D01*
X2722523Y-31310619D02*
X2722523Y-30310619D01*
X2722523Y-30310619D02*
X2484428Y-30310619D01*
X2484428Y-30310619D02*
X2341571Y-30358238D01*
X2341571Y-30358238D02*
X2246333Y-30453476D01*
X2246333Y-30453476D02*
X2198714Y-30548714D01*
X2198714Y-30548714D02*
X2151095Y-30739190D01*
X2151095Y-30739190D02*
X2151095Y-30882047D01*
X2151095Y-30882047D02*
X2198714Y-31072523D01*
X2198714Y-31072523D02*
X2246333Y-31167761D01*
X2246333Y-31167761D02*
X2341571Y-31263000D01*
X2341571Y-31263000D02*
X2484428Y-31310619D01*
X2484428Y-31310619D02*
X2722523Y-31310619D01*
X1532047Y-30310619D02*
X1341571Y-30310619D01*
X1341571Y-30310619D02*
X1246333Y-30358238D01*
X1246333Y-30358238D02*
X1151095Y-30453476D01*
X1151095Y-30453476D02*
X1103476Y-30643952D01*
X1103476Y-30643952D02*
X1103476Y-30977285D01*
X1103476Y-30977285D02*
X1151095Y-31167761D01*
X1151095Y-31167761D02*
X1246333Y-31263000D01*
X1246333Y-31263000D02*
X1341571Y-31310619D01*
X1341571Y-31310619D02*
X1532047Y-31310619D01*
X1532047Y-31310619D02*
X1627285Y-31263000D01*
X1627285Y-31263000D02*
X1722523Y-31167761D01*
X1722523Y-31167761D02*
X1770142Y-30977285D01*
X1770142Y-30977285D02*
X1770142Y-30643952D01*
X1770142Y-30643952D02*
X1722523Y-30453476D01*
X1722523Y-30453476D02*
X1627285Y-30358238D01*
X1627285Y-30358238D02*
X1532047Y-30310619D01*
X3222476Y-28643619D02*
X3698666Y-28643619D01*
X3698666Y-28643619D02*
X3698666Y-27643619D01*
X2317714Y-28643619D02*
X2651047Y-28167428D01*
X2889142Y-28643619D02*
X2889142Y-27643619D01*
X2889142Y-27643619D02*
X2508190Y-27643619D01*
X2508190Y-27643619D02*
X2412952Y-27691238D01*
X2412952Y-27691238D02*
X2365333Y-27738857D01*
X2365333Y-27738857D02*
X2317714Y-27834095D01*
X2317714Y-27834095D02*
X2317714Y-27976952D01*
X2317714Y-27976952D02*
X2365333Y-28072190D01*
X2365333Y-28072190D02*
X2412952Y-28119809D01*
X2412952Y-28119809D02*
X2508190Y-28167428D01*
X2508190Y-28167428D02*
X2889142Y-28167428D01*
X1317714Y-28548380D02*
X1365333Y-28596000D01*
X1365333Y-28596000D02*
X1508190Y-28643619D01*
X1508190Y-28643619D02*
X1603428Y-28643619D01*
X1603428Y-28643619D02*
X1746285Y-28596000D01*
X1746285Y-28596000D02*
X1841523Y-28500761D01*
X1841523Y-28500761D02*
X1889142Y-28405523D01*
X1889142Y-28405523D02*
X1936761Y-28215047D01*
X1936761Y-28215047D02*
X1936761Y-28072190D01*
X1936761Y-28072190D02*
X1889142Y-27881714D01*
X1889142Y-27881714D02*
X1841523Y-27786476D01*
X1841523Y-27786476D02*
X1746285Y-27691238D01*
X1746285Y-27691238D02*
X1603428Y-27643619D01*
X1603428Y-27643619D02*
X1508190Y-27643619D01*
X1508190Y-27643619D02*
X1365333Y-27691238D01*
X1365333Y-27691238D02*
X1317714Y-27738857D01*
X889142Y-28643619D02*
X889142Y-27643619D01*
X317714Y-28643619D02*
X746285Y-28072190D01*
X317714Y-27643619D02*
X889142Y-28215047D01*
X2472661Y-50431109D02*
X2472661Y-50907299D01*
X2758376Y-50335871D02*
X1758376Y-50669204D01*
X1758376Y-50669204D02*
X2758376Y-51002537D01*
X1758376Y-51335871D02*
X2567899Y-51335871D01*
X2567899Y-51335871D02*
X2663137Y-51383490D01*
X2663137Y-51383490D02*
X2710757Y-51431109D01*
X2710757Y-51431109D02*
X2758376Y-51526347D01*
X2758376Y-51526347D02*
X2758376Y-51716823D01*
X2758376Y-51716823D02*
X2710757Y-51812061D01*
X2710757Y-51812061D02*
X2663137Y-51859680D01*
X2663137Y-51859680D02*
X2567899Y-51907299D01*
X2567899Y-51907299D02*
X1758376Y-51907299D01*
X1758376Y-52288252D02*
X2758376Y-52954918D01*
X1758376Y-52954918D02*
X2758376Y-52288252D01*
X2234566Y-54431109D02*
X2234566Y-54097776D01*
X2758376Y-54097776D02*
X1758376Y-54097776D01*
X1758376Y-54097776D02*
X1758376Y-54573966D01*
X2234566Y-55288252D02*
X2234566Y-54954919D01*
X2758376Y-54954919D02*
X1758376Y-54954919D01*
X1758376Y-54954919D02*
X1758376Y-55431109D01*
X2663137Y-56383490D02*
X2710757Y-56335871D01*
X2710757Y-56335871D02*
X2758376Y-56193014D01*
X2758376Y-56193014D02*
X2758376Y-56097776D01*
X2758376Y-56097776D02*
X2710757Y-55954919D01*
X2710757Y-55954919D02*
X2615518Y-55859681D01*
X2615518Y-55859681D02*
X2520280Y-55812062D01*
X2520280Y-55812062D02*
X2329804Y-55764443D01*
X2329804Y-55764443D02*
X2186947Y-55764443D01*
X2186947Y-55764443D02*
X1996471Y-55812062D01*
X1996471Y-55812062D02*
X1901233Y-55859681D01*
X1901233Y-55859681D02*
X1805995Y-55954919D01*
X1805995Y-55954919D02*
X1758376Y-56097776D01*
X1758376Y-56097776D02*
X1758376Y-56193014D01*
X1758376Y-56193014D02*
X1805995Y-56335871D01*
X1805995Y-56335871D02*
X1853614Y-56383490D01*
D14*
X2277714Y-2198428D02*
X2277714Y-698428D01*
X2277714Y-698428D02*
X1706285Y-698428D01*
X1706285Y-698428D02*
X1563428Y-769857D01*
X1563428Y-769857D02*
X1491999Y-841285D01*
X1491999Y-841285D02*
X1420571Y-984142D01*
X1420571Y-984142D02*
X1420571Y-1198428D01*
X1420571Y-1198428D02*
X1491999Y-1341285D01*
X1491999Y-1341285D02*
X1563428Y-1412714D01*
X1563428Y-1412714D02*
X1706285Y-1484142D01*
X1706285Y-1484142D02*
X2277714Y-1484142D01*
X777714Y-2198428D02*
X777714Y-698428D01*
X777714Y-698428D02*
X277714Y-1769857D01*
X277714Y-1769857D02*
X-222285Y-698428D01*
X-222285Y-698428D02*
X-222285Y-2198428D01*
X-1222286Y-698428D02*
X-1508000Y-698428D01*
X-1508000Y-698428D02*
X-1650857Y-769857D01*
X-1650857Y-769857D02*
X-1793714Y-912714D01*
X-1793714Y-912714D02*
X-1865143Y-1198428D01*
X-1865143Y-1198428D02*
X-1865143Y-1698428D01*
X-1865143Y-1698428D02*
X-1793714Y-1984142D01*
X-1793714Y-1984142D02*
X-1650857Y-2127000D01*
X-1650857Y-2127000D02*
X-1508000Y-2198428D01*
X-1508000Y-2198428D02*
X-1222286Y-2198428D01*
X-1222286Y-2198428D02*
X-1079429Y-2127000D01*
X-1079429Y-2127000D02*
X-936571Y-1984142D01*
X-936571Y-1984142D02*
X-865143Y-1698428D01*
X-865143Y-1698428D02*
X-865143Y-1198428D01*
X-865143Y-1198428D02*
X-936571Y-912714D01*
X-936571Y-912714D02*
X-1079429Y-769857D01*
X-1079429Y-769857D02*
X-1222286Y-698428D01*
X-2508000Y-2198428D02*
X-2508000Y-698428D01*
X-2508000Y-698428D02*
X-2865143Y-698428D01*
X-2865143Y-698428D02*
X-3079429Y-769857D01*
X-3079429Y-769857D02*
X-3222286Y-912714D01*
X-3222286Y-912714D02*
X-3293715Y-1055571D01*
X-3293715Y-1055571D02*
X-3365143Y-1341285D01*
X-3365143Y-1341285D02*
X-3365143Y-1555571D01*
X-3365143Y-1555571D02*
X-3293715Y-1841285D01*
X-3293715Y-1841285D02*
X-3222286Y-1984142D01*
X-3222286Y-1984142D02*
X-3079429Y-2127000D01*
X-3079429Y-2127000D02*
X-2865143Y-2198428D01*
X-2865143Y-2198428D02*
X-2508000Y-2198428D01*
D12*
X-1182905Y-26103619D02*
X-1182905Y-25103619D01*
X-1182905Y-25103619D02*
X-1516238Y-25817904D01*
X-1516238Y-25817904D02*
X-1849571Y-25103619D01*
X-1849571Y-25103619D02*
X-1849571Y-26103619D01*
X-2897190Y-26008380D02*
X-2849571Y-26056000D01*
X-2849571Y-26056000D02*
X-2706714Y-26103619D01*
X-2706714Y-26103619D02*
X-2611476Y-26103619D01*
X-2611476Y-26103619D02*
X-2468619Y-26056000D01*
X-2468619Y-26056000D02*
X-2373381Y-25960761D01*
X-2373381Y-25960761D02*
X-2325762Y-25865523D01*
X-2325762Y-25865523D02*
X-2278143Y-25675047D01*
X-2278143Y-25675047D02*
X-2278143Y-25532190D01*
X-2278143Y-25532190D02*
X-2325762Y-25341714D01*
X-2325762Y-25341714D02*
X-2373381Y-25246476D01*
X-2373381Y-25246476D02*
X-2468619Y-25151238D01*
X-2468619Y-25151238D02*
X-2611476Y-25103619D01*
X-2611476Y-25103619D02*
X-2706714Y-25103619D01*
X-2706714Y-25103619D02*
X-2849571Y-25151238D01*
X-2849571Y-25151238D02*
X-2897190Y-25198857D01*
X-3801952Y-26103619D02*
X-3325762Y-26103619D01*
X-3325762Y-26103619D02*
X-3325762Y-25103619D01*
X-4135286Y-26103619D02*
X-4135286Y-25103619D01*
X-4706714Y-26103619D02*
X-4278143Y-25532190D01*
X-4706714Y-25103619D02*
X-4135286Y-25675047D01*
X761856Y-22484238D02*
X904714Y-22436619D01*
X904714Y-22436619D02*
X1118999Y-22436619D01*
X1118999Y-22436619D02*
X1333285Y-22484238D01*
X1333285Y-22484238D02*
X1476142Y-22579476D01*
X1476142Y-22579476D02*
X1547571Y-22674714D01*
X1547571Y-22674714D02*
X1618999Y-22865190D01*
X1618999Y-22865190D02*
X1618999Y-23008047D01*
X1618999Y-23008047D02*
X1547571Y-23198523D01*
X1547571Y-23198523D02*
X1476142Y-23293761D01*
X1476142Y-23293761D02*
X1333285Y-23389000D01*
X1333285Y-23389000D02*
X1118999Y-23436619D01*
X1118999Y-23436619D02*
X976142Y-23436619D01*
X976142Y-23436619D02*
X761856Y-23389000D01*
X761856Y-23389000D02*
X690428Y-23341380D01*
X690428Y-23341380D02*
X690428Y-23008047D01*
X690428Y-23008047D02*
X976142Y-23008047D01*
X47571Y-23436619D02*
X47571Y-22436619D01*
X47571Y-22436619D02*
X-809571Y-23436619D01*
X-809571Y-23436619D02*
X-809571Y-22436619D01*
X-1523857Y-23436619D02*
X-1523857Y-22436619D01*
X-1523857Y-22436619D02*
X-1881000Y-22436619D01*
X-1881000Y-22436619D02*
X-2095286Y-22484238D01*
X-2095286Y-22484238D02*
X-2238143Y-22579476D01*
X-2238143Y-22579476D02*
X-2309572Y-22674714D01*
X-2309572Y-22674714D02*
X-2381000Y-22865190D01*
X-2381000Y-22865190D02*
X-2381000Y-23008047D01*
X-2381000Y-23008047D02*
X-2309572Y-23198523D01*
X-2309572Y-23198523D02*
X-2238143Y-23293761D01*
X-2238143Y-23293761D02*
X-2095286Y-23389000D01*
X-2095286Y-23389000D02*
X-1881000Y-23436619D01*
X-1881000Y-23436619D02*
X-1523857Y-23436619D01*
D14*
X3257905Y-48826119D02*
X3257905Y-49397547D01*
X3257905Y-49397547D02*
X2210285Y-49397547D01*
X2210285Y-49397547D02*
X2210285Y-49588023D01*
X2210285Y-49588023D02*
X1734095Y-49111833D01*
X1734095Y-49111833D02*
X2210285Y-48635642D01*
X2210285Y-48635642D02*
X2210285Y-48826119D01*
X2210285Y-48826119D02*
X3257905Y-48826119D01*
D12*
X-968524Y-33549000D02*
X-1111381Y-33596619D01*
X-1111381Y-33596619D02*
X-1349476Y-33596619D01*
X-1349476Y-33596619D02*
X-1444714Y-33549000D01*
X-1444714Y-33549000D02*
X-1492333Y-33501380D01*
X-1492333Y-33501380D02*
X-1539952Y-33406142D01*
X-1539952Y-33406142D02*
X-1539952Y-33310904D01*
X-1539952Y-33310904D02*
X-1492333Y-33215666D01*
X-1492333Y-33215666D02*
X-1444714Y-33168047D01*
X-1444714Y-33168047D02*
X-1349476Y-33120428D01*
X-1349476Y-33120428D02*
X-1159000Y-33072809D01*
X-1159000Y-33072809D02*
X-1063762Y-33025190D01*
X-1063762Y-33025190D02*
X-1016143Y-32977571D01*
X-1016143Y-32977571D02*
X-968524Y-32882333D01*
X-968524Y-32882333D02*
X-968524Y-32787095D01*
X-968524Y-32787095D02*
X-1016143Y-32691857D01*
X-1016143Y-32691857D02*
X-1063762Y-32644238D01*
X-1063762Y-32644238D02*
X-1159000Y-32596619D01*
X-1159000Y-32596619D02*
X-1397095Y-32596619D01*
X-1397095Y-32596619D02*
X-1539952Y-32644238D01*
X-2539952Y-33501380D02*
X-2492333Y-33549000D01*
X-2492333Y-33549000D02*
X-2349476Y-33596619D01*
X-2349476Y-33596619D02*
X-2254238Y-33596619D01*
X-2254238Y-33596619D02*
X-2111381Y-33549000D01*
X-2111381Y-33549000D02*
X-2016143Y-33453761D01*
X-2016143Y-33453761D02*
X-1968524Y-33358523D01*
X-1968524Y-33358523D02*
X-1920905Y-33168047D01*
X-1920905Y-33168047D02*
X-1920905Y-33025190D01*
X-1920905Y-33025190D02*
X-1968524Y-32834714D01*
X-1968524Y-32834714D02*
X-2016143Y-32739476D01*
X-2016143Y-32739476D02*
X-2111381Y-32644238D01*
X-2111381Y-32644238D02*
X-2254238Y-32596619D01*
X-2254238Y-32596619D02*
X-2349476Y-32596619D01*
X-2349476Y-32596619D02*
X-2492333Y-32644238D01*
X-2492333Y-32644238D02*
X-2539952Y-32691857D01*
X-3444714Y-33596619D02*
X-2968524Y-33596619D01*
X-2968524Y-33596619D02*
X-2968524Y-32596619D01*
X-2998718Y-95769666D02*
X-3760623Y-95769666D01*
X-3379670Y-96150619D02*
X-3379670Y-95388714D01*
X-4760622Y-96150619D02*
X-4189194Y-96150619D01*
X-4474908Y-96150619D02*
X-4474908Y-95150619D01*
X-4474908Y-95150619D02*
X-4379670Y-95293476D01*
X-4379670Y-95293476D02*
X-4284432Y-95388714D01*
X-4284432Y-95388714D02*
X-4189194Y-95436333D01*
X-5141575Y-95245857D02*
X-5189194Y-95198238D01*
X-5189194Y-95198238D02*
X-5284432Y-95150619D01*
X-5284432Y-95150619D02*
X-5522527Y-95150619D01*
X-5522527Y-95150619D02*
X-5617765Y-95198238D01*
X-5617765Y-95198238D02*
X-5665384Y-95245857D01*
X-5665384Y-95245857D02*
X-5713003Y-95341095D01*
X-5713003Y-95341095D02*
X-5713003Y-95436333D01*
X-5713003Y-95436333D02*
X-5665384Y-95579190D01*
X-5665384Y-95579190D02*
X-5093956Y-96150619D01*
X-5093956Y-96150619D02*
X-5713003Y-96150619D01*
D15*
%TO.C,RV3*%
X-13567118Y-22149374D02*
X-13285958Y-22149374D01*
X-13567118Y-23169374D02*
X-13285958Y-23169374D01*
%TO.C,RV4*%
X-13567118Y-49732122D02*
X-13285958Y-49732122D01*
X-13567118Y-50752122D02*
X-13285958Y-50752122D01*
D16*
%TO.C,D33*%
X-16884000Y-74657186D02*
X-15824000Y-74657186D01*
X-16884000Y-75317186D02*
X-15824000Y-75317186D01*
D10*
X-15964000Y-74467186D02*
G75*
G02*
X-16004000Y-74467186I-20000J0D01*
G01*
X-16004000Y-74467186D02*
G75*
G02*
X-15964000Y-74467186I20000J0D01*
G01*
D16*
%TO.C,D27*%
X-16884000Y-5712314D02*
X-15824000Y-5712314D01*
X-16884000Y-6372314D02*
X-15824000Y-6372314D01*
D10*
X-15964000Y-5522314D02*
G75*
G02*
X-16004000Y-5522314I-20000J0D01*
G01*
X-16004000Y-5522314D02*
G75*
G02*
X-15964000Y-5522314I20000J0D01*
G01*
D16*
%TO.C,D34*%
X-16884000Y-102235135D02*
X-15824000Y-102235135D01*
X-16884000Y-102895135D02*
X-15824000Y-102895135D01*
D10*
X-15964000Y-102045135D02*
G75*
G02*
X-16004000Y-102045135I-20000J0D01*
G01*
X-16004000Y-102045135D02*
G75*
G02*
X-15964000Y-102045135I20000J0D01*
G01*
D15*
%TO.C,R37*%
X-6026500Y-68280258D02*
X-6026500Y-67805742D01*
X-4981500Y-68280258D02*
X-4981500Y-67805742D01*
%TO.C,RV8*%
X-13567118Y-104897619D02*
X-13285958Y-104897619D01*
X-13567118Y-105917619D02*
X-13285958Y-105917619D01*
D17*
%TO.C,REF\u002A\u002A*%
X4709938Y-40894439D02*
X4818296Y-40896441D01*
X4915389Y-40899967D01*
X4994790Y-40905013D01*
X5050072Y-40911573D01*
X5074810Y-40919644D01*
X5077600Y-40924542D01*
X5089569Y-40961070D01*
X5105405Y-41024435D01*
X5123374Y-41107314D01*
X5141741Y-41202382D01*
X5147591Y-41234458D01*
X5174798Y-41382607D01*
X5196663Y-41499039D01*
X5214093Y-41587791D01*
X5227996Y-41652897D01*
X5239277Y-41698394D01*
X5248843Y-41728318D01*
X5257601Y-41746706D01*
X5266457Y-41757593D01*
X5267943Y-41758858D01*
X5298931Y-41776662D01*
X5355634Y-41803006D01*
X5431399Y-41835339D01*
X5519574Y-41871107D01*
X5613507Y-41907756D01*
X5706547Y-41942734D01*
X5792041Y-41973487D01*
X5863336Y-41997462D01*
X5913782Y-42012105D01*
X5936726Y-42014864D01*
X5939703Y-42013019D01*
X5968493Y-41993925D01*
X6021595Y-41958016D01*
X6094117Y-41908622D01*
X6181167Y-41849073D01*
X6277854Y-41782697D01*
X6304456Y-41764480D01*
X6399875Y-41700423D01*
X6485212Y-41645063D01*
X6555405Y-41601561D01*
X6605394Y-41573076D01*
X6630116Y-41562768D01*
X6636616Y-41564989D01*
X6668644Y-41588142D01*
X6720945Y-41633823D01*
X6789999Y-41698759D01*
X6872286Y-41779681D01*
X6964286Y-41873315D01*
X7015781Y-41926835D01*
X7095983Y-42011458D01*
X7164678Y-42085525D01*
X7218252Y-42145059D01*
X7253085Y-42186083D01*
X7265563Y-42204619D01*
X7260938Y-42217354D01*
X7239057Y-42256564D01*
X7203273Y-42313505D01*
X7158117Y-42380750D01*
X7125165Y-42428562D01*
X7059727Y-42524015D01*
X6990228Y-42625875D01*
X6927075Y-42718912D01*
X6803800Y-42901168D01*
X6886520Y-43054159D01*
X6905613Y-43090183D01*
X6938272Y-43155697D01*
X6960819Y-43206360D01*
X6969226Y-43233436D01*
X6958430Y-43242297D01*
X6917323Y-43264301D01*
X6849549Y-43296801D01*
X6759409Y-43337990D01*
X6651205Y-43386058D01*
X6529237Y-43439198D01*
X6397808Y-43495601D01*
X6261218Y-43553458D01*
X6123767Y-43610962D01*
X5989758Y-43666303D01*
X5863491Y-43717674D01*
X5749268Y-43763265D01*
X5651390Y-43801268D01*
X5574157Y-43829876D01*
X5521871Y-43847279D01*
X5498833Y-43851669D01*
X5498160Y-43851372D01*
X5476863Y-43830923D01*
X5443508Y-43788150D01*
X5405011Y-43731883D01*
X5393256Y-43714123D01*
X5281735Y-43578986D01*
X5148906Y-43467144D01*
X5000298Y-43381245D01*
X4841440Y-43323938D01*
X4677860Y-43297869D01*
X4515088Y-43305687D01*
X4370315Y-43337356D01*
X4224124Y-43394218D01*
X4093703Y-43477112D01*
X3969813Y-43590869D01*
X3930235Y-43635567D01*
X3832723Y-43780065D01*
X3767050Y-43936162D01*
X3732630Y-44099333D01*
X3728874Y-44265057D01*
X3755194Y-44428808D01*
X3811003Y-44586064D01*
X3895714Y-44732302D01*
X4008737Y-44862996D01*
X4149487Y-44973626D01*
X4184342Y-44994895D01*
X4343655Y-45067190D01*
X4509552Y-45105585D01*
X4677737Y-45111086D01*
X4843913Y-45084699D01*
X5003784Y-45027430D01*
X5153053Y-44940283D01*
X5287423Y-44824264D01*
X5402599Y-44680378D01*
X5405702Y-44675706D01*
X5444933Y-44620036D01*
X5478286Y-44578311D01*
X5498833Y-44559254D01*
X5514941Y-44561658D01*
X5561844Y-44576609D01*
X5634539Y-44603119D01*
X5728725Y-44639380D01*
X5840098Y-44683584D01*
X5964358Y-44733924D01*
X6097202Y-44788593D01*
X6234327Y-44845782D01*
X6371432Y-44903684D01*
X6504215Y-44960490D01*
X6628374Y-45014394D01*
X6739606Y-45063588D01*
X6833609Y-45106263D01*
X6906082Y-45140613D01*
X6952722Y-45164829D01*
X6969226Y-45177103D01*
X6966991Y-45187311D01*
X6950926Y-45227414D01*
X6922759Y-45286682D01*
X6886520Y-45356381D01*
X6803800Y-45509371D01*
X6927075Y-45691627D01*
X6963579Y-45745473D01*
X7031784Y-45845626D01*
X7100098Y-45945475D01*
X7158117Y-46029789D01*
X7189736Y-46076321D01*
X7229020Y-46136800D01*
X7255912Y-46181643D01*
X7265883Y-46203545D01*
X7261650Y-46212955D01*
X7235721Y-46246969D01*
X7190070Y-46299405D01*
X7129186Y-46365699D01*
X7057561Y-46441287D01*
X6979683Y-46521604D01*
X6900045Y-46602087D01*
X6823135Y-46678171D01*
X6753445Y-46745293D01*
X6695464Y-46798888D01*
X6653684Y-46834392D01*
X6632593Y-46847241D01*
X6628581Y-46846500D01*
X6595920Y-46831207D01*
X6539412Y-46798538D01*
X6464163Y-46751650D01*
X6375275Y-46693699D01*
X6277854Y-46627843D01*
X6250982Y-46609373D01*
X6156423Y-46544518D01*
X6072827Y-46487391D01*
X6005084Y-46441322D01*
X5958086Y-46409641D01*
X5936726Y-46395676D01*
X5935811Y-46395332D01*
X5909678Y-46399454D01*
X5856740Y-46415193D01*
X5783647Y-46439996D01*
X5697052Y-46471311D01*
X5603608Y-46506583D01*
X5509965Y-46543260D01*
X5422777Y-46578788D01*
X5348695Y-46610614D01*
X5294371Y-46636184D01*
X5266457Y-46652947D01*
X5264724Y-46654626D01*
X5255956Y-46666628D01*
X5247115Y-46686897D01*
X5237292Y-46719471D01*
X5225583Y-46768384D01*
X5211080Y-46837673D01*
X5192876Y-46931375D01*
X5170066Y-47053524D01*
X5141741Y-47208158D01*
X5135780Y-47240230D01*
X5117352Y-47332107D01*
X5099892Y-47409393D01*
X5085133Y-47464764D01*
X5074810Y-47490895D01*
X5066197Y-47495267D01*
X5024826Y-47502555D01*
X4956241Y-47508331D01*
X4866868Y-47512590D01*
X4763135Y-47515327D01*
X4651465Y-47516538D01*
X4538287Y-47516218D01*
X4430026Y-47514364D01*
X4333108Y-47510970D01*
X4253959Y-47506033D01*
X4199006Y-47499548D01*
X4174674Y-47491511D01*
X4171079Y-47483304D01*
X4159748Y-47442481D01*
X4143722Y-47373476D01*
X4124195Y-47281797D01*
X4102362Y-47172950D01*
X4079418Y-47052442D01*
X4067159Y-46986643D01*
X4045901Y-46873865D01*
X4027287Y-46776793D01*
X4012328Y-46700618D01*
X4002036Y-46650531D01*
X3997422Y-46631724D01*
X3996471Y-46631017D01*
X3972310Y-46619039D01*
X3921694Y-46596206D01*
X3851338Y-46565370D01*
X3767958Y-46529387D01*
X3678270Y-46491109D01*
X3588989Y-46453391D01*
X3506832Y-46419087D01*
X3438513Y-46391051D01*
X3390748Y-46372136D01*
X3370254Y-46365197D01*
X3363043Y-46368258D01*
X3328728Y-46388628D01*
X3270970Y-46425578D01*
X3194299Y-46476140D01*
X3103248Y-46537343D01*
X3002350Y-46606219D01*
X2947093Y-46644006D01*
X2850215Y-46709218D01*
X2765193Y-46765129D01*
X2696662Y-46808759D01*
X2649260Y-46837123D01*
X2627623Y-46847241D01*
X2615887Y-46840210D01*
X2580818Y-46810803D01*
X2527745Y-46762559D01*
X2461164Y-46699907D01*
X2385574Y-46627275D01*
X2305472Y-46549092D01*
X2225354Y-46469786D01*
X2149718Y-46393787D01*
X2083062Y-46325522D01*
X2029882Y-46269420D01*
X1994676Y-46229910D01*
X1981942Y-46211421D01*
X1986893Y-46201157D01*
X2009857Y-46163470D01*
X2048938Y-46102652D01*
X2101272Y-46023087D01*
X2163996Y-45929157D01*
X2234246Y-45825246D01*
X2486551Y-45454206D01*
X2359053Y-45144920D01*
X2231555Y-44835635D01*
X1786931Y-44751814D01*
X1342307Y-44667994D01*
X1342307Y-43742546D01*
X1786931Y-43658725D01*
X2231555Y-43574905D01*
X2486551Y-42956333D01*
X2234246Y-42585293D01*
X2184506Y-42511856D01*
X2119218Y-42414501D01*
X2063454Y-42330213D01*
X2020078Y-42263369D01*
X1991953Y-42218346D01*
X1981942Y-42199522D01*
X1989061Y-42187961D01*
X2018894Y-42153404D01*
X2067852Y-42101106D01*
X2131440Y-42035500D01*
X2205163Y-41961017D01*
X2284525Y-41882087D01*
X2365031Y-41803144D01*
X2442185Y-41728616D01*
X2511493Y-41662937D01*
X2568457Y-41610537D01*
X2608584Y-41575847D01*
X2627377Y-41563299D01*
X2635451Y-41566218D01*
X2671469Y-41586429D01*
X2730744Y-41623337D01*
X2808630Y-41673950D01*
X2900481Y-41735275D01*
X3001650Y-41804321D01*
X3056826Y-41842213D01*
X3152884Y-41907394D01*
X3236717Y-41963277D01*
X3303777Y-42006883D01*
X3349519Y-42035231D01*
X3369396Y-42045343D01*
X3370497Y-42045177D01*
X3395694Y-42036257D01*
X3447147Y-42015794D01*
X3518135Y-41986640D01*
X3601935Y-41951647D01*
X3691828Y-41913668D01*
X3781091Y-41875555D01*
X3863003Y-41840161D01*
X3930843Y-41810338D01*
X3977890Y-41788939D01*
X3997422Y-41778816D01*
X3999155Y-41772826D01*
X4006969Y-41736434D01*
X4019915Y-41671573D01*
X4036979Y-41583435D01*
X4057151Y-41477213D01*
X4079418Y-41358098D01*
X4091223Y-41295317D01*
X4113748Y-41180088D01*
X4134550Y-41079338D01*
X4152435Y-40998574D01*
X4166208Y-40943302D01*
X4174674Y-40919029D01*
X4183066Y-40914669D01*
X4224072Y-40907437D01*
X4292368Y-40901754D01*
X4381529Y-40897618D01*
X4485128Y-40895023D01*
X4596740Y-40893964D01*
X4709938Y-40894439D01*
G36*
X4709938Y-40894439D02*
G01*
X4818296Y-40896441D01*
X4915389Y-40899967D01*
X4994790Y-40905013D01*
X5050072Y-40911573D01*
X5074810Y-40919644D01*
X5077600Y-40924542D01*
X5089569Y-40961070D01*
X5105405Y-41024435D01*
X5123374Y-41107314D01*
X5141741Y-41202382D01*
X5147591Y-41234458D01*
X5174798Y-41382607D01*
X5196663Y-41499039D01*
X5214093Y-41587791D01*
X5227996Y-41652897D01*
X5239277Y-41698394D01*
X5248843Y-41728318D01*
X5257601Y-41746706D01*
X5266457Y-41757593D01*
X5267943Y-41758858D01*
X5298931Y-41776662D01*
X5355634Y-41803006D01*
X5431399Y-41835339D01*
X5519574Y-41871107D01*
X5613507Y-41907756D01*
X5706547Y-41942734D01*
X5792041Y-41973487D01*
X5863336Y-41997462D01*
X5913782Y-42012105D01*
X5936726Y-42014864D01*
X5939703Y-42013019D01*
X5968493Y-41993925D01*
X6021595Y-41958016D01*
X6094117Y-41908622D01*
X6181167Y-41849073D01*
X6277854Y-41782697D01*
X6304456Y-41764480D01*
X6399875Y-41700423D01*
X6485212Y-41645063D01*
X6555405Y-41601561D01*
X6605394Y-41573076D01*
X6630116Y-41562768D01*
X6636616Y-41564989D01*
X6668644Y-41588142D01*
X6720945Y-41633823D01*
X6789999Y-41698759D01*
X6872286Y-41779681D01*
X6964286Y-41873315D01*
X7015781Y-41926835D01*
X7095983Y-42011458D01*
X7164678Y-42085525D01*
X7218252Y-42145059D01*
X7253085Y-42186083D01*
X7265563Y-42204619D01*
X7260938Y-42217354D01*
X7239057Y-42256564D01*
X7203273Y-42313505D01*
X7158117Y-42380750D01*
X7125165Y-42428562D01*
X7059727Y-42524015D01*
X6990228Y-42625875D01*
X6927075Y-42718912D01*
X6803800Y-42901168D01*
X6886520Y-43054159D01*
X6905613Y-43090183D01*
X6938272Y-43155697D01*
X6960819Y-43206360D01*
X6969226Y-43233436D01*
X6958430Y-43242297D01*
X6917323Y-43264301D01*
X6849549Y-43296801D01*
X6759409Y-43337990D01*
X6651205Y-43386058D01*
X6529237Y-43439198D01*
X6397808Y-43495601D01*
X6261218Y-43553458D01*
X6123767Y-43610962D01*
X5989758Y-43666303D01*
X5863491Y-43717674D01*
X5749268Y-43763265D01*
X5651390Y-43801268D01*
X5574157Y-43829876D01*
X5521871Y-43847279D01*
X5498833Y-43851669D01*
X5498160Y-43851372D01*
X5476863Y-43830923D01*
X5443508Y-43788150D01*
X5405011Y-43731883D01*
X5393256Y-43714123D01*
X5281735Y-43578986D01*
X5148906Y-43467144D01*
X5000298Y-43381245D01*
X4841440Y-43323938D01*
X4677860Y-43297869D01*
X4515088Y-43305687D01*
X4370315Y-43337356D01*
X4224124Y-43394218D01*
X4093703Y-43477112D01*
X3969813Y-43590869D01*
X3930235Y-43635567D01*
X3832723Y-43780065D01*
X3767050Y-43936162D01*
X3732630Y-44099333D01*
X3728874Y-44265057D01*
X3755194Y-44428808D01*
X3811003Y-44586064D01*
X3895714Y-44732302D01*
X4008737Y-44862996D01*
X4149487Y-44973626D01*
X4184342Y-44994895D01*
X4343655Y-45067190D01*
X4509552Y-45105585D01*
X4677737Y-45111086D01*
X4843913Y-45084699D01*
X5003784Y-45027430D01*
X5153053Y-44940283D01*
X5287423Y-44824264D01*
X5402599Y-44680378D01*
X5405702Y-44675706D01*
X5444933Y-44620036D01*
X5478286Y-44578311D01*
X5498833Y-44559254D01*
X5514941Y-44561658D01*
X5561844Y-44576609D01*
X5634539Y-44603119D01*
X5728725Y-44639380D01*
X5840098Y-44683584D01*
X5964358Y-44733924D01*
X6097202Y-44788593D01*
X6234327Y-44845782D01*
X6371432Y-44903684D01*
X6504215Y-44960490D01*
X6628374Y-45014394D01*
X6739606Y-45063588D01*
X6833609Y-45106263D01*
X6906082Y-45140613D01*
X6952722Y-45164829D01*
X6969226Y-45177103D01*
X6966991Y-45187311D01*
X6950926Y-45227414D01*
X6922759Y-45286682D01*
X6886520Y-45356381D01*
X6803800Y-45509371D01*
X6927075Y-45691627D01*
X6963579Y-45745473D01*
X7031784Y-45845626D01*
X7100098Y-45945475D01*
X7158117Y-46029789D01*
X7189736Y-46076321D01*
X7229020Y-46136800D01*
X7255912Y-46181643D01*
X7265883Y-46203545D01*
X7261650Y-46212955D01*
X7235721Y-46246969D01*
X7190070Y-46299405D01*
X7129186Y-46365699D01*
X7057561Y-46441287D01*
X6979683Y-46521604D01*
X6900045Y-46602087D01*
X6823135Y-46678171D01*
X6753445Y-46745293D01*
X6695464Y-46798888D01*
X6653684Y-46834392D01*
X6632593Y-46847241D01*
X6628581Y-46846500D01*
X6595920Y-46831207D01*
X6539412Y-46798538D01*
X6464163Y-46751650D01*
X6375275Y-46693699D01*
X6277854Y-46627843D01*
X6250982Y-46609373D01*
X6156423Y-46544518D01*
X6072827Y-46487391D01*
X6005084Y-46441322D01*
X5958086Y-46409641D01*
X5936726Y-46395676D01*
X5935811Y-46395332D01*
X5909678Y-46399454D01*
X5856740Y-46415193D01*
X5783647Y-46439996D01*
X5697052Y-46471311D01*
X5603608Y-46506583D01*
X5509965Y-46543260D01*
X5422777Y-46578788D01*
X5348695Y-46610614D01*
X5294371Y-46636184D01*
X5266457Y-46652947D01*
X5264724Y-46654626D01*
X5255956Y-46666628D01*
X5247115Y-46686897D01*
X5237292Y-46719471D01*
X5225583Y-46768384D01*
X5211080Y-46837673D01*
X5192876Y-46931375D01*
X5170066Y-47053524D01*
X5141741Y-47208158D01*
X5135780Y-47240230D01*
X5117352Y-47332107D01*
X5099892Y-47409393D01*
X5085133Y-47464764D01*
X5074810Y-47490895D01*
X5066197Y-47495267D01*
X5024826Y-47502555D01*
X4956241Y-47508331D01*
X4866868Y-47512590D01*
X4763135Y-47515327D01*
X4651465Y-47516538D01*
X4538287Y-47516218D01*
X4430026Y-47514364D01*
X4333108Y-47510970D01*
X4253959Y-47506033D01*
X4199006Y-47499548D01*
X4174674Y-47491511D01*
X4171079Y-47483304D01*
X4159748Y-47442481D01*
X4143722Y-47373476D01*
X4124195Y-47281797D01*
X4102362Y-47172950D01*
X4079418Y-47052442D01*
X4067159Y-46986643D01*
X4045901Y-46873865D01*
X4027287Y-46776793D01*
X4012328Y-46700618D01*
X4002036Y-46650531D01*
X3997422Y-46631724D01*
X3996471Y-46631017D01*
X3972310Y-46619039D01*
X3921694Y-46596206D01*
X3851338Y-46565370D01*
X3767958Y-46529387D01*
X3678270Y-46491109D01*
X3588989Y-46453391D01*
X3506832Y-46419087D01*
X3438513Y-46391051D01*
X3390748Y-46372136D01*
X3370254Y-46365197D01*
X3363043Y-46368258D01*
X3328728Y-46388628D01*
X3270970Y-46425578D01*
X3194299Y-46476140D01*
X3103248Y-46537343D01*
X3002350Y-46606219D01*
X2947093Y-46644006D01*
X2850215Y-46709218D01*
X2765193Y-46765129D01*
X2696662Y-46808759D01*
X2649260Y-46837123D01*
X2627623Y-46847241D01*
X2615887Y-46840210D01*
X2580818Y-46810803D01*
X2527745Y-46762559D01*
X2461164Y-46699907D01*
X2385574Y-46627275D01*
X2305472Y-46549092D01*
X2225354Y-46469786D01*
X2149718Y-46393787D01*
X2083062Y-46325522D01*
X2029882Y-46269420D01*
X1994676Y-46229910D01*
X1981942Y-46211421D01*
X1986893Y-46201157D01*
X2009857Y-46163470D01*
X2048938Y-46102652D01*
X2101272Y-46023087D01*
X2163996Y-45929157D01*
X2234246Y-45825246D01*
X2486551Y-45454206D01*
X2359053Y-45144920D01*
X2231555Y-44835635D01*
X1786931Y-44751814D01*
X1342307Y-44667994D01*
X1342307Y-43742546D01*
X1786931Y-43658725D01*
X2231555Y-43574905D01*
X2486551Y-42956333D01*
X2234246Y-42585293D01*
X2184506Y-42511856D01*
X2119218Y-42414501D01*
X2063454Y-42330213D01*
X2020078Y-42263369D01*
X1991953Y-42218346D01*
X1981942Y-42199522D01*
X1989061Y-42187961D01*
X2018894Y-42153404D01*
X2067852Y-42101106D01*
X2131440Y-42035500D01*
X2205163Y-41961017D01*
X2284525Y-41882087D01*
X2365031Y-41803144D01*
X2442185Y-41728616D01*
X2511493Y-41662937D01*
X2568457Y-41610537D01*
X2608584Y-41575847D01*
X2627377Y-41563299D01*
X2635451Y-41566218D01*
X2671469Y-41586429D01*
X2730744Y-41623337D01*
X2808630Y-41673950D01*
X2900481Y-41735275D01*
X3001650Y-41804321D01*
X3056826Y-41842213D01*
X3152884Y-41907394D01*
X3236717Y-41963277D01*
X3303777Y-42006883D01*
X3349519Y-42035231D01*
X3369396Y-42045343D01*
X3370497Y-42045177D01*
X3395694Y-42036257D01*
X3447147Y-42015794D01*
X3518135Y-41986640D01*
X3601935Y-41951647D01*
X3691828Y-41913668D01*
X3781091Y-41875555D01*
X3863003Y-41840161D01*
X3930843Y-41810338D01*
X3977890Y-41788939D01*
X3997422Y-41778816D01*
X3999155Y-41772826D01*
X4006969Y-41736434D01*
X4019915Y-41671573D01*
X4036979Y-41583435D01*
X4057151Y-41477213D01*
X4079418Y-41358098D01*
X4091223Y-41295317D01*
X4113748Y-41180088D01*
X4134550Y-41079338D01*
X4152435Y-40998574D01*
X4166208Y-40943302D01*
X4174674Y-40919029D01*
X4183066Y-40914669D01*
X4224072Y-40907437D01*
X4292368Y-40901754D01*
X4381529Y-40897618D01*
X4485128Y-40895023D01*
X4596740Y-40893964D01*
X4709938Y-40894439D01*
G37*
D15*
%TO.C,R40*%
X-8124881Y-103696872D02*
X-7650365Y-103696872D01*
X-8124881Y-104741872D02*
X-7650365Y-104741872D01*
D16*
%TO.C,D30*%
X-16884000Y-47079237D02*
X-15824000Y-47079237D01*
X-16884000Y-47739237D02*
X-15824000Y-47739237D01*
D10*
X-15964000Y-46889237D02*
G75*
G02*
X-16004000Y-46889237I-20000J0D01*
G01*
X-16004000Y-46889237D02*
G75*
G02*
X-15964000Y-46889237I20000J0D01*
G01*
D16*
%TO.C,D29*%
X-16884000Y-19501288D02*
X-15824000Y-19501288D01*
X-16884000Y-20161288D02*
X-15824000Y-20161288D01*
D10*
X-15964000Y-19311288D02*
G75*
G02*
X-16004000Y-19311288I-20000J0D01*
G01*
X-16004000Y-19311288D02*
G75*
G02*
X-15964000Y-19311288I20000J0D01*
G01*
D16*
%TO.C,D28*%
X-16884000Y-33290263D02*
X-15824000Y-33290263D01*
X-16884000Y-33950263D02*
X-15824000Y-33950263D01*
D10*
X-15964000Y-33100263D02*
G75*
G02*
X-16004000Y-33100263I-20000J0D01*
G01*
X-16004000Y-33100263D02*
G75*
G02*
X-15964000Y-33100263I20000J0D01*
G01*
D15*
%TO.C,Q4*%
X-1004000Y-79158000D02*
X-1654000Y-79158000D01*
X-1004000Y-79158000D02*
X-354000Y-79158000D01*
X-1004000Y-82278000D02*
X-1654000Y-82278000D01*
X-1004000Y-82278000D02*
X-354000Y-82278000D01*
X-1926500Y-82558000D02*
X-2406500Y-82558000D01*
X-2166500Y-82228000D01*
X-1926500Y-82558000D01*
G36*
X-1926500Y-82558000D02*
G01*
X-2406500Y-82558000D01*
X-2166500Y-82228000D01*
X-1926500Y-82558000D01*
G37*
%TO.C,R38*%
X-6015117Y-89445500D02*
X-6489633Y-89445500D01*
X-6015117Y-90490500D02*
X-6489633Y-90490500D01*
D13*
%TO.C,J3*%
X-3354000Y-49450000D02*
X-3354000Y-49700000D01*
X-3354000Y-57050000D02*
X-3354000Y-56800000D01*
X46000Y-46950000D02*
X1096000Y-46950000D01*
X96000Y-59500000D02*
X1096000Y-59500000D01*
X1096000Y-59500000D02*
X1096000Y-46950000D01*
X-4004000Y-49250000D02*
G75*
G02*
X-4404000Y-49250000I-200000J0D01*
G01*
X-4404000Y-49250000D02*
G75*
G02*
X-4004000Y-49250000I200000J0D01*
G01*
D15*
%TO.C,RV2*%
X-13567118Y-35940748D02*
X-13285958Y-35940748D01*
X-13567118Y-36960748D02*
X-13285958Y-36960748D01*
D17*
%TO.C,REF\u002A\u002A*%
X3102184Y-76728526D02*
X-1576763Y-76728526D01*
X-1576763Y-75575500D01*
X3102184Y-75575500D01*
X3102184Y-76728526D01*
G36*
X3102184Y-76728526D02*
G01*
X-1576763Y-76728526D01*
X-1576763Y-75575500D01*
X3102184Y-75575500D01*
X3102184Y-76728526D01*
G37*
X1731938Y-69363362D02*
X1732595Y-69380572D01*
X1741141Y-69409467D01*
X1765466Y-69433972D01*
X1812918Y-69463143D01*
X1854573Y-69489793D01*
X1917989Y-69540960D01*
X1975460Y-69598400D01*
X2019422Y-69654279D01*
X2042311Y-69700762D01*
X2047919Y-69718674D01*
X2058309Y-69730970D01*
X2061812Y-69735116D01*
X2090445Y-69742083D01*
X2143141Y-69743526D01*
X2233237Y-69743526D01*
X2233237Y-69893921D01*
X2021228Y-69893921D01*
X2001433Y-70130183D01*
X1998775Y-70162483D01*
X1992583Y-70243340D01*
X1988208Y-70309135D01*
X1986030Y-70353791D01*
X1986426Y-70371233D01*
X1992185Y-70366219D01*
X2018462Y-70340083D01*
X2063888Y-70293758D01*
X2126166Y-70229647D01*
X2202997Y-70150150D01*
X2292080Y-70057669D01*
X2391119Y-69954606D01*
X2497814Y-69843362D01*
X2609865Y-69726338D01*
X2724975Y-69605936D01*
X2840844Y-69484558D01*
X2955174Y-69364604D01*
X3065666Y-69248476D01*
X3170021Y-69138575D01*
X3265940Y-69037304D01*
X3351124Y-68947063D01*
X3423275Y-68870253D01*
X3552194Y-68732539D01*
X3552781Y-68849852D01*
X3553368Y-68967164D01*
X2755286Y-69806485D01*
X1957204Y-70645807D01*
X1941250Y-70837106D01*
X1877419Y-71602528D01*
X1866138Y-71738287D01*
X1852140Y-71908154D01*
X1839220Y-72066505D01*
X1827627Y-72210228D01*
X1817607Y-72336210D01*
X1809407Y-72441338D01*
X1803274Y-72522501D01*
X1799456Y-72576586D01*
X1798199Y-72600480D01*
X1801517Y-72611429D01*
X1816429Y-72635071D01*
X1844709Y-72670703D01*
X1858358Y-72686277D01*
X1887864Y-72719948D01*
X1947399Y-72784428D01*
X2024820Y-72865768D01*
X2121632Y-72965591D01*
X2239342Y-73085520D01*
X2379454Y-73227179D01*
X2471628Y-73320136D01*
X2600119Y-73449795D01*
X2728159Y-73579079D01*
X2851900Y-73704097D01*
X2967492Y-73820959D01*
X3071085Y-73925774D01*
X3158831Y-74014652D01*
X3226881Y-74083702D01*
X3493617Y-74354757D01*
X3445169Y-74405326D01*
X3433743Y-74416719D01*
X3400035Y-74444697D01*
X3376910Y-74455895D01*
X3358805Y-74446335D01*
X3325145Y-74417649D01*
X3284792Y-74376520D01*
X3260230Y-74350542D01*
X3214423Y-74303104D01*
X3149683Y-74236566D01*
X3068295Y-74153263D01*
X2972545Y-74055528D01*
X2864721Y-73945695D01*
X2747108Y-73826096D01*
X2621992Y-73699066D01*
X2491659Y-73566938D01*
X1770831Y-72836732D01*
X1741469Y-73216017D01*
X1735068Y-73296972D01*
X1725721Y-73405793D01*
X1717290Y-73488217D01*
X1709151Y-73548575D01*
X1700679Y-73591200D01*
X1691250Y-73620424D01*
X1680237Y-73640580D01*
X1664825Y-73668750D01*
X1652143Y-73720539D01*
X1648368Y-73795152D01*
X1648368Y-73904447D01*
X1347579Y-73904447D01*
X1347579Y-73670500D01*
X223832Y-73670500D01*
X158875Y-73744295D01*
X141110Y-73763511D01*
X44831Y-73840712D01*
X-63951Y-73888239D01*
X-181738Y-73904447D01*
X-285673Y-73895854D01*
X-403230Y-73859628D01*
X-503866Y-73794882D01*
X-523480Y-73776378D01*
X-572497Y-73716475D01*
X-615503Y-73646693D01*
X-646342Y-73577909D01*
X-658859Y-73521002D01*
X-659101Y-73512741D01*
X-660901Y-73482471D01*
X-665608Y-73461563D01*
X-675456Y-73451669D01*
X-692677Y-73454444D01*
X-719506Y-73471540D01*
X-758176Y-73504610D01*
X-810920Y-73555307D01*
X-879972Y-73625285D01*
X-967566Y-73716197D01*
X-1075935Y-73829695D01*
X-1133658Y-73890280D01*
X-1230145Y-73991718D01*
X-1321432Y-74087889D01*
X-1403941Y-74175013D01*
X-1474094Y-74249311D01*
X-1528315Y-74307003D01*
X-1563026Y-74344310D01*
X-1657908Y-74447539D01*
X-1716551Y-74389052D01*
X-1775195Y-74330566D01*
X-1049821Y-73570237D01*
X-1004084Y-73522263D01*
X-841367Y-73350940D01*
X-701687Y-73202738D01*
X-584627Y-73077198D01*
X-489767Y-72973861D01*
X-422691Y-72898967D01*
X-148053Y-72898967D01*
X-145894Y-72916589D01*
X-145517Y-72918430D01*
X-127520Y-72960171D01*
X-91572Y-72979620D01*
X19237Y-73021083D01*
X117963Y-73090156D01*
X195611Y-73181524D01*
X248828Y-73291195D01*
X274258Y-73415173D01*
X282681Y-73520105D01*
X1544482Y-73520105D01*
X1553280Y-73482506D01*
X1554836Y-73473279D01*
X1559672Y-73432018D01*
X1566271Y-73365304D01*
X1574142Y-73278453D01*
X1582797Y-73176777D01*
X1591743Y-73065592D01*
X1621409Y-72686277D01*
X1221532Y-72280198D01*
X1148187Y-72205961D01*
X1058447Y-72115837D01*
X977940Y-72035775D01*
X909488Y-71968542D01*
X855917Y-71916910D01*
X820052Y-71883646D01*
X804715Y-71871521D01*
X794431Y-71877314D01*
X763801Y-71903675D01*
X717705Y-71947709D01*
X660265Y-72005444D01*
X595605Y-72072911D01*
X578738Y-72090804D01*
X503107Y-72170839D01*
X412984Y-72265977D01*
X315155Y-72369067D01*
X216405Y-72472956D01*
X123520Y-72570493D01*
X117940Y-72576346D01*
X31584Y-72667214D01*
X-34310Y-72737577D01*
X-82349Y-72790783D01*
X-115137Y-72830177D01*
X-135280Y-72859108D01*
X-145384Y-72880922D01*
X-148053Y-72898967D01*
X-422691Y-72898967D01*
X-416689Y-72892266D01*
X-364974Y-72831955D01*
X-334204Y-72792466D01*
X-323960Y-72773342D01*
X-323959Y-72773229D01*
X-325364Y-72749394D01*
X-329469Y-72695967D01*
X-335952Y-72616584D01*
X-344492Y-72514880D01*
X-354767Y-72394493D01*
X-366456Y-72259057D01*
X-379237Y-72112211D01*
X-392788Y-71957590D01*
X-406788Y-71798830D01*
X-420915Y-71639568D01*
X-434847Y-71483441D01*
X-448264Y-71334083D01*
X-460843Y-71195133D01*
X-472262Y-71070226D01*
X-482201Y-70962998D01*
X-490338Y-70877087D01*
X-496350Y-70816127D01*
X-499917Y-70783756D01*
X-507109Y-70729538D01*
X-335427Y-70729538D01*
X-333228Y-70770630D01*
X-328389Y-70839735D01*
X-321152Y-70933870D01*
X-311759Y-71050053D01*
X-300453Y-71185299D01*
X-287477Y-71336627D01*
X-273071Y-71501054D01*
X-257479Y-71675597D01*
X-245290Y-71810206D01*
X-230024Y-71977145D01*
X-215731Y-72131618D01*
X-202695Y-72270649D01*
X-191200Y-72391264D01*
X-181530Y-72490489D01*
X-173970Y-72565348D01*
X-168803Y-72612867D01*
X-166314Y-72630072D01*
X-158764Y-72624742D01*
X-131078Y-72598578D01*
X-86091Y-72553637D01*
X-26900Y-72493191D01*
X43399Y-72420509D01*
X121708Y-72338864D01*
X204930Y-72251526D01*
X289969Y-72161767D01*
X373727Y-72072858D01*
X453107Y-71988070D01*
X525013Y-71910673D01*
X586347Y-71843941D01*
X634013Y-71791142D01*
X664913Y-71755550D01*
X673941Y-71743186D01*
X915574Y-71743186D01*
X1281971Y-72109299D01*
X1371569Y-72198679D01*
X1456013Y-72282320D01*
X1521427Y-72346027D01*
X1570208Y-72391868D01*
X1604753Y-72421909D01*
X1627459Y-72438218D01*
X1640722Y-72442862D01*
X1646940Y-72437908D01*
X1648509Y-72425423D01*
X1649515Y-72405363D01*
X1653140Y-72353712D01*
X1659130Y-72275320D01*
X1667198Y-72173759D01*
X1677055Y-72052602D01*
X1688413Y-71915421D01*
X1700984Y-71765787D01*
X1714480Y-71607271D01*
X1726395Y-71467563D01*
X1738811Y-71320414D01*
X1749943Y-71186805D01*
X1759526Y-71070028D01*
X1767290Y-70973378D01*
X1772969Y-70900145D01*
X1776297Y-70853624D01*
X1777004Y-70837106D01*
X1776444Y-70837416D01*
X1760663Y-70852623D01*
X1725606Y-70888303D01*
X1674363Y-70941220D01*
X1610019Y-71008139D01*
X1535664Y-71085823D01*
X1454385Y-71171036D01*
X1369270Y-71260541D01*
X1283406Y-71351102D01*
X1199881Y-71439483D01*
X1121784Y-71522448D01*
X1052202Y-71596760D01*
X918141Y-71740434D01*
X915574Y-71743186D01*
X673941Y-71743186D01*
X675951Y-71740434D01*
X665131Y-71725785D01*
X633674Y-71690722D01*
X584503Y-71638265D01*
X520544Y-71571372D01*
X444723Y-71492999D01*
X359967Y-71406103D01*
X269202Y-71313641D01*
X175356Y-71218569D01*
X81354Y-71123845D01*
X-9876Y-71032424D01*
X-95409Y-70947265D01*
X-172317Y-70871323D01*
X-237674Y-70807556D01*
X-288554Y-70758920D01*
X-322030Y-70728372D01*
X-335176Y-70718868D01*
X-335427Y-70729538D01*
X-507109Y-70729538D01*
X-509337Y-70712737D01*
X-874921Y-70712737D01*
X-875359Y-70432835D01*
X-875586Y-70287584D01*
X-741237Y-70287584D01*
X-741237Y-70579052D01*
X-632618Y-70579052D01*
X-622955Y-70579044D01*
X-568396Y-70577880D01*
X-538724Y-70572902D01*
X-526429Y-70561477D01*
X-524000Y-70540971D01*
X-534699Y-70510829D01*
X-571346Y-70460687D01*
X-632618Y-70395237D01*
X-741237Y-70287584D01*
X-875586Y-70287584D01*
X-875796Y-70152934D01*
X-1476115Y-69543000D01*
X-2076433Y-68933066D01*
X-2077256Y-68817337D01*
X-2078079Y-68701610D01*
X-1358031Y-69431449D01*
X-1288436Y-69501944D01*
X-1144025Y-69647828D01*
X-1020558Y-69771875D01*
X-916440Y-69875611D01*
X-830075Y-69960562D01*
X-759868Y-70028256D01*
X-704224Y-70080219D01*
X-661548Y-70117977D01*
X-630244Y-70143057D01*
X-608718Y-70156986D01*
X-595375Y-70161289D01*
X-572875Y-70159986D01*
X-560244Y-70150468D01*
X-558066Y-70124427D01*
X-563303Y-70073559D01*
X-566914Y-70041533D01*
X-571939Y-69988002D01*
X-573963Y-69952408D01*
X-574955Y-69940138D01*
X-584614Y-69926996D01*
X-611297Y-69922641D01*
X-663098Y-69924542D01*
X-676324Y-69925287D01*
X-729267Y-69924447D01*
X-766927Y-69912813D01*
X-793471Y-69893921D01*
X-417026Y-69893921D01*
X-411496Y-69956585D01*
X-408942Y-69985017D01*
X-400982Y-70062642D01*
X-393139Y-70113769D01*
X-383969Y-70143711D01*
X-372027Y-70157780D01*
X-355871Y-70161289D01*
X-341344Y-70163679D01*
X-331711Y-70175098D01*
X-326328Y-70201645D01*
X-323985Y-70249414D01*
X-323474Y-70324502D01*
X-323474Y-70487715D01*
X-270052Y-70540971D01*
X-139658Y-70670960D01*
X44158Y-70854206D01*
X44158Y-70712737D01*
X1046790Y-70712737D01*
X1046790Y-71030237D01*
X224827Y-71030237D01*
X503589Y-71318493D01*
X556984Y-71373548D01*
X630817Y-71449120D01*
X694929Y-71514082D01*
X745961Y-71565060D01*
X780557Y-71598681D01*
X795357Y-71611574D01*
X800983Y-71608018D01*
X827363Y-71584118D01*
X872849Y-71539862D01*
X935012Y-71477708D01*
X1011422Y-71400115D01*
X1099649Y-71309540D01*
X1197262Y-71208441D01*
X1301833Y-71099275D01*
X1406940Y-70988964D01*
X1509974Y-70880246D01*
X1593530Y-70791136D01*
X1659654Y-70719271D01*
X1710387Y-70662289D01*
X1747775Y-70617828D01*
X1773860Y-70583525D01*
X1790687Y-70557017D01*
X1800298Y-70535942D01*
X1804739Y-70517939D01*
X1805916Y-70509169D01*
X1811136Y-70460847D01*
X1817742Y-70389707D01*
X1825008Y-70303861D01*
X1832207Y-70211421D01*
X1834648Y-70179225D01*
X1841701Y-70092236D01*
X1848425Y-70017203D01*
X1854160Y-69961255D01*
X1858240Y-69931520D01*
X1866242Y-69893921D01*
X-417026Y-69893921D01*
X-793471Y-69893921D01*
X-804044Y-69886396D01*
X-810437Y-69880835D01*
X-862715Y-69813487D01*
X-883419Y-69743526D01*
X-430519Y-69743526D01*
X1449306Y-69743526D01*
X1446583Y-69676684D01*
X1731921Y-69676684D01*
X1731921Y-69743526D01*
X1807706Y-69743526D01*
X1830412Y-69743366D01*
X1864054Y-69740442D01*
X1873766Y-69730970D01*
X1866227Y-69711267D01*
X1863999Y-69707511D01*
X1838990Y-69678623D01*
X1802757Y-69646563D01*
X1766613Y-69620560D01*
X1741874Y-69609842D01*
X1739650Y-69611536D01*
X1734131Y-69634810D01*
X1731921Y-69676684D01*
X1446583Y-69676684D01*
X1444397Y-69623007D01*
X1439487Y-69502488D01*
X1339224Y-69482348D01*
X1288943Y-69473214D01*
X1204975Y-69460425D01*
X1126165Y-69450776D01*
X1013368Y-69439345D01*
X1013368Y-69576421D01*
X244684Y-69576421D01*
X244684Y-69455596D01*
X148599Y-69467065D01*
X1787Y-69491646D01*
X-145968Y-69536089D01*
X-268186Y-69598062D01*
X-366938Y-69678413D01*
X-430519Y-69743526D01*
X-883419Y-69743526D01*
X-885719Y-69735754D01*
X-878672Y-69654211D01*
X-840797Y-69575434D01*
X-837132Y-69570529D01*
X-786514Y-69528327D01*
X-720526Y-69503365D01*
X-649393Y-69496725D01*
X-583336Y-69509492D01*
X-532581Y-69542750D01*
X-515396Y-69559729D01*
X-498655Y-69563844D01*
X-474682Y-69551115D01*
X-434201Y-69519332D01*
X-421781Y-69509564D01*
X-325889Y-69447911D01*
X-212285Y-69393084D01*
X-119370Y-69359184D01*
X378368Y-69359184D01*
X378368Y-69442737D01*
X879684Y-69442737D01*
X879684Y-69359184D01*
X378368Y-69359184D01*
X-119370Y-69359184D01*
X-91547Y-69349033D01*
X25746Y-69319706D01*
X129017Y-69309052D01*
X139988Y-69308968D01*
X200970Y-69303031D01*
X234460Y-69286385D01*
X244684Y-69257133D01*
X245885Y-69247917D01*
X252449Y-69239991D01*
X268391Y-69234189D01*
X297719Y-69230181D01*
X344440Y-69227639D01*
X412559Y-69226230D01*
X506086Y-69225628D01*
X629026Y-69225500D01*
X744219Y-69225725D01*
X842126Y-69226635D01*
X913800Y-69228469D01*
X963001Y-69231466D01*
X993490Y-69235863D01*
X1009025Y-69241898D01*
X1013368Y-69249808D01*
X1027653Y-69269232D01*
X1067678Y-69281627D01*
X1082997Y-69283796D01*
X1135230Y-69291430D01*
X1204737Y-69301778D01*
X1280737Y-69313240D01*
X1322651Y-69319075D01*
X1383992Y-69325394D01*
X1427273Y-69326918D01*
X1445057Y-69323197D01*
X1448094Y-69320773D01*
X1476130Y-69314785D01*
X1526564Y-69310617D01*
X1591274Y-69309052D01*
X1731921Y-69309052D01*
X1731937Y-69359184D01*
X1731938Y-69363362D01*
G36*
X1731938Y-69363362D02*
G01*
X1732595Y-69380572D01*
X1741141Y-69409467D01*
X1765466Y-69433972D01*
X1812918Y-69463143D01*
X1854573Y-69489793D01*
X1917989Y-69540960D01*
X1975460Y-69598400D01*
X2019422Y-69654279D01*
X2042311Y-69700762D01*
X2047919Y-69718674D01*
X2058309Y-69730970D01*
X2061812Y-69735116D01*
X2090445Y-69742083D01*
X2143141Y-69743526D01*
X2233237Y-69743526D01*
X2233237Y-69893921D01*
X2021228Y-69893921D01*
X2001433Y-70130183D01*
X1998775Y-70162483D01*
X1992583Y-70243340D01*
X1988208Y-70309135D01*
X1986030Y-70353791D01*
X1986426Y-70371233D01*
X1992185Y-70366219D01*
X2018462Y-70340083D01*
X2063888Y-70293758D01*
X2126166Y-70229647D01*
X2202997Y-70150150D01*
X2292080Y-70057669D01*
X2391119Y-69954606D01*
X2497814Y-69843362D01*
X2609865Y-69726338D01*
X2724975Y-69605936D01*
X2840844Y-69484558D01*
X2955174Y-69364604D01*
X3065666Y-69248476D01*
X3170021Y-69138575D01*
X3265940Y-69037304D01*
X3351124Y-68947063D01*
X3423275Y-68870253D01*
X3552194Y-68732539D01*
X3552781Y-68849852D01*
X3553368Y-68967164D01*
X2755286Y-69806485D01*
X1957204Y-70645807D01*
X1941250Y-70837106D01*
X1877419Y-71602528D01*
X1866138Y-71738287D01*
X1852140Y-71908154D01*
X1839220Y-72066505D01*
X1827627Y-72210228D01*
X1817607Y-72336210D01*
X1809407Y-72441338D01*
X1803274Y-72522501D01*
X1799456Y-72576586D01*
X1798199Y-72600480D01*
X1801517Y-72611429D01*
X1816429Y-72635071D01*
X1844709Y-72670703D01*
X1858358Y-72686277D01*
X1887864Y-72719948D01*
X1947399Y-72784428D01*
X2024820Y-72865768D01*
X2121632Y-72965591D01*
X2239342Y-73085520D01*
X2379454Y-73227179D01*
X2471628Y-73320136D01*
X2600119Y-73449795D01*
X2728159Y-73579079D01*
X2851900Y-73704097D01*
X2967492Y-73820959D01*
X3071085Y-73925774D01*
X3158831Y-74014652D01*
X3226881Y-74083702D01*
X3493617Y-74354757D01*
X3445169Y-74405326D01*
X3433743Y-74416719D01*
X3400035Y-74444697D01*
X3376910Y-74455895D01*
X3358805Y-74446335D01*
X3325145Y-74417649D01*
X3284792Y-74376520D01*
X3260230Y-74350542D01*
X3214423Y-74303104D01*
X3149683Y-74236566D01*
X3068295Y-74153263D01*
X2972545Y-74055528D01*
X2864721Y-73945695D01*
X2747108Y-73826096D01*
X2621992Y-73699066D01*
X2491659Y-73566938D01*
X1770831Y-72836732D01*
X1741469Y-73216017D01*
X1735068Y-73296972D01*
X1725721Y-73405793D01*
X1717290Y-73488217D01*
X1709151Y-73548575D01*
X1700679Y-73591200D01*
X1691250Y-73620424D01*
X1680237Y-73640580D01*
X1664825Y-73668750D01*
X1652143Y-73720539D01*
X1648368Y-73795152D01*
X1648368Y-73904447D01*
X1347579Y-73904447D01*
X1347579Y-73670500D01*
X223832Y-73670500D01*
X158875Y-73744295D01*
X141110Y-73763511D01*
X44831Y-73840712D01*
X-63951Y-73888239D01*
X-181738Y-73904447D01*
X-285673Y-73895854D01*
X-403230Y-73859628D01*
X-503866Y-73794882D01*
X-523480Y-73776378D01*
X-572497Y-73716475D01*
X-615503Y-73646693D01*
X-646342Y-73577909D01*
X-658859Y-73521002D01*
X-659101Y-73512741D01*
X-660901Y-73482471D01*
X-665608Y-73461563D01*
X-675456Y-73451669D01*
X-692677Y-73454444D01*
X-719506Y-73471540D01*
X-758176Y-73504610D01*
X-810920Y-73555307D01*
X-879972Y-73625285D01*
X-967566Y-73716197D01*
X-1075935Y-73829695D01*
X-1133658Y-73890280D01*
X-1230145Y-73991718D01*
X-1321432Y-74087889D01*
X-1403941Y-74175013D01*
X-1474094Y-74249311D01*
X-1528315Y-74307003D01*
X-1563026Y-74344310D01*
X-1657908Y-74447539D01*
X-1716551Y-74389052D01*
X-1775195Y-74330566D01*
X-1049821Y-73570237D01*
X-1004084Y-73522263D01*
X-841367Y-73350940D01*
X-701687Y-73202738D01*
X-584627Y-73077198D01*
X-489767Y-72973861D01*
X-422691Y-72898967D01*
X-148053Y-72898967D01*
X-145894Y-72916589D01*
X-145517Y-72918430D01*
X-127520Y-72960171D01*
X-91572Y-72979620D01*
X19237Y-73021083D01*
X117963Y-73090156D01*
X195611Y-73181524D01*
X248828Y-73291195D01*
X274258Y-73415173D01*
X282681Y-73520105D01*
X1544482Y-73520105D01*
X1553280Y-73482506D01*
X1554836Y-73473279D01*
X1559672Y-73432018D01*
X1566271Y-73365304D01*
X1574142Y-73278453D01*
X1582797Y-73176777D01*
X1591743Y-73065592D01*
X1621409Y-72686277D01*
X1221532Y-72280198D01*
X1148187Y-72205961D01*
X1058447Y-72115837D01*
X977940Y-72035775D01*
X909488Y-71968542D01*
X855917Y-71916910D01*
X820052Y-71883646D01*
X804715Y-71871521D01*
X794431Y-71877314D01*
X763801Y-71903675D01*
X717705Y-71947709D01*
X660265Y-72005444D01*
X595605Y-72072911D01*
X578738Y-72090804D01*
X503107Y-72170839D01*
X412984Y-72265977D01*
X315155Y-72369067D01*
X216405Y-72472956D01*
X123520Y-72570493D01*
X117940Y-72576346D01*
X31584Y-72667214D01*
X-34310Y-72737577D01*
X-82349Y-72790783D01*
X-115137Y-72830177D01*
X-135280Y-72859108D01*
X-145384Y-72880922D01*
X-148053Y-72898967D01*
X-422691Y-72898967D01*
X-416689Y-72892266D01*
X-364974Y-72831955D01*
X-334204Y-72792466D01*
X-323960Y-72773342D01*
X-323959Y-72773229D01*
X-325364Y-72749394D01*
X-329469Y-72695967D01*
X-335952Y-72616584D01*
X-344492Y-72514880D01*
X-354767Y-72394493D01*
X-366456Y-72259057D01*
X-379237Y-72112211D01*
X-392788Y-71957590D01*
X-406788Y-71798830D01*
X-420915Y-71639568D01*
X-434847Y-71483441D01*
X-448264Y-71334083D01*
X-460843Y-71195133D01*
X-472262Y-71070226D01*
X-482201Y-70962998D01*
X-490338Y-70877087D01*
X-496350Y-70816127D01*
X-499917Y-70783756D01*
X-507109Y-70729538D01*
X-335427Y-70729538D01*
X-333228Y-70770630D01*
X-328389Y-70839735D01*
X-321152Y-70933870D01*
X-311759Y-71050053D01*
X-300453Y-71185299D01*
X-287477Y-71336627D01*
X-273071Y-71501054D01*
X-257479Y-71675597D01*
X-245290Y-71810206D01*
X-230024Y-71977145D01*
X-215731Y-72131618D01*
X-202695Y-72270649D01*
X-191200Y-72391264D01*
X-181530Y-72490489D01*
X-173970Y-72565348D01*
X-168803Y-72612867D01*
X-166314Y-72630072D01*
X-158764Y-72624742D01*
X-131078Y-72598578D01*
X-86091Y-72553637D01*
X-26900Y-72493191D01*
X43399Y-72420509D01*
X121708Y-72338864D01*
X204930Y-72251526D01*
X289969Y-72161767D01*
X373727Y-72072858D01*
X453107Y-71988070D01*
X525013Y-71910673D01*
X586347Y-71843941D01*
X634013Y-71791142D01*
X664913Y-71755550D01*
X673941Y-71743186D01*
X915574Y-71743186D01*
X1281971Y-72109299D01*
X1371569Y-72198679D01*
X1456013Y-72282320D01*
X1521427Y-72346027D01*
X1570208Y-72391868D01*
X1604753Y-72421909D01*
X1627459Y-72438218D01*
X1640722Y-72442862D01*
X1646940Y-72437908D01*
X1648509Y-72425423D01*
X1649515Y-72405363D01*
X1653140Y-72353712D01*
X1659130Y-72275320D01*
X1667198Y-72173759D01*
X1677055Y-72052602D01*
X1688413Y-71915421D01*
X1700984Y-71765787D01*
X1714480Y-71607271D01*
X1726395Y-71467563D01*
X1738811Y-71320414D01*
X1749943Y-71186805D01*
X1759526Y-71070028D01*
X1767290Y-70973378D01*
X1772969Y-70900145D01*
X1776297Y-70853624D01*
X1777004Y-70837106D01*
X1776444Y-70837416D01*
X1760663Y-70852623D01*
X1725606Y-70888303D01*
X1674363Y-70941220D01*
X1610019Y-71008139D01*
X1535664Y-71085823D01*
X1454385Y-71171036D01*
X1369270Y-71260541D01*
X1283406Y-71351102D01*
X1199881Y-71439483D01*
X1121784Y-71522448D01*
X1052202Y-71596760D01*
X918141Y-71740434D01*
X915574Y-71743186D01*
X673941Y-71743186D01*
X675951Y-71740434D01*
X665131Y-71725785D01*
X633674Y-71690722D01*
X584503Y-71638265D01*
X520544Y-71571372D01*
X444723Y-71492999D01*
X359967Y-71406103D01*
X269202Y-71313641D01*
X175356Y-71218569D01*
X81354Y-71123845D01*
X-9876Y-71032424D01*
X-95409Y-70947265D01*
X-172317Y-70871323D01*
X-237674Y-70807556D01*
X-288554Y-70758920D01*
X-322030Y-70728372D01*
X-335176Y-70718868D01*
X-335427Y-70729538D01*
X-507109Y-70729538D01*
X-509337Y-70712737D01*
X-874921Y-70712737D01*
X-875359Y-70432835D01*
X-875586Y-70287584D01*
X-741237Y-70287584D01*
X-741237Y-70579052D01*
X-632618Y-70579052D01*
X-622955Y-70579044D01*
X-568396Y-70577880D01*
X-538724Y-70572902D01*
X-526429Y-70561477D01*
X-524000Y-70540971D01*
X-534699Y-70510829D01*
X-571346Y-70460687D01*
X-632618Y-70395237D01*
X-741237Y-70287584D01*
X-875586Y-70287584D01*
X-875796Y-70152934D01*
X-1476115Y-69543000D01*
X-2076433Y-68933066D01*
X-2077256Y-68817337D01*
X-2078079Y-68701610D01*
X-1358031Y-69431449D01*
X-1288436Y-69501944D01*
X-1144025Y-69647828D01*
X-1020558Y-69771875D01*
X-916440Y-69875611D01*
X-830075Y-69960562D01*
X-759868Y-70028256D01*
X-704224Y-70080219D01*
X-661548Y-70117977D01*
X-630244Y-70143057D01*
X-608718Y-70156986D01*
X-595375Y-70161289D01*
X-572875Y-70159986D01*
X-560244Y-70150468D01*
X-558066Y-70124427D01*
X-563303Y-70073559D01*
X-566914Y-70041533D01*
X-571939Y-69988002D01*
X-573963Y-69952408D01*
X-574955Y-69940138D01*
X-584614Y-69926996D01*
X-611297Y-69922641D01*
X-663098Y-69924542D01*
X-676324Y-69925287D01*
X-729267Y-69924447D01*
X-766927Y-69912813D01*
X-793471Y-69893921D01*
X-417026Y-69893921D01*
X-411496Y-69956585D01*
X-408942Y-69985017D01*
X-400982Y-70062642D01*
X-393139Y-70113769D01*
X-383969Y-70143711D01*
X-372027Y-70157780D01*
X-355871Y-70161289D01*
X-341344Y-70163679D01*
X-331711Y-70175098D01*
X-326328Y-70201645D01*
X-323985Y-70249414D01*
X-323474Y-70324502D01*
X-323474Y-70487715D01*
X-270052Y-70540971D01*
X-139658Y-70670960D01*
X44158Y-70854206D01*
X44158Y-70712737D01*
X1046790Y-70712737D01*
X1046790Y-71030237D01*
X224827Y-71030237D01*
X503589Y-71318493D01*
X556984Y-71373548D01*
X630817Y-71449120D01*
X694929Y-71514082D01*
X745961Y-71565060D01*
X780557Y-71598681D01*
X795357Y-71611574D01*
X800983Y-71608018D01*
X827363Y-71584118D01*
X872849Y-71539862D01*
X935012Y-71477708D01*
X1011422Y-71400115D01*
X1099649Y-71309540D01*
X1197262Y-71208441D01*
X1301833Y-71099275D01*
X1406940Y-70988964D01*
X1509974Y-70880246D01*
X1593530Y-70791136D01*
X1659654Y-70719271D01*
X1710387Y-70662289D01*
X1747775Y-70617828D01*
X1773860Y-70583525D01*
X1790687Y-70557017D01*
X1800298Y-70535942D01*
X1804739Y-70517939D01*
X1805916Y-70509169D01*
X1811136Y-70460847D01*
X1817742Y-70389707D01*
X1825008Y-70303861D01*
X1832207Y-70211421D01*
X1834648Y-70179225D01*
X1841701Y-70092236D01*
X1848425Y-70017203D01*
X1854160Y-69961255D01*
X1858240Y-69931520D01*
X1866242Y-69893921D01*
X-417026Y-69893921D01*
X-793471Y-69893921D01*
X-804044Y-69886396D01*
X-810437Y-69880835D01*
X-862715Y-69813487D01*
X-883419Y-69743526D01*
X-430519Y-69743526D01*
X1449306Y-69743526D01*
X1446583Y-69676684D01*
X1731921Y-69676684D01*
X1731921Y-69743526D01*
X1807706Y-69743526D01*
X1830412Y-69743366D01*
X1864054Y-69740442D01*
X1873766Y-69730970D01*
X1866227Y-69711267D01*
X1863999Y-69707511D01*
X1838990Y-69678623D01*
X1802757Y-69646563D01*
X1766613Y-69620560D01*
X1741874Y-69609842D01*
X1739650Y-69611536D01*
X1734131Y-69634810D01*
X1731921Y-69676684D01*
X1446583Y-69676684D01*
X1444397Y-69623007D01*
X1439487Y-69502488D01*
X1339224Y-69482348D01*
X1288943Y-69473214D01*
X1204975Y-69460425D01*
X1126165Y-69450776D01*
X1013368Y-69439345D01*
X1013368Y-69576421D01*
X244684Y-69576421D01*
X244684Y-69455596D01*
X148599Y-69467065D01*
X1787Y-69491646D01*
X-145968Y-69536089D01*
X-268186Y-69598062D01*
X-366938Y-69678413D01*
X-430519Y-69743526D01*
X-883419Y-69743526D01*
X-885719Y-69735754D01*
X-878672Y-69654211D01*
X-840797Y-69575434D01*
X-837132Y-69570529D01*
X-786514Y-69528327D01*
X-720526Y-69503365D01*
X-649393Y-69496725D01*
X-583336Y-69509492D01*
X-532581Y-69542750D01*
X-515396Y-69559729D01*
X-498655Y-69563844D01*
X-474682Y-69551115D01*
X-434201Y-69519332D01*
X-421781Y-69509564D01*
X-325889Y-69447911D01*
X-212285Y-69393084D01*
X-119370Y-69359184D01*
X378368Y-69359184D01*
X378368Y-69442737D01*
X879684Y-69442737D01*
X879684Y-69359184D01*
X378368Y-69359184D01*
X-119370Y-69359184D01*
X-91547Y-69349033D01*
X25746Y-69319706D01*
X129017Y-69309052D01*
X139988Y-69308968D01*
X200970Y-69303031D01*
X234460Y-69286385D01*
X244684Y-69257133D01*
X245885Y-69247917D01*
X252449Y-69239991D01*
X268391Y-69234189D01*
X297719Y-69230181D01*
X344440Y-69227639D01*
X412559Y-69226230D01*
X506086Y-69225628D01*
X629026Y-69225500D01*
X744219Y-69225725D01*
X842126Y-69226635D01*
X913800Y-69228469D01*
X963001Y-69231466D01*
X993490Y-69235863D01*
X1009025Y-69241898D01*
X1013368Y-69249808D01*
X1027653Y-69269232D01*
X1067678Y-69281627D01*
X1082997Y-69283796D01*
X1135230Y-69291430D01*
X1204737Y-69301778D01*
X1280737Y-69313240D01*
X1322651Y-69319075D01*
X1383992Y-69325394D01*
X1427273Y-69326918D01*
X1445057Y-69323197D01*
X1448094Y-69320773D01*
X1476130Y-69314785D01*
X1526564Y-69310617D01*
X1591274Y-69309052D01*
X1731921Y-69309052D01*
X1731937Y-69359184D01*
X1731938Y-69363362D01*
G37*
D15*
%TO.C,RV5*%
X-13567118Y-63523497D02*
X-13285958Y-63523497D01*
X-13567118Y-64543497D02*
X-13285958Y-64543497D01*
%TO.C,Q3*%
X-1004000Y-84157999D02*
X-1654000Y-84158000D01*
X-1004000Y-84157999D02*
X-354000Y-84158000D01*
X-1004000Y-87278001D02*
X-1654000Y-87278000D01*
X-1004000Y-87278001D02*
X-354000Y-87278000D01*
X-1926500Y-87557999D02*
X-2406500Y-87558000D01*
X-2166500Y-87228000D01*
X-1926500Y-87557999D01*
G36*
X-1926500Y-87557999D02*
G01*
X-2406500Y-87558000D01*
X-2166500Y-87228000D01*
X-1926500Y-87557999D01*
G37*
%TO.C,RV6*%
X-13567118Y-91106245D02*
X-13285958Y-91106245D01*
X-13567118Y-92126245D02*
X-13285958Y-92126245D01*
D16*
%TO.C,D31*%
X-16884000Y-60868212D02*
X-15824000Y-60868212D01*
X-16884000Y-61528212D02*
X-15824000Y-61528212D01*
D10*
X-15964000Y-60678212D02*
G75*
G02*
X-16004000Y-60678212I-20000J0D01*
G01*
X-16004000Y-60678212D02*
G75*
G02*
X-15964000Y-60678212I20000J0D01*
G01*
D15*
%TO.C,RV1*%
X-13567118Y-8358000D02*
X-13285958Y-8358000D01*
X-13567118Y-9378000D02*
X-13285958Y-9378000D01*
%TO.C,Q2*%
X3746000Y-79158000D02*
X3096000Y-79158000D01*
X3746000Y-79158000D02*
X4396000Y-79158000D01*
X3746000Y-82278000D02*
X3096000Y-82278000D01*
X3746000Y-82278000D02*
X4396000Y-82278000D01*
X2823500Y-82558000D02*
X2343500Y-82558000D01*
X2583500Y-82228000D01*
X2823500Y-82558000D01*
G36*
X2823500Y-82558000D02*
G01*
X2343500Y-82558000D01*
X2583500Y-82228000D01*
X2823500Y-82558000D01*
G37*
%TO.C,Q5*%
X3746000Y-84157999D02*
X3096000Y-84158000D01*
X3746000Y-84157999D02*
X4396000Y-84158000D01*
X3746000Y-87278001D02*
X3096000Y-87278000D01*
X3746000Y-87278001D02*
X4396000Y-87278000D01*
X2823500Y-87557999D02*
X2343500Y-87558000D01*
X2583500Y-87228000D01*
X2823500Y-87557999D01*
G36*
X2823500Y-87557999D02*
G01*
X2343500Y-87558000D01*
X2583500Y-87228000D01*
X2823500Y-87557999D01*
G37*
D16*
%TO.C,D32*%
X-16884000Y-88446161D02*
X-15824000Y-88446161D01*
X-16884000Y-89106161D02*
X-15824000Y-89106161D01*
D10*
X-15964000Y-88256161D02*
G75*
G02*
X-16004000Y-88256161I-20000J0D01*
G01*
X-16004000Y-88256161D02*
G75*
G02*
X-15964000Y-88256161I20000J0D01*
G01*
D15*
%TO.C,R39*%
X-6020084Y-80989318D02*
X-6494600Y-80989318D01*
X-6020084Y-82034318D02*
X-6494600Y-82034318D01*
%TO.C,RV7*%
X-13567118Y-77314871D02*
X-13285958Y-77314871D01*
X-13567118Y-78334871D02*
X-13285958Y-78334871D01*
%TD*%
%LPC*%
D10*
X7935366Y-65350739D02*
X8502033Y-65279906D01*
X8502033Y-65279906D02*
X8568700Y-65243001D01*
X8568700Y-65243001D02*
X8602033Y-65210263D01*
X8602033Y-65210263D02*
X8635366Y-65148953D01*
X8635366Y-65148953D02*
X8635366Y-65063239D01*
X8635366Y-65063239D02*
X8602033Y-65010263D01*
X8368700Y-65296573D02*
X8402033Y-65235263D01*
X8402033Y-65235263D02*
X8402033Y-65120977D01*
X8402033Y-65120977D02*
X8368700Y-65068001D01*
X8368700Y-65068001D02*
X8335366Y-65043596D01*
X8335366Y-65043596D02*
X8268700Y-65023358D01*
X8268700Y-65023358D02*
X8068700Y-65048358D01*
X8068700Y-65048358D02*
X8002033Y-65085263D01*
X8002033Y-65085263D02*
X7968700Y-65118001D01*
X7968700Y-65118001D02*
X7935366Y-65179311D01*
X7935366Y-65179311D02*
X7935366Y-65293596D01*
X7935366Y-65293596D02*
X7968700Y-65346573D01*
X8402033Y-65578120D02*
X7935366Y-65636453D01*
X7702033Y-65665620D02*
X7735366Y-65632882D01*
X7735366Y-65632882D02*
X7768700Y-65657287D01*
X7768700Y-65657287D02*
X7735366Y-65690025D01*
X7735366Y-65690025D02*
X7702033Y-65665620D01*
X7702033Y-65665620D02*
X7768700Y-65657287D01*
X7935366Y-65836453D02*
X7935366Y-66065024D01*
X7702033Y-65951334D02*
X8302033Y-65876334D01*
X8302033Y-65876334D02*
X8368700Y-65896572D01*
X8368700Y-65896572D02*
X8402033Y-65949548D01*
X8402033Y-65949548D02*
X8402033Y-66006691D01*
X8402033Y-66206691D02*
X7702033Y-66294191D01*
X8402033Y-66463834D02*
X8035366Y-66509667D01*
X8035366Y-66509667D02*
X7968700Y-66489429D01*
X7968700Y-66489429D02*
X7935366Y-66436453D01*
X7935366Y-66436453D02*
X7935366Y-66350739D01*
X7935366Y-66350739D02*
X7968700Y-66289429D01*
X7968700Y-66289429D02*
X8002033Y-66256691D01*
X7935366Y-67065024D02*
X8402033Y-67006691D01*
X7935366Y-66807881D02*
X8302033Y-66762048D01*
X8302033Y-66762048D02*
X8368700Y-66782286D01*
X8368700Y-66782286D02*
X8402033Y-66835262D01*
X8402033Y-66835262D02*
X8402033Y-66920977D01*
X8402033Y-66920977D02*
X8368700Y-66982286D01*
X8368700Y-66982286D02*
X8335366Y-67015024D01*
X8402033Y-67292405D02*
X7702033Y-67379905D01*
X7968700Y-67346572D02*
X7935366Y-67407881D01*
X7935366Y-67407881D02*
X7935366Y-67522167D01*
X7935366Y-67522167D02*
X7968700Y-67575143D01*
X7968700Y-67575143D02*
X8002033Y-67599548D01*
X8002033Y-67599548D02*
X8068700Y-67619786D01*
X8068700Y-67619786D02*
X8268700Y-67594786D01*
X8268700Y-67594786D02*
X8335366Y-67557881D01*
X8335366Y-67557881D02*
X8368700Y-67525143D01*
X8368700Y-67525143D02*
X8402033Y-67463834D01*
X8402033Y-67463834D02*
X8402033Y-67349548D01*
X8402033Y-67349548D02*
X8368700Y-67296572D01*
X8335366Y-67843595D02*
X8368700Y-67868000D01*
X8368700Y-67868000D02*
X8402033Y-67835262D01*
X8402033Y-67835262D02*
X8368700Y-67810857D01*
X8368700Y-67810857D02*
X8335366Y-67843595D01*
X8335366Y-67843595D02*
X8402033Y-67835262D01*
X8368700Y-68382286D02*
X8402033Y-68320976D01*
X8402033Y-68320976D02*
X8402033Y-68206690D01*
X8402033Y-68206690D02*
X8368700Y-68153714D01*
X8368700Y-68153714D02*
X8335366Y-68129309D01*
X8335366Y-68129309D02*
X8268700Y-68109071D01*
X8268700Y-68109071D02*
X8068700Y-68134071D01*
X8068700Y-68134071D02*
X8002033Y-68170976D01*
X8002033Y-68170976D02*
X7968700Y-68203714D01*
X7968700Y-68203714D02*
X7935366Y-68265024D01*
X7935366Y-68265024D02*
X7935366Y-68379309D01*
X7935366Y-68379309D02*
X7968700Y-68432286D01*
X8402033Y-68720976D02*
X8368700Y-68668000D01*
X8368700Y-68668000D02*
X8335366Y-68643595D01*
X8335366Y-68643595D02*
X8268700Y-68623357D01*
X8268700Y-68623357D02*
X8068700Y-68648357D01*
X8068700Y-68648357D02*
X8002033Y-68685262D01*
X8002033Y-68685262D02*
X7968700Y-68718000D01*
X7968700Y-68718000D02*
X7935366Y-68779310D01*
X7935366Y-68779310D02*
X7935366Y-68865024D01*
X7935366Y-68865024D02*
X7968700Y-68918000D01*
X7968700Y-68918000D02*
X8002033Y-68942405D01*
X8002033Y-68942405D02*
X8068700Y-68962643D01*
X8068700Y-68962643D02*
X8268700Y-68937643D01*
X8268700Y-68937643D02*
X8335366Y-68900738D01*
X8335366Y-68900738D02*
X8368700Y-68868000D01*
X8368700Y-68868000D02*
X8402033Y-68806691D01*
X8402033Y-68806691D02*
X8402033Y-68720976D01*
X8402033Y-69178119D02*
X7935366Y-69236452D01*
X8002033Y-69228119D02*
X7968700Y-69260857D01*
X7968700Y-69260857D02*
X7935366Y-69322167D01*
X7935366Y-69322167D02*
X7935366Y-69407881D01*
X7935366Y-69407881D02*
X7968700Y-69460857D01*
X7968700Y-69460857D02*
X8035366Y-69481095D01*
X8035366Y-69481095D02*
X8402033Y-69435262D01*
X8035366Y-69481095D02*
X7968700Y-69518000D01*
X7968700Y-69518000D02*
X7935366Y-69579309D01*
X7935366Y-69579309D02*
X7935366Y-69665024D01*
X7935366Y-69665024D02*
X7968700Y-69718000D01*
X7968700Y-69718000D02*
X8035366Y-69738238D01*
X8035366Y-69738238D02*
X8402033Y-69692405D01*
X7668700Y-70498357D02*
X8568700Y-69871571D01*
X8402033Y-70863833D02*
X8035366Y-70909666D01*
X8035366Y-70909666D02*
X7968700Y-70889428D01*
X7968700Y-70889428D02*
X7935366Y-70836452D01*
X7935366Y-70836452D02*
X7935366Y-70722166D01*
X7935366Y-70722166D02*
X7968700Y-70660857D01*
X8368700Y-70868000D02*
X8402033Y-70806690D01*
X8402033Y-70806690D02*
X8402033Y-70663833D01*
X8402033Y-70663833D02*
X8368700Y-70610857D01*
X8368700Y-70610857D02*
X8302033Y-70590619D01*
X8302033Y-70590619D02*
X8235366Y-70598952D01*
X8235366Y-70598952D02*
X8168700Y-70635857D01*
X8168700Y-70635857D02*
X8135366Y-70697166D01*
X8135366Y-70697166D02*
X8135366Y-70840023D01*
X8135366Y-70840023D02*
X8102033Y-70901333D01*
X7935366Y-71207880D02*
X8635366Y-71120380D01*
X7968700Y-71203714D02*
X7935366Y-71265023D01*
X7935366Y-71265023D02*
X7935366Y-71379309D01*
X7935366Y-71379309D02*
X7968700Y-71432285D01*
X7968700Y-71432285D02*
X8002033Y-71456690D01*
X8002033Y-71456690D02*
X8068700Y-71476928D01*
X8068700Y-71476928D02*
X8268700Y-71451928D01*
X8268700Y-71451928D02*
X8335366Y-71415023D01*
X8335366Y-71415023D02*
X8368700Y-71382285D01*
X8368700Y-71382285D02*
X8402033Y-71320976D01*
X8402033Y-71320976D02*
X8402033Y-71206690D01*
X8402033Y-71206690D02*
X8368700Y-71153714D01*
X7935366Y-71665023D02*
X7935366Y-71893594D01*
X8402033Y-71692404D02*
X7802033Y-71767404D01*
X7802033Y-71767404D02*
X7735366Y-71804309D01*
X7735366Y-71804309D02*
X7702033Y-71865618D01*
X7702033Y-71865618D02*
X7702033Y-71922761D01*
X8402033Y-72292404D02*
X8035366Y-72338237D01*
X8035366Y-72338237D02*
X7968700Y-72317999D01*
X7968700Y-72317999D02*
X7935366Y-72265023D01*
X7935366Y-72265023D02*
X7935366Y-72150737D01*
X7935366Y-72150737D02*
X7968700Y-72089428D01*
X8368700Y-72296571D02*
X8402033Y-72235261D01*
X8402033Y-72235261D02*
X8402033Y-72092404D01*
X8402033Y-72092404D02*
X8368700Y-72039428D01*
X8368700Y-72039428D02*
X8302033Y-72019190D01*
X8302033Y-72019190D02*
X8235366Y-72027523D01*
X8235366Y-72027523D02*
X8168700Y-72064428D01*
X8168700Y-72064428D02*
X8135366Y-72125737D01*
X8135366Y-72125737D02*
X8135366Y-72268594D01*
X8135366Y-72268594D02*
X8102033Y-72329904D01*
X7935366Y-72893594D02*
X8402033Y-72835261D01*
X7935366Y-72636451D02*
X8302033Y-72590618D01*
X8302033Y-72590618D02*
X8368700Y-72610856D01*
X8368700Y-72610856D02*
X8402033Y-72663832D01*
X8402033Y-72663832D02*
X8402033Y-72749547D01*
X8402033Y-72749547D02*
X8368700Y-72810856D01*
X8368700Y-72810856D02*
X8335366Y-72843594D01*
X8402033Y-73378118D02*
X7702033Y-73465618D01*
X8368700Y-73382285D02*
X8402033Y-73320975D01*
X8402033Y-73320975D02*
X8402033Y-73206689D01*
X8402033Y-73206689D02*
X8368700Y-73153713D01*
X8368700Y-73153713D02*
X8335366Y-73129308D01*
X8335366Y-73129308D02*
X8268700Y-73109070D01*
X8268700Y-73109070D02*
X8068700Y-73134070D01*
X8068700Y-73134070D02*
X8002033Y-73170975D01*
X8002033Y-73170975D02*
X7968700Y-73203713D01*
X7968700Y-73203713D02*
X7935366Y-73265023D01*
X7935366Y-73265023D02*
X7935366Y-73379308D01*
X7935366Y-73379308D02*
X7968700Y-73432285D01*
X8402033Y-73663832D02*
X7935366Y-73722165D01*
X7702033Y-73751332D02*
X7735366Y-73718594D01*
X7735366Y-73718594D02*
X7768700Y-73742999D01*
X7768700Y-73742999D02*
X7735366Y-73775737D01*
X7735366Y-73775737D02*
X7702033Y-73751332D01*
X7702033Y-73751332D02*
X7768700Y-73742999D01*
X8402033Y-74035260D02*
X8368700Y-73982284D01*
X8368700Y-73982284D02*
X8335366Y-73957879D01*
X8335366Y-73957879D02*
X8268700Y-73937641D01*
X8268700Y-73937641D02*
X8068700Y-73962641D01*
X8068700Y-73962641D02*
X8002033Y-73999546D01*
X8002033Y-73999546D02*
X7968700Y-74032284D01*
X7968700Y-74032284D02*
X7935366Y-74093594D01*
X7935366Y-74093594D02*
X7935366Y-74179308D01*
X7935366Y-74179308D02*
X7968700Y-74232284D01*
X7968700Y-74232284D02*
X8002033Y-74256689D01*
X8002033Y-74256689D02*
X8068700Y-74276927D01*
X8068700Y-74276927D02*
X8268700Y-74251927D01*
X8268700Y-74251927D02*
X8335366Y-74215022D01*
X8335366Y-74215022D02*
X8368700Y-74182284D01*
X8368700Y-74182284D02*
X8402033Y-74120975D01*
X8402033Y-74120975D02*
X8402033Y-74035260D01*
X7668700Y-75012641D02*
X8568700Y-74385855D01*
X8368700Y-75353712D02*
X8402033Y-75292403D01*
X8402033Y-75292403D02*
X8402033Y-75178117D01*
X8402033Y-75178117D02*
X8368700Y-75125141D01*
X8368700Y-75125141D02*
X8302033Y-75104903D01*
X8302033Y-75104903D02*
X8035366Y-75138236D01*
X8035366Y-75138236D02*
X7968700Y-75175141D01*
X7968700Y-75175141D02*
X7935366Y-75236450D01*
X7935366Y-75236450D02*
X7935366Y-75350736D01*
X7935366Y-75350736D02*
X7968700Y-75403712D01*
X7968700Y-75403712D02*
X8035366Y-75423950D01*
X8035366Y-75423950D02*
X8102033Y-75415617D01*
X8102033Y-75415617D02*
X8168700Y-75121569D01*
X7935366Y-75950736D02*
X8402033Y-75892403D01*
X7935366Y-75693593D02*
X8302033Y-75647760D01*
X8302033Y-75647760D02*
X8368700Y-75667998D01*
X8368700Y-75667998D02*
X8402033Y-75720974D01*
X8402033Y-75720974D02*
X8402033Y-75806689D01*
X8402033Y-75806689D02*
X8368700Y-75867998D01*
X8368700Y-75867998D02*
X8335366Y-75900736D01*
X8402033Y-76178117D02*
X7935366Y-76236450D01*
X8068700Y-76219784D02*
X8002033Y-76256688D01*
X8002033Y-76256688D02*
X7968700Y-76289427D01*
X7968700Y-76289427D02*
X7935366Y-76350736D01*
X7935366Y-76350736D02*
X7935366Y-76407879D01*
X8402033Y-76635260D02*
X8368700Y-76582284D01*
X8368700Y-76582284D02*
X8335366Y-76557879D01*
X8335366Y-76557879D02*
X8268700Y-76537641D01*
X8268700Y-76537641D02*
X8068700Y-76562641D01*
X8068700Y-76562641D02*
X8002033Y-76599546D01*
X8002033Y-76599546D02*
X7968700Y-76632284D01*
X7968700Y-76632284D02*
X7935366Y-76693594D01*
X7935366Y-76693594D02*
X7935366Y-76779308D01*
X7935366Y-76779308D02*
X7968700Y-76832284D01*
X7968700Y-76832284D02*
X8002033Y-76856689D01*
X8002033Y-76856689D02*
X8068700Y-76876927D01*
X8068700Y-76876927D02*
X8268700Y-76851927D01*
X8268700Y-76851927D02*
X8335366Y-76815022D01*
X8335366Y-76815022D02*
X8368700Y-76782284D01*
X8368700Y-76782284D02*
X8402033Y-76720975D01*
X8402033Y-76720975D02*
X8402033Y-76635260D01*
X8402033Y-77092403D02*
X7935366Y-77150736D01*
X8068700Y-77134070D02*
X8002033Y-77170974D01*
X8002033Y-77170974D02*
X7968700Y-77203713D01*
X7968700Y-77203713D02*
X7935366Y-77265022D01*
X7935366Y-77265022D02*
X7935366Y-77322165D01*
X8402033Y-77720975D02*
X8035366Y-77766808D01*
X8035366Y-77766808D02*
X7968700Y-77746570D01*
X7968700Y-77746570D02*
X7935366Y-77693594D01*
X7935366Y-77693594D02*
X7935366Y-77579308D01*
X7935366Y-77579308D02*
X7968700Y-77517999D01*
X8368700Y-77725142D02*
X8402033Y-77663832D01*
X8402033Y-77663832D02*
X8402033Y-77520975D01*
X8402033Y-77520975D02*
X8368700Y-77467999D01*
X8368700Y-77467999D02*
X8302033Y-77447761D01*
X8302033Y-77447761D02*
X8235366Y-77456094D01*
X8235366Y-77456094D02*
X8168700Y-77492999D01*
X8168700Y-77492999D02*
X8135366Y-77554308D01*
X8135366Y-77554308D02*
X8135366Y-77697165D01*
X8135366Y-77697165D02*
X8102033Y-77758475D01*
X8368700Y-78267999D02*
X8402033Y-78206689D01*
X8402033Y-78206689D02*
X8402033Y-78092403D01*
X8402033Y-78092403D02*
X8368700Y-78039427D01*
X8368700Y-78039427D02*
X8335366Y-78015022D01*
X8335366Y-78015022D02*
X8268700Y-77994784D01*
X8268700Y-77994784D02*
X8068700Y-78019784D01*
X8068700Y-78019784D02*
X8002033Y-78056689D01*
X8002033Y-78056689D02*
X7968700Y-78089427D01*
X7968700Y-78089427D02*
X7935366Y-78150737D01*
X7935366Y-78150737D02*
X7935366Y-78265022D01*
X7935366Y-78265022D02*
X7968700Y-78317999D01*
X8402033Y-78520975D02*
X7702033Y-78608475D01*
X8135366Y-78611451D02*
X8402033Y-78749546D01*
X7935366Y-78807880D02*
X8202033Y-78545975D01*
X8135366Y-79040022D02*
X8135366Y-79497165D01*
X7935366Y-79807879D02*
X8635366Y-79720379D01*
X7968700Y-79803713D02*
X7935366Y-79865022D01*
X7935366Y-79865022D02*
X7935366Y-79979308D01*
X7935366Y-79979308D02*
X7968700Y-80032284D01*
X7968700Y-80032284D02*
X8002033Y-80056689D01*
X8002033Y-80056689D02*
X8068700Y-80076927D01*
X8068700Y-80076927D02*
X8268700Y-80051927D01*
X8268700Y-80051927D02*
X8335366Y-80015022D01*
X8335366Y-80015022D02*
X8368700Y-79982284D01*
X8368700Y-79982284D02*
X8402033Y-79920975D01*
X8402033Y-79920975D02*
X8402033Y-79806689D01*
X8402033Y-79806689D02*
X8368700Y-79753713D01*
X8402033Y-80292403D02*
X7935366Y-80350736D01*
X8002033Y-80342403D02*
X7968700Y-80375141D01*
X7968700Y-80375141D02*
X7935366Y-80436451D01*
X7935366Y-80436451D02*
X7935366Y-80522165D01*
X7935366Y-80522165D02*
X7968700Y-80575141D01*
X7968700Y-80575141D02*
X8035366Y-80595379D01*
X8035366Y-80595379D02*
X8402033Y-80549546D01*
X8035366Y-80595379D02*
X7968700Y-80632284D01*
X7968700Y-80632284D02*
X7935366Y-80693593D01*
X7935366Y-80693593D02*
X7935366Y-80779308D01*
X7935366Y-80779308D02*
X7968700Y-80832284D01*
X7968700Y-80832284D02*
X8035366Y-80852522D01*
X8035366Y-80852522D02*
X8402033Y-80806689D01*
X8402033Y-81178117D02*
X8368700Y-81125141D01*
X8368700Y-81125141D02*
X8335366Y-81100736D01*
X8335366Y-81100736D02*
X8268700Y-81080498D01*
X8268700Y-81080498D02*
X8068700Y-81105498D01*
X8068700Y-81105498D02*
X8002033Y-81142403D01*
X8002033Y-81142403D02*
X7968700Y-81175141D01*
X7968700Y-81175141D02*
X7935366Y-81236451D01*
X7935366Y-81236451D02*
X7935366Y-81322165D01*
X7935366Y-81322165D02*
X7968700Y-81375141D01*
X7968700Y-81375141D02*
X8002033Y-81399546D01*
X8002033Y-81399546D02*
X8068700Y-81419784D01*
X8068700Y-81419784D02*
X8268700Y-81394784D01*
X8268700Y-81394784D02*
X8335366Y-81357879D01*
X8335366Y-81357879D02*
X8368700Y-81325141D01*
X8368700Y-81325141D02*
X8402033Y-81263832D01*
X8402033Y-81263832D02*
X8402033Y-81178117D01*
X8402033Y-81892403D02*
X7702033Y-81979903D01*
X8368700Y-81896570D02*
X8402033Y-81835260D01*
X8402033Y-81835260D02*
X8402033Y-81720974D01*
X8402033Y-81720974D02*
X8368700Y-81667998D01*
X8368700Y-81667998D02*
X8335366Y-81643593D01*
X8335366Y-81643593D02*
X8268700Y-81623355D01*
X8268700Y-81623355D02*
X8068700Y-81648355D01*
X8068700Y-81648355D02*
X8002033Y-81685260D01*
X8002033Y-81685260D02*
X7968700Y-81717998D01*
X7968700Y-81717998D02*
X7935366Y-81779308D01*
X7935366Y-81779308D02*
X7935366Y-81893593D01*
X7935366Y-81893593D02*
X7968700Y-81946570D01*
D18*
%TO.C,J10*%
X-18382000Y-88772626D03*
D19*
X-10482000Y-83572626D03*
D20*
X-11482000Y-86172626D03*
D19*
X-14182000Y-93372626D03*
D18*
X-7082000Y-92872626D03*
%TD*%
%TO.C,J5*%
X-18382000Y-19829771D03*
D19*
X-10482000Y-14629771D03*
D20*
X-11482000Y-17229771D03*
D19*
X-14182000Y-24429771D03*
D18*
X-7082000Y-23929771D03*
%TD*%
D21*
%TO.C,H2*%
X7350000Y-88833274D03*
X7833274Y-87666548D03*
X7833274Y-90000000D03*
X9000000Y-87183274D03*
D22*
X9000000Y-88833274D03*
D21*
X9000000Y-90483274D03*
X10166726Y-87666548D03*
X10166726Y-90000000D03*
X10650000Y-88833274D03*
%TD*%
%TO.C,H1*%
X7350000Y-23750000D03*
X7833274Y-22583274D03*
X7833274Y-24916726D03*
X9000000Y-22100000D03*
D22*
X9000000Y-23750000D03*
D21*
X9000000Y-25400000D03*
X10166726Y-22583274D03*
X10166726Y-24916726D03*
X10650000Y-23750000D03*
%TD*%
D23*
%TO.C,J1*%
X1240471Y-105975000D03*
D24*
X-1299529Y-105975000D03*
X1240471Y-103435000D03*
X-1299529Y-103435000D03*
X1240471Y-100895000D03*
X-1299529Y-100895000D03*
X1240471Y-98355000D03*
X-1299529Y-98355000D03*
X1240471Y-95815000D03*
X-1299529Y-95815000D03*
%TD*%
D18*
%TO.C,J9*%
X-18382000Y-74984055D03*
D19*
X-10482000Y-69784055D03*
D20*
X-11482000Y-72384055D03*
D19*
X-14182000Y-79584055D03*
D18*
X-7082000Y-79084055D03*
%TD*%
%TO.C,J11*%
X-18382000Y-102561200D03*
D19*
X-10482000Y-97361200D03*
D20*
X-11482000Y-99961200D03*
D19*
X-14182000Y-107161200D03*
D18*
X-7082000Y-106661200D03*
%TD*%
%TO.C,J7*%
X-18382000Y-47406913D03*
D19*
X-10482000Y-42206913D03*
D20*
X-11482000Y-44806913D03*
D19*
X-14182000Y-52006913D03*
D18*
X-7082000Y-51506913D03*
%TD*%
%TO.C,J4*%
X-18382000Y-6041200D03*
D19*
X-10482000Y-841200D03*
D20*
X-11482000Y-3441200D03*
D19*
X-14182000Y-10641200D03*
D18*
X-7082000Y-10141200D03*
%TD*%
%TO.C,J6*%
X-18382000Y-33618342D03*
D19*
X-10482000Y-28418342D03*
D20*
X-11482000Y-31018342D03*
D19*
X-14182000Y-38218342D03*
D18*
X-7082000Y-37718342D03*
%TD*%
%TO.C,J8*%
X-18382000Y-61195484D03*
D19*
X-10482000Y-55995484D03*
D20*
X-11482000Y-58595484D03*
D19*
X-14182000Y-65795484D03*
D18*
X-7082000Y-65295484D03*
%TD*%
D23*
%TO.C,J2*%
X2000000Y-16750000D03*
D24*
X-540000Y-16750000D03*
X2000000Y-14210000D03*
X-540000Y-14210000D03*
X2000000Y-11670000D03*
X-540000Y-11670000D03*
X2000000Y-9130000D03*
X-540000Y-9130000D03*
X2000000Y-6590000D03*
X-540000Y-6590000D03*
X2000000Y-4050000D03*
X-540000Y-4050000D03*
%TD*%
D25*
%TO.C,RV3*%
X-14201538Y-22659374D03*
X-12651538Y-22659374D03*
%TD*%
%TO.C,RV4*%
X-14201538Y-50242122D03*
X-12651538Y-50242122D03*
%TD*%
D26*
%TO.C,D33*%
X-15754000Y-74987186D03*
D27*
X-16004000Y-74987186D03*
X-16704000Y-74987186D03*
D26*
X-16954000Y-74987186D03*
%TD*%
%TO.C,D27*%
X-15754000Y-6042314D03*
D27*
X-16004000Y-6042314D03*
X-16704000Y-6042314D03*
D26*
X-16954000Y-6042314D03*
%TD*%
%TO.C,D34*%
X-15754000Y-102565135D03*
D27*
X-16004000Y-102565135D03*
X-16704000Y-102565135D03*
D26*
X-16954000Y-102565135D03*
%TD*%
D28*
%TO.C,R37*%
X-5504000Y-68868000D03*
X-5504000Y-67218000D03*
%TD*%
D25*
%TO.C,RV8*%
X-14201538Y-105407619D03*
X-12651538Y-105407619D03*
%TD*%
D29*
%TO.C,R40*%
X-8712623Y-104219372D03*
X-7062623Y-104219372D03*
%TD*%
D26*
%TO.C,D30*%
X-15754000Y-47409237D03*
D27*
X-16004000Y-47409237D03*
X-16704000Y-47409237D03*
D26*
X-16954000Y-47409237D03*
%TD*%
%TO.C,D29*%
X-15754000Y-19831288D03*
D27*
X-16004000Y-19831288D03*
X-16704000Y-19831288D03*
D26*
X-16954000Y-19831288D03*
%TD*%
%TO.C,D28*%
X-15754000Y-33620263D03*
D27*
X-16004000Y-33620263D03*
X-16704000Y-33620263D03*
D26*
X-16954000Y-33620263D03*
%TD*%
D30*
%TO.C,Q4*%
X-1941500Y-81668000D03*
X-1941500Y-79768000D03*
X-66500Y-80718000D03*
%TD*%
D31*
%TO.C,R38*%
X-5427375Y-89968000D03*
X-7077375Y-89968000D03*
%TD*%
D32*
%TO.C,J3*%
X-3654000Y-50000000D03*
X-3654000Y-50500000D03*
X-3654000Y-51000000D03*
X-3654000Y-51500000D03*
X-3654000Y-52000000D03*
X-3654000Y-52500000D03*
X-3654000Y-53000000D03*
X-3654000Y-53500000D03*
X-3654000Y-54000000D03*
X-3654000Y-54500000D03*
X-3654000Y-55000000D03*
X-3654000Y-55500000D03*
X-3654000Y-56000000D03*
X-3654000Y-56500000D03*
D33*
X-1754000Y-48050000D03*
X-1754000Y-58450000D03*
%TD*%
D25*
%TO.C,RV2*%
X-14201538Y-36450748D03*
X-12651538Y-36450748D03*
%TD*%
%TO.C,RV5*%
X-14201538Y-64033497D03*
X-12651538Y-64033497D03*
%TD*%
D30*
%TO.C,Q3*%
X-1941500Y-86668000D03*
X-1941500Y-84768000D03*
X-66499Y-85718000D03*
%TD*%
D25*
%TO.C,RV6*%
X-14201538Y-91616245D03*
X-12651538Y-91616245D03*
%TD*%
D26*
%TO.C,D31*%
X-15754000Y-61198212D03*
D27*
X-16004000Y-61198212D03*
X-16704000Y-61198212D03*
D26*
X-16954000Y-61198212D03*
%TD*%
D25*
%TO.C,RV1*%
X-14201538Y-8868000D03*
X-12651538Y-8868000D03*
%TD*%
D30*
%TO.C,Q2*%
X2808500Y-81668000D03*
X2808500Y-79768000D03*
X4683500Y-80718000D03*
%TD*%
%TO.C,Q5*%
X2808500Y-86668000D03*
X2808500Y-84768000D03*
X4683501Y-85718000D03*
%TD*%
D26*
%TO.C,D32*%
X-15754000Y-88776161D03*
D27*
X-16004000Y-88776161D03*
X-16704000Y-88776161D03*
D26*
X-16954000Y-88776161D03*
%TD*%
D31*
%TO.C,R39*%
X-5432342Y-81511818D03*
X-7082342Y-81511818D03*
%TD*%
D25*
%TO.C,RV7*%
X-14201538Y-77824871D03*
X-12651538Y-77824871D03*
%TD*%
%LPD*%
M02*
