M48
; DRILL file {KiCad 9.0.2} date 2025-06-25T16:15:56+0200
; FORMAT={-:-/ absolute / inch / decimal}
; #@! TF.CreationDate,2025-06-25T16:15:56+02:00
; #@! TF.GenerationSoftware,Kicad,Pcbnew,9.0.2
; #@! TF.FileFunction,Plated,1,6,PTH
FMAT,2
INCH
; #@! TA.AperFunction,Plated,PTH,ViaDrill
T1C0.0118
; #@! TA.AperFunction,Plated,PTH,ComponentDrill
T2C0.0118
; #@! TA.AperFunction,Plated,PTH,ViaDrill
T3C0.0157
; #@! TA.AperFunction,Plated,PTH,ComponentDrill
T4C0.0157
; #@! TA.AperFunction,Plated,PTH,ComponentDrill
T5C0.0197
; #@! TA.AperFunction,Plated,PTH,ComponentDrill
T6C0.0315
; #@! TA.AperFunction,Plated,PTH,ComponentDrill
T7C0.0394
; #@! TA.AperFunction,Plated,PTH,ComponentDrill
T8C0.0866
%
G90
G05
T1
X-0.764Y-1.64
X-0.762Y-2.732
X-0.756Y-0.554
X-0.75Y-1.93
X-0.7462Y-4.3058
X-0.746Y-1.1
X-0.742Y-3.812
X-0.74Y-1.53
X-0.74Y-2.23
X-0.74Y-3.62
X-0.7383Y-2.6169
X-0.73Y-1.96
X-0.73Y-2.01
X-0.722Y-0.982
X-0.72Y-2.07
X-0.72Y-2.49
X-0.72Y-2.57
X-0.72Y-4.24
X-0.7187Y-2.7113
X-0.71Y-2.17
X-0.7Y-2.55
X-0.7Y-3.8
X-0.699Y-0.4515
X-0.6954Y-3.7448
X-0.6911Y-2.6917
X-0.6911Y-3.1917
X-0.6911Y-3.231
X-0.69Y-1.5812
X-0.69Y-4.27
X-0.6883Y-0.5117
X-0.68Y-1.02
X-0.68Y-1.06
X-0.6769Y-3.6877
X-0.67Y-0.56
X-0.66Y-4.294
X-0.6574Y-3.0843
X-0.6572Y-0.4375
X-0.6553Y-3.6667
X-0.6509Y-2.9209
X-0.6404Y-2.6134
X-0.64Y-2.74
X-0.6356Y-1.5109
X-0.6349Y-1.65
X-0.63Y-0.442
X-0.63Y-2.47
X-0.63Y-2.55
X-0.63Y-3.59
X-0.6202Y-2.046
X-0.6194Y-2.5955
X-0.614Y-1.528
X-0.6104Y-1.6917
X-0.61Y-2.57
X-0.602Y-3.716
X-0.6Y-2.45
X-0.59Y-0.54
X-0.59Y-1.04
X-0.59Y-1.4
X-0.59Y-2.15
X-0.59Y-2.83
X-0.5858Y-3.0125
X-0.58Y-2.74
X-0.5709Y-1.62
X-0.57Y-2.42
X-0.5584Y-3.746
X-0.5503Y-1.5599
X-0.538Y-2.666
X-0.532Y-3.82
X-0.52Y-0.57
X-0.51Y-0.83
X-0.48Y-0.76
X-0.48Y-2.4
X-0.4798Y-2.5702
X-0.47Y-0.79
X-0.46Y-1.87
X-0.46Y-3.13
X-0.45Y-0.98
X-0.45Y-1.4
X-0.43Y-2.99
X-0.42Y-1.01
X-0.41Y-0.76
X-0.41Y-2.38
X-0.41Y-2.48
X-0.4Y-0.79
X-0.4Y-0.93
X-0.4Y-2.65
X-0.4Y-3.07
X-0.39Y-2.4
X-0.38Y-0.95
X-0.38Y-1.61
X-0.37Y-1.97
X-0.37Y-1.9
X-0.3571Y-1.6214
X-0.35Y-2.86
X-0.34Y-2.55
X-0.33Y-2.59
X-0.31Y-1.93
X-0.31Y-2.21
X-0.31Y-2.63
X-0.31Y-2.92
X-0.3Y-2.14
X-0.29Y-1.01
X-0.2829Y-2.4786
X-0.28Y-2.12
X-0.28Y-2.39
X-0.27Y-2.65
X-0.26Y-2.42
X-0.26Y-2.49
X-0.2536Y-2.2074
X-0.25Y-2.35
X-0.24Y-2.11
X-0.24Y-2.31
X-0.2364Y-2.5184
X-0.2267Y-2.1964
X-0.2265Y-2.42
X-0.2262Y-2.3805
X-0.2259Y-2.2418
X-0.22Y-2.08
X-0.2108Y-2.8688
X-0.21Y-0.2
X-0.21Y-2.05
X-0.208Y-2.1405
X-0.2Y-1.69
X-0.2Y-1.75
X-0.197Y-1.3865
X-0.19Y-1.44
X-0.19Y-2.6
X-0.19Y-3.26
X-0.19Y-3.58
X-0.18Y-1.05
X-0.1761Y-2.3271
X-0.16Y-1.31
X-0.1596Y-2.8294
X-0.15Y-0.09
X-0.15Y-3.04
X-0.13Y-0.77
X-0.13Y-2.72
X-0.1194Y-1.4406
X-0.11Y-1.77
X-0.1084Y-2.8413
X-0.1Y-0.84
X-0.1Y-2.73
X-0.09Y-0.19
X-0.09Y-0.91
X-0.09Y-2.1
X-0.0887Y-2.0657
X-0.0848Y-2.8137
X-0.0825Y-2.1336
X-0.08Y-0.63
X-0.08Y-2.16
X-0.08Y-2.71
X-0.07Y-1.77
X-0.07Y-3.03
X-0.06Y-3.57
X-0.0572Y-2.8413
X-0.05Y-2.72
X-0.04Y-1.65
X-0.03Y-0.85
X-0.03Y-2.04
X-0.03Y-3.58
X-0.02Y-1.29
X-0.0179Y-2.8413
X-0.0125Y-3.1483
X-0.0125Y-3.4731
X-0.01Y-2.61
X-0.01Y-2.78
X-0.01Y-3.04
X-0.0021Y-2.9397
X0.0Y-0.75
X0.0Y-1.24
X0.0Y-2.06
X0.0Y-2.1
X0.0097Y-1.6129
X0.0097Y-2.9791
X0.02Y-2.61
X0.03Y-2.1
X0.04Y-0.93
X0.04Y-1.38
X0.04Y-1.88
X0.04Y-3.04
X0.0465Y-3.1483
X0.0465Y-3.4731
X0.0471Y-1.7405
X0.0491Y-1.8098
X0.06Y-2.26
X0.07Y-0.75
X0.07Y-2.78
X0.07Y-3.03
X0.07Y-3.3
X0.07Y-3.58
X0.08Y-0.84
X0.08Y-2.74
X0.0857Y-2.2771
X0.09Y-2.22
X0.1Y-1.33
X0.1Y-2.72
X0.11Y-1.38
X0.11Y-3.03
X0.12Y-1.25
X0.12Y-2.25
X0.1278Y-2.3019
X0.1278Y-2.9613
X0.13Y-2.83
X0.15Y-2.51
X0.15Y-3.03
X0.15Y-3.62
X0.16Y-2.83
X0.1672Y-1.4653
X0.19Y-0.93
X0.2Y-1.05
X0.21Y-1.34
X0.21Y-3.3
X0.23Y-3.17
X0.23Y-3.56
X0.24Y-0.93
X0.24Y-1.76
X0.24Y-1.98
X0.24Y-2.26
X0.25Y-1.34
X0.2557Y-2.6365
X0.26Y-1.43
X0.2656Y-3.0401
X0.27Y-2.01
X0.27Y-2.4
X0.3Y-2.04
X0.3Y-3.19
X0.31Y-1.33
X0.32Y-2.2
X0.3298Y-2.5287
X0.33Y-2.07
X0.34Y-2.18
X0.36Y-2.16
X0.37Y-1.32
X0.37Y-1.6
X0.37Y-3.27
X0.3852Y-2.6727
X0.4Y-3.24
X0.42Y-1.07
X0.42Y-1.14
X0.42Y-1.28
X0.42Y-1.21
X0.4428Y-2.8432
T2
X0.1455Y-2.1235
X0.1734Y-2.0956
X0.1734Y-2.1513
X0.2012Y-2.0678
X0.2012Y-2.1235
X0.2012Y-2.1792
X0.2291Y-2.0956
X0.2291Y-2.1513
X0.2569Y-2.1235
T3
X-0.7187Y-0.0578
X-0.7187Y-0.0972
X-0.7187Y-1.1602
X-0.7187Y-1.1995
X-0.7187Y-4.1523
X-0.7187Y-4.1917
X-0.6793Y-0.0578
X-0.6399Y-0.0578
X-0.6006Y-0.0578
X-0.6006Y-4.2704
X-0.5907Y-1.7704
X-0.5612Y-0.0578
X-0.5612Y-3.3255
X-0.5612Y-3.3649
X-0.5612Y-3.4043
X-0.5612Y-3.4436
X-0.5612Y-3.483
X-0.5612Y-4.0342
X-0.5612Y-4.2704
X-0.5218Y-4.0342
X-0.5218Y-4.2704
X-0.4824Y-4.0342
X-0.4824Y-4.2704
X-0.4431Y-1.5145
X-0.4431Y-1.5539
X-0.4431Y-3.5617
X-0.4431Y-4.0342
X-0.4431Y-4.2704
X-0.4037Y-1.2783
X-0.4037Y-1.3176
X-0.4037Y-1.357
X-0.4037Y-1.4751
X-0.4037Y-1.5145
X-0.4037Y-1.5539
X-0.4037Y-3.5224
X-0.4037Y-4.2704
X-0.3643Y-3.483
X-0.3643Y-4.2704
X-0.325Y-3.4436
X-0.2856Y-0.0578
X-0.2856Y-0.0972
X-0.2856Y-0.1365
X-0.2856Y-0.1759
X-0.2856Y-1.1995
X-0.2856Y-1.2389
X-0.2856Y-1.2783
X-0.2462Y-3.9357
X-0.2451Y-4.001
X-0.2399Y-1.8699
X-0.2138Y-1.1029
X-0.2069Y-0.3728
X-0.2069Y-0.4121
X-0.2069Y-0.4515
X-0.2069Y-0.4909
X-0.2069Y-0.5302
X-0.2069Y-0.5696
X-0.2069Y-0.609
X-0.2069Y-0.6483
X-0.2069Y-1.3176
X-0.2069Y-3.4043
X-0.1675Y-0.5696
X-0.1675Y-0.609
X-0.1675Y-0.6483
X-0.1673Y-1.9054
X-0.1281Y-0.8846
X-0.1281Y-1.5932
X-0.1281Y-3.2861
X-0.09Y-1.07
X-0.0887Y-1.5932
X-0.0494Y-1.5932
X0.0786Y-2.42
X0.08Y-1.06
X0.08Y-1.13
X0.0884Y-2.3216
X0.1278Y-2.4791
X0.1869Y-0.7665
X0.2262Y-1.5539
X0.2262Y-1.6326
X0.2262Y-2.4594
X0.2656Y-2.4397
X0.2656Y-2.8137
X0.2656Y-2.8531
X0.2754Y-1.5735
X0.2759Y-1.7585
X0.29Y-3.39
X0.3246Y-1.8098
X0.3837Y-2.105
X0.41Y-1.77
X0.41Y-3.11
X0.4407Y-1.87
T4
X0.2894Y-0.935
X0.2894Y-3.4974
X0.3084Y-0.8891
X0.3084Y-0.981
X0.3084Y-3.4514
X0.3084Y-3.5433
X0.3543Y-0.8701
X0.3543Y-1.0
X0.3543Y-3.4324
X0.3543Y-3.5623
X0.4003Y-0.8891
X0.4003Y-0.981
X0.4003Y-3.4514
X0.4003Y-3.5433
X0.4193Y-0.935
X0.4193Y-3.4974
T7
X-0.0512Y-3.7722
X-0.0512Y-3.8722
X-0.0512Y-3.9722
X-0.0512Y-4.0722
X-0.0512Y-4.1722
X-0.0213Y-0.1594
X-0.0213Y-0.2594
X-0.0213Y-0.3594
X-0.0213Y-0.4594
X-0.0213Y-0.5594
X-0.0213Y-0.6594
X0.0488Y-3.7722
X0.0488Y-3.8722
X0.0488Y-3.9722
X0.0488Y-4.0722
X0.0488Y-4.1722
X0.0787Y-0.1594
X0.0787Y-0.2594
X0.0787Y-0.3594
X0.0787Y-0.4594
X0.0787Y-0.5594
X0.0787Y-0.6594
T8
X0.3543Y-0.935
X0.3543Y-3.4974
T5
G00X-0.578Y-0.4189
M15
G01X-0.5387Y-0.4189
M16
G05
G00X-0.578Y-0.9618
M15
G01X-0.5387Y-0.9618
M16
G05
G00X-0.578Y-1.5047
M15
G01X-0.5387Y-1.5047
M16
G05
G00X-0.578Y-2.0475
M15
G01X-0.5387Y-2.0475
M16
G05
G00X-0.578Y-2.5904
M15
G01X-0.5387Y-2.5904
M16
G05
G00X-0.578Y-3.1332
M15
G01X-0.5387Y-3.1332
M16
G05
G00X-0.578Y-3.6761
M15
G01X-0.5387Y-3.6761
M16
G05
G00X-0.578Y-4.2189
M15
G01X-0.5387Y-4.2189
M16
G05
G00X-0.4324Y-0.0331
M15
G01X-0.393Y-0.0331
M16
G05
G00X-0.4324Y-0.576
M15
G01X-0.393Y-0.576
M16
G05
G00X-0.4324Y-1.1188
M15
G01X-0.393Y-1.1188
M16
G05
G00X-0.4324Y-1.6617
M15
G01X-0.393Y-1.6617
M16
G05
G00X-0.4324Y-2.2045
M15
G01X-0.393Y-2.2045
M16
G05
G00X-0.4324Y-2.7474
M15
G01X-0.393Y-2.7474
M16
G05
G00X-0.4324Y-3.2903
M15
G01X-0.393Y-3.2903
M16
G05
G00X-0.4324Y-3.8331
M15
G01X-0.393Y-3.8331
M16
G05
T6
G00X-0.7237Y-0.2516
M15
G01X-0.7237Y-0.2241
M16
G05
G00X-0.7237Y-0.7945
M15
G01X-0.7237Y-0.7669
M16
G05
G00X-0.7237Y-1.3373
M15
G01X-0.7237Y-1.3098
M16
G05
G00X-0.7237Y-1.8802
M15
G01X-0.7237Y-1.8526
M16
G05
G00X-0.7237Y-2.4231
M15
G01X-0.7237Y-2.3955
M16
G05
G00X-0.7237Y-2.9659
M15
G01X-0.7237Y-2.9383
M16
G05
G00X-0.7237Y-3.5088
M15
G01X-0.7237Y-3.4812
M16
G05
G00X-0.7237Y-4.0516
M15
G01X-0.7237Y-4.0241
M16
G05
G00X-0.4658Y-0.1355
M15
G01X-0.4383Y-0.1355
M16
G05
G00X-0.4658Y-0.6783
M15
G01X-0.4383Y-0.6783
M16
G05
G00X-0.4658Y-1.2212
M15
G01X-0.4383Y-1.2212
M16
G05
G00X-0.4658Y-1.7641
M15
G01X-0.4383Y-1.7641
M16
G05
G00X-0.4658Y-2.3069
M15
G01X-0.4383Y-2.3069
M16
G05
G00X-0.4658Y-2.8498
M15
G01X-0.4383Y-2.8498
M16
G05
G00X-0.4658Y-3.3926
M15
G01X-0.4383Y-3.3926
M16
G05
G00X-0.4658Y-3.9355
M15
G01X-0.4383Y-3.9355
M16
G05
G00X-0.2788Y-0.413
M15
G01X-0.2788Y-0.3855
M16
G05
G00X-0.2788Y-0.9559
M15
G01X-0.2788Y-0.9283
M16
G05
G00X-0.2788Y-1.4988
M15
G01X-0.2788Y-1.4712
M16
G05
G00X-0.2788Y-2.0416
M15
G01X-0.2788Y-2.0141
M16
G05
G00X-0.2788Y-2.5845
M15
G01X-0.2788Y-2.5569
M16
G05
G00X-0.2788Y-3.1273
M15
G01X-0.2788Y-3.0998
M16
G05
G00X-0.2788Y-3.6702
M15
G01X-0.2788Y-3.6426
M16
G05
G00X-0.2788Y-4.213
M15
G01X-0.2788Y-4.1855
M16
G05
M30
