%TF.GenerationSoftware,KiCad,Pcbnew,9.0.2*%
%TF.CreationDate,2025-05-30T14:59:29+02:00*%
%TF.ProjectId,eurorack-pmod-pcb,6575726f-7261-4636-9b2d-706d6f642d70,rev?*%
%TF.SameCoordinates,Original*%
%TF.FileFunction,Soldermask,Bot*%
%TF.FilePolarity,Negative*%
%FSLAX46Y46*%
G04 Gerber Fmt 4.6, Leading zero omitted, Abs format (unit mm)*
G04 Created by KiCad (PCBNEW 9.0.2) date 2025-05-30 14:59:29*
%MOMM*%
%LPD*%
G01*
G04 APERTURE LIST*
G04 Aperture macros list*
%AMRoundRect*
0 Rectangle with rounded corners*
0 $1 Rounding radius*
0 $2 $3 $4 $5 $6 $7 $8 $9 X,Y pos of 4 corners*
0 Add a 4 corners polygon primitive as box body*
4,1,4,$2,$3,$4,$5,$6,$7,$8,$9,$2,$3,0*
0 Add four circle primitives for the rounded corners*
1,1,$1+$1,$2,$3*
1,1,$1+$1,$4,$5*
1,1,$1+$1,$6,$7*
1,1,$1+$1,$8,$9*
0 Add four rect primitives between the rounded corners*
20,1,$1+$1,$2,$3,$4,$5,0*
20,1,$1+$1,$4,$5,$6,$7,0*
20,1,$1+$1,$6,$7,$8,$9,0*
20,1,$1+$1,$8,$9,$2,$3,0*%
G04 Aperture macros list end*
%ADD10C,0.150000*%
%ADD11O,1.308000X2.616000*%
%ADD12O,2.016000X1.008000*%
%ADD13O,2.616000X1.308000*%
%ADD14C,0.700000*%
%ADD15C,4.400000*%
%ADD16R,1.700000X1.700000*%
%ADD17O,1.700000X1.700000*%
%ADD18RoundRect,0.225000X-0.225000X-0.250000X0.225000X-0.250000X0.225000X0.250000X-0.225000X0.250000X0*%
%ADD19R,0.200000X0.300000*%
%ADD20R,0.300000X0.500000*%
%ADD21RoundRect,0.200000X0.275000X-0.200000X0.275000X0.200000X-0.275000X0.200000X-0.275000X-0.200000X0*%
%ADD22RoundRect,0.200000X-0.200000X-0.275000X0.200000X-0.275000X0.200000X0.275000X-0.200000X0.275000X0*%
%ADD23RoundRect,0.150000X-0.587500X-0.150000X0.587500X-0.150000X0.587500X0.150000X-0.587500X0.150000X0*%
%ADD24RoundRect,0.200000X0.200000X0.275000X-0.200000X0.275000X-0.200000X-0.275000X0.200000X-0.275000X0*%
%ADD25R,1.800000X0.300000*%
%ADD26R,3.200000X2.500000*%
G04 APERTURE END LIST*
D10*
X7935366Y-65350739D02*
X8502033Y-65279906D01*
X8502033Y-65279906D02*
X8568700Y-65243001D01*
X8568700Y-65243001D02*
X8602033Y-65210263D01*
X8602033Y-65210263D02*
X8635366Y-65148953D01*
X8635366Y-65148953D02*
X8635366Y-65063239D01*
X8635366Y-65063239D02*
X8602033Y-65010263D01*
X8368700Y-65296573D02*
X8402033Y-65235263D01*
X8402033Y-65235263D02*
X8402033Y-65120977D01*
X8402033Y-65120977D02*
X8368700Y-65068001D01*
X8368700Y-65068001D02*
X8335366Y-65043596D01*
X8335366Y-65043596D02*
X8268700Y-65023358D01*
X8268700Y-65023358D02*
X8068700Y-65048358D01*
X8068700Y-65048358D02*
X8002033Y-65085263D01*
X8002033Y-65085263D02*
X7968700Y-65118001D01*
X7968700Y-65118001D02*
X7935366Y-65179311D01*
X7935366Y-65179311D02*
X7935366Y-65293596D01*
X7935366Y-65293596D02*
X7968700Y-65346573D01*
X8402033Y-65578120D02*
X7935366Y-65636453D01*
X7702033Y-65665620D02*
X7735366Y-65632882D01*
X7735366Y-65632882D02*
X7768700Y-65657287D01*
X7768700Y-65657287D02*
X7735366Y-65690025D01*
X7735366Y-65690025D02*
X7702033Y-65665620D01*
X7702033Y-65665620D02*
X7768700Y-65657287D01*
X7935366Y-65836453D02*
X7935366Y-66065024D01*
X7702033Y-65951334D02*
X8302033Y-65876334D01*
X8302033Y-65876334D02*
X8368700Y-65896572D01*
X8368700Y-65896572D02*
X8402033Y-65949548D01*
X8402033Y-65949548D02*
X8402033Y-66006691D01*
X8402033Y-66206691D02*
X7702033Y-66294191D01*
X8402033Y-66463834D02*
X8035366Y-66509667D01*
X8035366Y-66509667D02*
X7968700Y-66489429D01*
X7968700Y-66489429D02*
X7935366Y-66436453D01*
X7935366Y-66436453D02*
X7935366Y-66350739D01*
X7935366Y-66350739D02*
X7968700Y-66289429D01*
X7968700Y-66289429D02*
X8002033Y-66256691D01*
X7935366Y-67065024D02*
X8402033Y-67006691D01*
X7935366Y-66807881D02*
X8302033Y-66762048D01*
X8302033Y-66762048D02*
X8368700Y-66782286D01*
X8368700Y-66782286D02*
X8402033Y-66835262D01*
X8402033Y-66835262D02*
X8402033Y-66920977D01*
X8402033Y-66920977D02*
X8368700Y-66982286D01*
X8368700Y-66982286D02*
X8335366Y-67015024D01*
X8402033Y-67292405D02*
X7702033Y-67379905D01*
X7968700Y-67346572D02*
X7935366Y-67407881D01*
X7935366Y-67407881D02*
X7935366Y-67522167D01*
X7935366Y-67522167D02*
X7968700Y-67575143D01*
X7968700Y-67575143D02*
X8002033Y-67599548D01*
X8002033Y-67599548D02*
X8068700Y-67619786D01*
X8068700Y-67619786D02*
X8268700Y-67594786D01*
X8268700Y-67594786D02*
X8335366Y-67557881D01*
X8335366Y-67557881D02*
X8368700Y-67525143D01*
X8368700Y-67525143D02*
X8402033Y-67463834D01*
X8402033Y-67463834D02*
X8402033Y-67349548D01*
X8402033Y-67349548D02*
X8368700Y-67296572D01*
X8335366Y-67843595D02*
X8368700Y-67868000D01*
X8368700Y-67868000D02*
X8402033Y-67835262D01*
X8402033Y-67835262D02*
X8368700Y-67810857D01*
X8368700Y-67810857D02*
X8335366Y-67843595D01*
X8335366Y-67843595D02*
X8402033Y-67835262D01*
X8368700Y-68382286D02*
X8402033Y-68320976D01*
X8402033Y-68320976D02*
X8402033Y-68206690D01*
X8402033Y-68206690D02*
X8368700Y-68153714D01*
X8368700Y-68153714D02*
X8335366Y-68129309D01*
X8335366Y-68129309D02*
X8268700Y-68109071D01*
X8268700Y-68109071D02*
X8068700Y-68134071D01*
X8068700Y-68134071D02*
X8002033Y-68170976D01*
X8002033Y-68170976D02*
X7968700Y-68203714D01*
X7968700Y-68203714D02*
X7935366Y-68265024D01*
X7935366Y-68265024D02*
X7935366Y-68379309D01*
X7935366Y-68379309D02*
X7968700Y-68432286D01*
X8402033Y-68720976D02*
X8368700Y-68668000D01*
X8368700Y-68668000D02*
X8335366Y-68643595D01*
X8335366Y-68643595D02*
X8268700Y-68623357D01*
X8268700Y-68623357D02*
X8068700Y-68648357D01*
X8068700Y-68648357D02*
X8002033Y-68685262D01*
X8002033Y-68685262D02*
X7968700Y-68718000D01*
X7968700Y-68718000D02*
X7935366Y-68779310D01*
X7935366Y-68779310D02*
X7935366Y-68865024D01*
X7935366Y-68865024D02*
X7968700Y-68918000D01*
X7968700Y-68918000D02*
X8002033Y-68942405D01*
X8002033Y-68942405D02*
X8068700Y-68962643D01*
X8068700Y-68962643D02*
X8268700Y-68937643D01*
X8268700Y-68937643D02*
X8335366Y-68900738D01*
X8335366Y-68900738D02*
X8368700Y-68868000D01*
X8368700Y-68868000D02*
X8402033Y-68806691D01*
X8402033Y-68806691D02*
X8402033Y-68720976D01*
X8402033Y-69178119D02*
X7935366Y-69236452D01*
X8002033Y-69228119D02*
X7968700Y-69260857D01*
X7968700Y-69260857D02*
X7935366Y-69322167D01*
X7935366Y-69322167D02*
X7935366Y-69407881D01*
X7935366Y-69407881D02*
X7968700Y-69460857D01*
X7968700Y-69460857D02*
X8035366Y-69481095D01*
X8035366Y-69481095D02*
X8402033Y-69435262D01*
X8035366Y-69481095D02*
X7968700Y-69518000D01*
X7968700Y-69518000D02*
X7935366Y-69579309D01*
X7935366Y-69579309D02*
X7935366Y-69665024D01*
X7935366Y-69665024D02*
X7968700Y-69718000D01*
X7968700Y-69718000D02*
X8035366Y-69738238D01*
X8035366Y-69738238D02*
X8402033Y-69692405D01*
X7668700Y-70498357D02*
X8568700Y-69871571D01*
X8402033Y-70863833D02*
X8035366Y-70909666D01*
X8035366Y-70909666D02*
X7968700Y-70889428D01*
X7968700Y-70889428D02*
X7935366Y-70836452D01*
X7935366Y-70836452D02*
X7935366Y-70722166D01*
X7935366Y-70722166D02*
X7968700Y-70660857D01*
X8368700Y-70868000D02*
X8402033Y-70806690D01*
X8402033Y-70806690D02*
X8402033Y-70663833D01*
X8402033Y-70663833D02*
X8368700Y-70610857D01*
X8368700Y-70610857D02*
X8302033Y-70590619D01*
X8302033Y-70590619D02*
X8235366Y-70598952D01*
X8235366Y-70598952D02*
X8168700Y-70635857D01*
X8168700Y-70635857D02*
X8135366Y-70697166D01*
X8135366Y-70697166D02*
X8135366Y-70840023D01*
X8135366Y-70840023D02*
X8102033Y-70901333D01*
X7935366Y-71207880D02*
X8635366Y-71120380D01*
X7968700Y-71203714D02*
X7935366Y-71265023D01*
X7935366Y-71265023D02*
X7935366Y-71379309D01*
X7935366Y-71379309D02*
X7968700Y-71432285D01*
X7968700Y-71432285D02*
X8002033Y-71456690D01*
X8002033Y-71456690D02*
X8068700Y-71476928D01*
X8068700Y-71476928D02*
X8268700Y-71451928D01*
X8268700Y-71451928D02*
X8335366Y-71415023D01*
X8335366Y-71415023D02*
X8368700Y-71382285D01*
X8368700Y-71382285D02*
X8402033Y-71320976D01*
X8402033Y-71320976D02*
X8402033Y-71206690D01*
X8402033Y-71206690D02*
X8368700Y-71153714D01*
X7935366Y-71665023D02*
X7935366Y-71893594D01*
X8402033Y-71692404D02*
X7802033Y-71767404D01*
X7802033Y-71767404D02*
X7735366Y-71804309D01*
X7735366Y-71804309D02*
X7702033Y-71865618D01*
X7702033Y-71865618D02*
X7702033Y-71922761D01*
X8402033Y-72292404D02*
X8035366Y-72338237D01*
X8035366Y-72338237D02*
X7968700Y-72317999D01*
X7968700Y-72317999D02*
X7935366Y-72265023D01*
X7935366Y-72265023D02*
X7935366Y-72150737D01*
X7935366Y-72150737D02*
X7968700Y-72089428D01*
X8368700Y-72296571D02*
X8402033Y-72235261D01*
X8402033Y-72235261D02*
X8402033Y-72092404D01*
X8402033Y-72092404D02*
X8368700Y-72039428D01*
X8368700Y-72039428D02*
X8302033Y-72019190D01*
X8302033Y-72019190D02*
X8235366Y-72027523D01*
X8235366Y-72027523D02*
X8168700Y-72064428D01*
X8168700Y-72064428D02*
X8135366Y-72125737D01*
X8135366Y-72125737D02*
X8135366Y-72268594D01*
X8135366Y-72268594D02*
X8102033Y-72329904D01*
X7935366Y-72893594D02*
X8402033Y-72835261D01*
X7935366Y-72636451D02*
X8302033Y-72590618D01*
X8302033Y-72590618D02*
X8368700Y-72610856D01*
X8368700Y-72610856D02*
X8402033Y-72663832D01*
X8402033Y-72663832D02*
X8402033Y-72749547D01*
X8402033Y-72749547D02*
X8368700Y-72810856D01*
X8368700Y-72810856D02*
X8335366Y-72843594D01*
X8402033Y-73378118D02*
X7702033Y-73465618D01*
X8368700Y-73382285D02*
X8402033Y-73320975D01*
X8402033Y-73320975D02*
X8402033Y-73206689D01*
X8402033Y-73206689D02*
X8368700Y-73153713D01*
X8368700Y-73153713D02*
X8335366Y-73129308D01*
X8335366Y-73129308D02*
X8268700Y-73109070D01*
X8268700Y-73109070D02*
X8068700Y-73134070D01*
X8068700Y-73134070D02*
X8002033Y-73170975D01*
X8002033Y-73170975D02*
X7968700Y-73203713D01*
X7968700Y-73203713D02*
X7935366Y-73265023D01*
X7935366Y-73265023D02*
X7935366Y-73379308D01*
X7935366Y-73379308D02*
X7968700Y-73432285D01*
X8402033Y-73663832D02*
X7935366Y-73722165D01*
X7702033Y-73751332D02*
X7735366Y-73718594D01*
X7735366Y-73718594D02*
X7768700Y-73742999D01*
X7768700Y-73742999D02*
X7735366Y-73775737D01*
X7735366Y-73775737D02*
X7702033Y-73751332D01*
X7702033Y-73751332D02*
X7768700Y-73742999D01*
X8402033Y-74035260D02*
X8368700Y-73982284D01*
X8368700Y-73982284D02*
X8335366Y-73957879D01*
X8335366Y-73957879D02*
X8268700Y-73937641D01*
X8268700Y-73937641D02*
X8068700Y-73962641D01*
X8068700Y-73962641D02*
X8002033Y-73999546D01*
X8002033Y-73999546D02*
X7968700Y-74032284D01*
X7968700Y-74032284D02*
X7935366Y-74093594D01*
X7935366Y-74093594D02*
X7935366Y-74179308D01*
X7935366Y-74179308D02*
X7968700Y-74232284D01*
X7968700Y-74232284D02*
X8002033Y-74256689D01*
X8002033Y-74256689D02*
X8068700Y-74276927D01*
X8068700Y-74276927D02*
X8268700Y-74251927D01*
X8268700Y-74251927D02*
X8335366Y-74215022D01*
X8335366Y-74215022D02*
X8368700Y-74182284D01*
X8368700Y-74182284D02*
X8402033Y-74120975D01*
X8402033Y-74120975D02*
X8402033Y-74035260D01*
X7668700Y-75012641D02*
X8568700Y-74385855D01*
X8368700Y-75353712D02*
X8402033Y-75292403D01*
X8402033Y-75292403D02*
X8402033Y-75178117D01*
X8402033Y-75178117D02*
X8368700Y-75125141D01*
X8368700Y-75125141D02*
X8302033Y-75104903D01*
X8302033Y-75104903D02*
X8035366Y-75138236D01*
X8035366Y-75138236D02*
X7968700Y-75175141D01*
X7968700Y-75175141D02*
X7935366Y-75236450D01*
X7935366Y-75236450D02*
X7935366Y-75350736D01*
X7935366Y-75350736D02*
X7968700Y-75403712D01*
X7968700Y-75403712D02*
X8035366Y-75423950D01*
X8035366Y-75423950D02*
X8102033Y-75415617D01*
X8102033Y-75415617D02*
X8168700Y-75121569D01*
X7935366Y-75950736D02*
X8402033Y-75892403D01*
X7935366Y-75693593D02*
X8302033Y-75647760D01*
X8302033Y-75647760D02*
X8368700Y-75667998D01*
X8368700Y-75667998D02*
X8402033Y-75720974D01*
X8402033Y-75720974D02*
X8402033Y-75806689D01*
X8402033Y-75806689D02*
X8368700Y-75867998D01*
X8368700Y-75867998D02*
X8335366Y-75900736D01*
X8402033Y-76178117D02*
X7935366Y-76236450D01*
X8068700Y-76219784D02*
X8002033Y-76256688D01*
X8002033Y-76256688D02*
X7968700Y-76289427D01*
X7968700Y-76289427D02*
X7935366Y-76350736D01*
X7935366Y-76350736D02*
X7935366Y-76407879D01*
X8402033Y-76635260D02*
X8368700Y-76582284D01*
X8368700Y-76582284D02*
X8335366Y-76557879D01*
X8335366Y-76557879D02*
X8268700Y-76537641D01*
X8268700Y-76537641D02*
X8068700Y-76562641D01*
X8068700Y-76562641D02*
X8002033Y-76599546D01*
X8002033Y-76599546D02*
X7968700Y-76632284D01*
X7968700Y-76632284D02*
X7935366Y-76693594D01*
X7935366Y-76693594D02*
X7935366Y-76779308D01*
X7935366Y-76779308D02*
X7968700Y-76832284D01*
X7968700Y-76832284D02*
X8002033Y-76856689D01*
X8002033Y-76856689D02*
X8068700Y-76876927D01*
X8068700Y-76876927D02*
X8268700Y-76851927D01*
X8268700Y-76851927D02*
X8335366Y-76815022D01*
X8335366Y-76815022D02*
X8368700Y-76782284D01*
X8368700Y-76782284D02*
X8402033Y-76720975D01*
X8402033Y-76720975D02*
X8402033Y-76635260D01*
X8402033Y-77092403D02*
X7935366Y-77150736D01*
X8068700Y-77134070D02*
X8002033Y-77170974D01*
X8002033Y-77170974D02*
X7968700Y-77203713D01*
X7968700Y-77203713D02*
X7935366Y-77265022D01*
X7935366Y-77265022D02*
X7935366Y-77322165D01*
X8402033Y-77720975D02*
X8035366Y-77766808D01*
X8035366Y-77766808D02*
X7968700Y-77746570D01*
X7968700Y-77746570D02*
X7935366Y-77693594D01*
X7935366Y-77693594D02*
X7935366Y-77579308D01*
X7935366Y-77579308D02*
X7968700Y-77517999D01*
X8368700Y-77725142D02*
X8402033Y-77663832D01*
X8402033Y-77663832D02*
X8402033Y-77520975D01*
X8402033Y-77520975D02*
X8368700Y-77467999D01*
X8368700Y-77467999D02*
X8302033Y-77447761D01*
X8302033Y-77447761D02*
X8235366Y-77456094D01*
X8235366Y-77456094D02*
X8168700Y-77492999D01*
X8168700Y-77492999D02*
X8135366Y-77554308D01*
X8135366Y-77554308D02*
X8135366Y-77697165D01*
X8135366Y-77697165D02*
X8102033Y-77758475D01*
X8368700Y-78267999D02*
X8402033Y-78206689D01*
X8402033Y-78206689D02*
X8402033Y-78092403D01*
X8402033Y-78092403D02*
X8368700Y-78039427D01*
X8368700Y-78039427D02*
X8335366Y-78015022D01*
X8335366Y-78015022D02*
X8268700Y-77994784D01*
X8268700Y-77994784D02*
X8068700Y-78019784D01*
X8068700Y-78019784D02*
X8002033Y-78056689D01*
X8002033Y-78056689D02*
X7968700Y-78089427D01*
X7968700Y-78089427D02*
X7935366Y-78150737D01*
X7935366Y-78150737D02*
X7935366Y-78265022D01*
X7935366Y-78265022D02*
X7968700Y-78317999D01*
X8402033Y-78520975D02*
X7702033Y-78608475D01*
X8135366Y-78611451D02*
X8402033Y-78749546D01*
X7935366Y-78807880D02*
X8202033Y-78545975D01*
X8135366Y-79040022D02*
X8135366Y-79497165D01*
X7935366Y-79807879D02*
X8635366Y-79720379D01*
X7968700Y-79803713D02*
X7935366Y-79865022D01*
X7935366Y-79865022D02*
X7935366Y-79979308D01*
X7935366Y-79979308D02*
X7968700Y-80032284D01*
X7968700Y-80032284D02*
X8002033Y-80056689D01*
X8002033Y-80056689D02*
X8068700Y-80076927D01*
X8068700Y-80076927D02*
X8268700Y-80051927D01*
X8268700Y-80051927D02*
X8335366Y-80015022D01*
X8335366Y-80015022D02*
X8368700Y-79982284D01*
X8368700Y-79982284D02*
X8402033Y-79920975D01*
X8402033Y-79920975D02*
X8402033Y-79806689D01*
X8402033Y-79806689D02*
X8368700Y-79753713D01*
X8402033Y-80292403D02*
X7935366Y-80350736D01*
X8002033Y-80342403D02*
X7968700Y-80375141D01*
X7968700Y-80375141D02*
X7935366Y-80436451D01*
X7935366Y-80436451D02*
X7935366Y-80522165D01*
X7935366Y-80522165D02*
X7968700Y-80575141D01*
X7968700Y-80575141D02*
X8035366Y-80595379D01*
X8035366Y-80595379D02*
X8402033Y-80549546D01*
X8035366Y-80595379D02*
X7968700Y-80632284D01*
X7968700Y-80632284D02*
X7935366Y-80693593D01*
X7935366Y-80693593D02*
X7935366Y-80779308D01*
X7935366Y-80779308D02*
X7968700Y-80832284D01*
X7968700Y-80832284D02*
X8035366Y-80852522D01*
X8035366Y-80852522D02*
X8402033Y-80806689D01*
X8402033Y-81178117D02*
X8368700Y-81125141D01*
X8368700Y-81125141D02*
X8335366Y-81100736D01*
X8335366Y-81100736D02*
X8268700Y-81080498D01*
X8268700Y-81080498D02*
X8068700Y-81105498D01*
X8068700Y-81105498D02*
X8002033Y-81142403D01*
X8002033Y-81142403D02*
X7968700Y-81175141D01*
X7968700Y-81175141D02*
X7935366Y-81236451D01*
X7935366Y-81236451D02*
X7935366Y-81322165D01*
X7935366Y-81322165D02*
X7968700Y-81375141D01*
X7968700Y-81375141D02*
X8002033Y-81399546D01*
X8002033Y-81399546D02*
X8068700Y-81419784D01*
X8068700Y-81419784D02*
X8268700Y-81394784D01*
X8268700Y-81394784D02*
X8335366Y-81357879D01*
X8335366Y-81357879D02*
X8368700Y-81325141D01*
X8368700Y-81325141D02*
X8402033Y-81263832D01*
X8402033Y-81263832D02*
X8402033Y-81178117D01*
X8402033Y-81892403D02*
X7702033Y-81979903D01*
X8368700Y-81896570D02*
X8402033Y-81835260D01*
X8402033Y-81835260D02*
X8402033Y-81720974D01*
X8402033Y-81720974D02*
X8368700Y-81667998D01*
X8368700Y-81667998D02*
X8335366Y-81643593D01*
X8335366Y-81643593D02*
X8268700Y-81623355D01*
X8268700Y-81623355D02*
X8068700Y-81648355D01*
X8068700Y-81648355D02*
X8002033Y-81685260D01*
X8002033Y-81685260D02*
X7968700Y-81717998D01*
X7968700Y-81717998D02*
X7935366Y-81779308D01*
X7935366Y-81779308D02*
X7935366Y-81893593D01*
X7935366Y-81893593D02*
X7968700Y-81946570D01*
D11*
%TO.C,J10*%
X-18382000Y-88772626D03*
D12*
X-10482000Y-83572626D03*
D13*
X-11482000Y-86172626D03*
D12*
X-14182000Y-93372626D03*
D11*
X-7082000Y-92872626D03*
%TD*%
%TO.C,J5*%
X-18382000Y-19829771D03*
D12*
X-10482000Y-14629771D03*
D13*
X-11482000Y-17229771D03*
D12*
X-14182000Y-24429771D03*
D11*
X-7082000Y-23929771D03*
%TD*%
D14*
%TO.C,H2*%
X7350000Y-88833274D03*
X7833274Y-87666548D03*
X7833274Y-90000000D03*
X9000000Y-87183274D03*
D15*
X9000000Y-88833274D03*
D14*
X9000000Y-90483274D03*
X10166726Y-87666548D03*
X10166726Y-90000000D03*
X10650000Y-88833274D03*
%TD*%
%TO.C,H1*%
X7350000Y-23750000D03*
X7833274Y-22583274D03*
X7833274Y-24916726D03*
X9000000Y-22100000D03*
D15*
X9000000Y-23750000D03*
D14*
X9000000Y-25400000D03*
X10166726Y-22583274D03*
X10166726Y-24916726D03*
X10650000Y-23750000D03*
%TD*%
D16*
%TO.C,J1*%
X2000000Y-105975000D03*
D17*
X-540000Y-105975000D03*
X2000000Y-103435000D03*
X-540000Y-103435000D03*
X2000000Y-100895000D03*
X-540000Y-100895000D03*
X2000000Y-98355000D03*
X-540000Y-98355000D03*
X2000000Y-95815000D03*
X-540000Y-95815000D03*
%TD*%
D11*
%TO.C,J9*%
X-18382000Y-74984055D03*
D12*
X-10482000Y-69784055D03*
D13*
X-11482000Y-72384055D03*
D12*
X-14182000Y-79584055D03*
D11*
X-7082000Y-79084055D03*
%TD*%
%TO.C,J11*%
X-18382000Y-102561200D03*
D12*
X-10482000Y-97361200D03*
D13*
X-11482000Y-99961200D03*
D12*
X-14182000Y-107161200D03*
D11*
X-7082000Y-106661200D03*
%TD*%
%TO.C,J7*%
X-18382000Y-47406913D03*
D12*
X-10482000Y-42206913D03*
D13*
X-11482000Y-44806913D03*
D12*
X-14182000Y-52006913D03*
D11*
X-7082000Y-51506913D03*
%TD*%
%TO.C,J4*%
X-18382000Y-6041200D03*
D12*
X-10482000Y-841200D03*
D13*
X-11482000Y-3441200D03*
D12*
X-14182000Y-10641200D03*
D11*
X-7082000Y-10141200D03*
%TD*%
%TO.C,J6*%
X-18382000Y-33618342D03*
D12*
X-10482000Y-28418342D03*
D13*
X-11482000Y-31018342D03*
D12*
X-14182000Y-38218342D03*
D11*
X-7082000Y-37718342D03*
%TD*%
%TO.C,J8*%
X-18382000Y-61195484D03*
D12*
X-10482000Y-55995484D03*
D13*
X-11482000Y-58595484D03*
D12*
X-14182000Y-65795484D03*
D11*
X-7082000Y-65295484D03*
%TD*%
D16*
%TO.C,J2*%
X2000000Y-16750000D03*
D17*
X-540000Y-16750000D03*
X2000000Y-14210000D03*
X-540000Y-14210000D03*
X2000000Y-11670000D03*
X-540000Y-11670000D03*
X2000000Y-9130000D03*
X-540000Y-9130000D03*
X2000000Y-6590000D03*
X-540000Y-6590000D03*
X2000000Y-4050000D03*
X-540000Y-4050000D03*
%TD*%
D18*
%TO.C,RV3*%
X-14201538Y-22659374D03*
X-12651538Y-22659374D03*
%TD*%
%TO.C,RV4*%
X-14201538Y-50242122D03*
X-12651538Y-50242122D03*
%TD*%
D19*
%TO.C,D33*%
X-15754000Y-74987186D03*
D20*
X-16004000Y-74987186D03*
X-16704000Y-74987186D03*
D19*
X-16954000Y-74987186D03*
%TD*%
%TO.C,D27*%
X-15754000Y-6042314D03*
D20*
X-16004000Y-6042314D03*
X-16704000Y-6042314D03*
D19*
X-16954000Y-6042314D03*
%TD*%
%TO.C,D34*%
X-15754000Y-102565135D03*
D20*
X-16004000Y-102565135D03*
X-16704000Y-102565135D03*
D19*
X-16954000Y-102565135D03*
%TD*%
D21*
%TO.C,R37*%
X-5504000Y-68868000D03*
X-5504000Y-67218000D03*
%TD*%
D18*
%TO.C,RV8*%
X-14201538Y-105407619D03*
X-12651538Y-105407619D03*
%TD*%
D22*
%TO.C,R40*%
X-8712623Y-104219372D03*
X-7062623Y-104219372D03*
%TD*%
D19*
%TO.C,D30*%
X-15754000Y-47409237D03*
D20*
X-16004000Y-47409237D03*
X-16704000Y-47409237D03*
D19*
X-16954000Y-47409237D03*
%TD*%
%TO.C,D29*%
X-15754000Y-19831288D03*
D20*
X-16004000Y-19831288D03*
X-16704000Y-19831288D03*
D19*
X-16954000Y-19831288D03*
%TD*%
%TO.C,D28*%
X-15754000Y-33620263D03*
D20*
X-16004000Y-33620263D03*
X-16704000Y-33620263D03*
D19*
X-16954000Y-33620263D03*
%TD*%
D23*
%TO.C,Q4*%
X-1941500Y-81668000D03*
X-1941500Y-79768000D03*
X-66500Y-80718000D03*
%TD*%
D24*
%TO.C,R38*%
X-5427375Y-89968000D03*
X-7077375Y-89968000D03*
%TD*%
D25*
%TO.C,J3*%
X-3654000Y-50000000D03*
X-3654000Y-50500000D03*
X-3654000Y-51000000D03*
X-3654000Y-51500000D03*
X-3654000Y-52000000D03*
X-3654000Y-52500000D03*
X-3654000Y-53000000D03*
X-3654000Y-53500000D03*
X-3654000Y-54000000D03*
X-3654000Y-54500000D03*
X-3654000Y-55000000D03*
X-3654000Y-55500000D03*
X-3654000Y-56000000D03*
X-3654000Y-56500000D03*
D26*
X-1754000Y-48050000D03*
X-1754000Y-58450000D03*
%TD*%
D18*
%TO.C,RV2*%
X-14201538Y-36450748D03*
X-12651538Y-36450748D03*
%TD*%
%TO.C,RV5*%
X-14201538Y-64033497D03*
X-12651538Y-64033497D03*
%TD*%
D23*
%TO.C,Q3*%
X-1941500Y-86668000D03*
X-1941500Y-84768000D03*
X-66499Y-85718000D03*
%TD*%
D18*
%TO.C,RV6*%
X-14201538Y-91616245D03*
X-12651538Y-91616245D03*
%TD*%
D19*
%TO.C,D31*%
X-15754000Y-61198212D03*
D20*
X-16004000Y-61198212D03*
X-16704000Y-61198212D03*
D19*
X-16954000Y-61198212D03*
%TD*%
D18*
%TO.C,RV1*%
X-14201538Y-8868000D03*
X-12651538Y-8868000D03*
%TD*%
D23*
%TO.C,Q2*%
X2808500Y-81668000D03*
X2808500Y-79768000D03*
X4683500Y-80718000D03*
%TD*%
%TO.C,Q5*%
X2808500Y-86668000D03*
X2808500Y-84768000D03*
X4683501Y-85718000D03*
%TD*%
D19*
%TO.C,D32*%
X-15754000Y-88776161D03*
D20*
X-16004000Y-88776161D03*
X-16704000Y-88776161D03*
D19*
X-16954000Y-88776161D03*
%TD*%
D24*
%TO.C,R39*%
X-5432342Y-81511818D03*
X-7082342Y-81511818D03*
%TD*%
D18*
%TO.C,RV7*%
X-14201538Y-77824871D03*
X-12651538Y-77824871D03*
%TD*%
M02*
